<?xml version="1.0" standalone="no"?>
<!DOCTYPE svg PUBLIC "-//W3C//DTD SVG 1.1//EN" "http://www.w3.org/Graphics/SVG/1.1/DTD/svg11.dtd" >
<svg xmlns="http://www.w3.org/2000/svg" xmlns:xlink="http://www.w3.org/1999/xlink" version="1.1">
<metadata>
Created by FontForge 20200427 at Tue Jul 12 21:30:30 2016
 By www
Copyright (c) 2016 by Schizotype. All rights reserved.
</metadata>
<defs>
<font id="ChillScript" horiz-adv-x="560" >
  <font-face 
    font-family="ChillScript"
    font-weight="400"
    font-stretch="normal"
    units-per-em="1000"
    panose-1="0 0 0 0 0 0 0 0 0 0"
    ascent="769"
    descent="-231"
    x-height="423"
    cap-height="792"
    bbox="-121 -234 1574 1080"
    underline-thickness="75"
    underline-position="-122"
    unicode-range="U+000D-FB00"
  />
<missing-glyph horiz-adv-x="736" 
d="M576 0h-564q44 168 79 366t48 312l13 114h650q-13 -59 -35 -153.5t-81.5 -307t-109.5 -331.5zM504 120q62 177 120 476l-188 -232zM254 598q-60 -280 -106 -469l188 251zM372 285l-162 -200h237zM554 672h-203l55 -198z" />
    <glyph glyph-name="f_f" unicode="ff" horiz-adv-x="762" 
d="M744 339h-111q58 -40 91 -105.5t33 -145.5q0 -119 -55.5 -188.5t-141.5 -69.5q-81 0 -120.5 62t-39.5 158q0 126 33 283q-28 6 -46 6h-130q58 -40 91 -105.5t33 -145.5q0 -119 -55.5 -188.5t-141.5 -69.5q-81 0 -120.5 62t-39.5 158q0 126 33 283q-28 6 -47 6l21 75
q30 0 44 1q21 87 49 176.5t45 134.5l17 46h198q-80 -168 -139 -352q105 4 210 11q21 84 47.5 169t43.5 128l16 44h198q-74 -155 -132 -329l149 15zM265 84q0 106 -65 173q-16 -82 -16 -141q0 -58 6.5 -87t26.5 -29q21 0 34.5 23t13.5 61zM641 84q0 106 -65 173
q-16 -82 -16 -141q0 -58 6.5 -87t26.5 -29q21 0 34.5 23t13.5 61z" />
    <glyph glyph-name="a_r" unicode="ar" horiz-adv-x="953" 
d="M995 243l54 -27l-6 -12q-16 -31 -26.5 -51t-35 -56t-47 -58t-55.5 -39.5t-67 -17.5q-63 0 -93.5 43.5t-30.5 110.5q0 91 34 203h-34q-24 -97 -58.5 -174t-87 -130t-111.5 -53q-42 0 -69.5 24.5t-37.5 66.5q-60 -91 -154 -91q-63 0 -106.5 44.5t-43.5 129.5
q0 108 67 196.5t164 88.5q89 0 117 -66l18 48h135q-54 -144 -54 -252q0 -54 31 -54q49 0 84.5 98.5t35.5 201.5q0 54 -12 87l113 15q-4 -41 -14 -96h209q-54 -144 -54 -252q0 -54 31 -54q41 0 104 126zM235 117q61 0 93 126l-59 11q13 33 13 55q0 30 -23 30q-27 0 -49 -45.5
t-22 -102.5q0 -34 12.5 -54t34.5 -20z" />
    <glyph glyph-name="a_r_r" unicode="arr" horiz-adv-x="1334" 
d="M1376 243l54 -27l-6 -12q-16 -31 -26.5 -51t-35 -56t-47 -58t-55.5 -39.5t-67 -17.5q-63 0 -93.5 43.5t-30.5 110.5q0 91 34 203h-36q-18 -66 -40 -123.5t-53 -113t-73 -88t-89 -32.5q-63 0 -93.5 43.5t-30.5 110.5q0 91 34 203h-34q-24 -97 -58.5 -174t-87 -130
t-111.5 -53q-42 0 -69.5 24.5t-37.5 66.5q-60 -91 -154 -91q-63 0 -106.5 44.5t-43.5 129.5q0 108 67 196.5t164 88.5q89 0 117 -66l18 48h135q-54 -144 -54 -252q0 -54 31 -54q49 0 84.5 98.5t35.5 201.5q0 54 -12 87l113 15q-4 -41 -14 -96h209q-54 -144 -54 -252
q0 -54 31 -54q37 0 73 97t36 197q0 54 -13 93l113 15q0 -24 -14 -96h209q-54 -144 -54 -252q0 -54 31 -54q41 0 104 126zM235 117q61 0 93 126l-59 11q13 33 13 55q0 30 -23 30q-27 0 -49 -45.5t-22 -102.5q0 -34 12.5 -54t34.5 -20z" />
    <glyph glyph-name="c_r" unicode="cr" horiz-adv-x="802" 
d="M455 504l113 15q-3 -49 -13 -96h208q-54 -144 -54 -252q0 -54 31 -54q41 0 104 126l54 -27l-6 -12q-16 -31 -26.5 -51t-35 -56t-47 -58t-55.5 -39.5t-67 -17.5q-63 0 -93.5 43.5t-30.5 110.5q0 91 34 203h-37q-21 -69 -51 -130t-71 -113.5t-96 -83t-117 -30.5
q-77 0 -127.5 51.5t-50.5 139.5q0 63 26 122.5t83.5 102.5t133.5 43q65 0 100.5 -31.5t35.5 -80.5q0 -51 -27 -91l-104 16q13 33 13 55q0 30 -23 30q-27 0 -49 -42t-22 -98q0 -101 77 -101q58 0 106.5 51.5t73 123.5t24.5 144q0 48 -14 87z" />
    <glyph glyph-name="d_r" unicode="dr" horiz-adv-x="969" 
d="M1011 243l54 -27l-6 -12q-16 -31 -26.5 -51t-35 -56t-47 -58t-55.5 -39.5t-67 -17.5q-63 0 -93.5 43.5t-30.5 110.5q0 91 34 203h-38q-18 -58 -41.5 -114t-57.5 -114t-78.5 -93.5t-91.5 -35.5q-42 0 -69.5 24.5t-37.5 66.5q-60 -91 -154 -91q-63 0 -106.5 44.5
t-43.5 129.5q0 108 67 196.5t164 88.5q72 0 104 -44q17 83 40.5 177t38.5 146l15 52h198q-74 -169 -127 -345t-53 -256q0 -54 31 -54q25 0 57 42t56 114t24 145q0 51 -13 86l113 15q0 -36 -13 -96h208q-54 -144 -54 -252q0 -54 31 -54q41 0 104 126zM235 117q60 0 92 121
q0 1 0.5 2.5t0.5 2.5l-59 11q13 33 13 55q0 30 -23 30q-27 0 -49 -45.5t-22 -102.5q0 -34 12.5 -54t34.5 -20z" />
    <glyph glyph-name="e_r" unicode="er" horiz-adv-x="808" 
d="M850 243l54 -27l-6 -12q-16 -31 -26.5 -51t-35 -56t-47 -58t-55.5 -39.5t-67 -17.5q-63 0 -93.5 43.5t-30.5 110.5q0 91 34 203h-35q-21 -69 -51 -130t-71 -113.5t-96 -83t-117 -30.5q-80 0 -133 50t-53 141q0 43 15 88t43.5 86.5t77.5 67.5t110 26q54 0 90.5 -26
t36.5 -76q0 -67 -56.5 -116.5t-143.5 -67.5q16 -57 76 -57q88 0 146 101.5t58 219.5q0 44 -11 85l113 15q-3 -49 -13 -96h206q-54 -144 -54 -252q0 -54 31 -54q41 0 104 126zM265 345q-24 0 -48.5 -33t-27.5 -92q40 11 69.5 36.5t29.5 61.5q0 27 -23 27z" />
    <glyph glyph-name="e_r_r" unicode="err" horiz-adv-x="1189" 
d="M1231 243l54 -27l-6 -12q-16 -31 -26.5 -51t-35 -56t-47 -58t-55.5 -39.5t-67 -17.5q-63 0 -93.5 43.5t-30.5 110.5q0 91 34 203h-36q-18 -66 -40 -123.5t-53 -113t-73 -88t-89 -32.5q-63 0 -93.5 43.5t-30.5 110.5q0 91 34 203h-35q-21 -69 -51 -130t-71 -113.5t-96 -83
t-117 -30.5q-80 0 -133 50t-53 141q0 43 15 88t43.5 86.5t77.5 67.5t110 26q54 0 90.5 -26t36.5 -76q0 -67 -56.5 -116.5t-143.5 -67.5q16 -57 76 -57q88 0 146 101.5t58 219.5q0 44 -11 85l113 15q-3 -49 -13 -96h206q-54 -144 -54 -252q0 -54 31 -54q37 0 73 97t36 197
q0 54 -13 93l113 15q0 -24 -14 -96h209q-54 -144 -54 -252q0 -54 31 -54q41 0 104 126zM265 345q-24 0 -48.5 -33t-27.5 -92q40 11 69.5 36.5t29.5 61.5q0 27 -23 27z" />
    <glyph glyph-name="f_f_t" unicode="fft" horiz-adv-x="1079" 
d="M10 339l21 75h44q21 87 49 176.5t45 135.5l17 46h198q-80 -169 -139 -352q137 5 210 11q21 84 47.5 169t43.5 128l16 44h198q-73 -154 -131 -328q74 7 216 23l54 195h189q-33 -76 -67 -173q30 3 109 14l-44 -131q-41 -4 -104 -9q-30 -115 -30 -183q0 -63 38 -63
q30 0 63.5 38.5t57.5 87.5l54 -27q-119 -234 -243 -234q-70 0 -100 43t-30 128q0 71 26 199l-190 -10q60 -39 94.5 -105.5t34.5 -148.5q0 -119 -55.5 -188.5t-141.5 -69.5q-81 0 -120.5 62t-39.5 158q0 126 33 283q-13 3 -41 6h-135q58 -40 91 -105.5t33 -145.5
q0 -119 -55.5 -188.5t-141.5 -69.5q-81 0 -120.5 62t-39.5 158q0 126 33 283q-20 4 -47 6zM265 84q0 106 -65 173q-16 -82 -16 -141q0 -58 6.5 -87t26.5 -29q21 0 34.5 23t13.5 61zM641 84q0 106 -65 173q-16 -82 -16 -141q0 -58 6.5 -87t26.5 -29q21 0 34.5 23t13.5 61z
" />
    <glyph glyph-name="f_f_t_r" unicode="fftr" horiz-adv-x="1478" 
d="M1520 243l54 -27l-6 -12q-16 -31 -26.5 -51t-35 -56t-47 -58t-55.5 -39.5t-67 -17.5q-63 0 -93.5 43.5t-30.5 110.5q0 91 34 203h-35q-44 -150 -124.5 -253.5t-165.5 -103.5q-70 0 -100 43t-30 128q0 71 26 199l-190 -10q60 -39 94.5 -105.5t34.5 -148.5
q0 -119 -55.5 -188.5t-141.5 -69.5q-81 0 -120.5 62t-39.5 158q0 126 33 283q-28 6 -46 6h-130q58 -40 91 -105.5t33 -145.5q0 -119 -55.5 -188.5t-141.5 -69.5q-81 0 -120.5 62t-39.5 158q0 126 33 283q-10 2 -20 3.5t-17.5 2t-9.5 0.5l21 75h44q21 87 49 176.5t45 135.5
l17 46h198q-80 -169 -139 -352q137 5 210 11q21 84 47.5 169t43.5 128l16 44h198q-73 -154 -131 -328q74 7 216 23l54 195h189q-33 -76 -67 -173q30 3 109 14l-44 -131q-41 -4 -104 -9q-30 -115 -30 -183q0 -63 38 -63q49 0 101 92.5t52 207.5q0 47 -12 87l113 15
q-3 -48 -12 -96h207q-54 -144 -54 -252q0 -54 31 -54q41 0 104 126zM265 84q0 106 -65 173q-16 -82 -16 -141q0 -58 6.5 -87t26.5 -29q21 0 34.5 23t13.5 61zM641 84q0 106 -65 173q-16 -82 -16 -141q0 -58 6.5 -87t26.5 -29q21 0 34.5 23t13.5 61z" />
    <glyph glyph-name="f_t" unicode="ft" horiz-adv-x="693" 
d="M31 414l45 5q21 86 48.5 174.5t44.5 133.5l17 45h198q-74 -156 -132 -331l217 27l54 194h189q-33 -76 -67 -173l109 14l-44 -131l-103 -6q-31 -115 -31 -186q0 -63 38 -63q30 0 63.5 38.5t57.5 87.5l54 -27q-119 -234 -243 -234q-70 0 -100 43t-30 128q0 68 27 203
l-193 -12q61 -40 96 -106.5t35 -149.5q0 -119 -55.5 -188.5t-141.5 -69.5q-81 0 -120.5 62t-39.5 158q0 126 33 283q-10 2 -20 3.5t-17.5 2t-9.5 0.5zM265 84q0 106 -65 173q-16 -82 -16 -141q0 -58 6.5 -87t26.5 -29q21 0 34.5 23t13.5 61z" />
    <glyph glyph-name="i_r" unicode="ir" horiz-adv-x="694" 
d="M736 243l54 -27l-6 -12q-16 -31 -26.5 -51t-35 -56t-47 -58t-55.5 -39.5t-67 -17.5q-63 0 -93.5 43.5t-30.5 110.5q0 91 34 203h-38q-18 -58 -41.5 -114t-57.5 -114t-78.5 -93.5t-91.5 -35.5q-68 0 -97 46t-29 116q0 60 11 129.5t23 109.5l11 40h171q-54 -144 -54 -252
q0 -54 31 -54q25 0 57 42t56 114t24 145q0 51 -13 86l113 15q0 -36 -13 -96h208q-54 -144 -54 -252q0 -54 31 -54q41 0 104 126zM214 730q43 0 72 -29t29 -76q0 -42 -30.5 -77.5t-80.5 -35.5q-44 0 -72.5 31t-28.5 73q0 46 32 80t79 34z" />
    <glyph glyph-name="i_r_r" unicode="irr" horiz-adv-x="1075" 
d="M1117 243l54 -27l-6 -12q-16 -31 -26.5 -51t-35 -56t-47 -58t-55.5 -39.5t-67 -17.5q-63 0 -93.5 43.5t-30.5 110.5q0 91 34 203h-36q-18 -66 -40 -123.5t-53 -113t-73 -88t-89 -32.5q-63 0 -93.5 43.5t-30.5 110.5q0 91 34 203h-38q-18 -58 -41.5 -114t-57.5 -114
t-78.5 -93.5t-91.5 -35.5q-68 0 -97 46t-29 116q0 60 11 129.5t23 109.5l11 40h171q-54 -144 -54 -252q0 -54 31 -54q25 0 57 42t56 114t24 145q0 51 -13 86l113 15q0 -36 -13 -96h208q-54 -144 -54 -252q0 -54 31 -54q37 0 73 97t36 197q0 54 -13 93l113 15q0 -24 -14 -96
h209q-54 -144 -54 -252q0 -54 31 -54q41 0 104 126zM214 730q43 0 72 -29t29 -76q0 -42 -30.5 -77.5t-80.5 -35.5q-44 0 -72.5 31t-28.5 73q0 46 32 80t79 34z" />
    <glyph glyph-name="k_r" unicode="kr" horiz-adv-x="920" 
d="M962 243l54 -27l-6 -12q-16 -31 -26.5 -51t-35 -56t-47 -58t-55.5 -39.5t-67 -17.5q-63 0 -93.5 43.5t-30.5 110.5q0 91 34 203h-38q-45 -164 -123 -260.5t-163 -96.5q-64 0 -105 53.5t-60 131.5q-27 -70 -39 -167h-155q11 144 59 370.5t104 401.5h198q-7 -8 -37 -83
t-69 -188.5t-61 -199.5q82 140 191 140q44 0 70.5 -24.5t26.5 -70.5q0 -50 -41 -93t-89 -62q9 -32 27.5 -52.5t37.5 -20.5q63 0 112.5 92.5t49.5 209.5q0 56 -12 84l113 15q-4 -36 -16 -96h211q-54 -144 -54 -252q0 -54 31 -54q41 0 104 126zM310 299q-52 0 -100 -107
q47 8 85.5 30t38.5 50q0 27 -24 27z" />
    <glyph glyph-name="l_r" unicode="lr" horiz-adv-x="694" 
d="M156 -18q-68 0 -97 46t-29 116q0 94 36 251t72 267l36 110h198q-7 -17 -19.5 -45.5t-43.5 -109t-54.5 -152.5t-43 -156t-19.5 -138t31 -54q25 0 57 42t56 114t24 145q0 51 -13 86l113 15q0 -36 -13 -96h208q-54 -144 -54 -252q0 -54 31 -54q41 0 104 126l54 -27l-6 -12
q-16 -31 -26.5 -51t-35 -56t-47 -58t-55.5 -39.5t-67 -17.5q-63 0 -93.5 43.5t-30.5 110.5q0 91 34 203h-38q-18 -58 -41.5 -114t-57.5 -114t-78.5 -93.5t-91.5 -35.5z" />
    <glyph glyph-name="m_r" unicode="mr" horiz-adv-x="1224" 
d="M78 423h156l-27 -120q81 138 189 138q44 0 69 -27t25 -75q0 -9 -4 -35q82 137 189 137q46 0 75.5 -26t29.5 -77q0 -44 -28.5 -110.5t-28.5 -82.5q0 -28 26 -28t58 40t57 111.5t25 148.5q0 47 -12 87l113 15q-6 -48 -15 -96h210q-54 -144 -54 -252q0 -54 31 -54
q41 0 104 126l54 -27l-6 -12q-16 -31 -26.5 -51t-35 -56t-47 -58t-55.5 -39.5t-67 -17.5q-63 0 -93.5 43.5t-30.5 110.5q0 91 34 203h-38q-43 -154 -118 -255.5t-159 -101.5q-51 0 -83 29t-32 80q0 38 19.5 99.5t19.5 80.5q0 28 -21 28q-78 0 -141 -299h-166q56 207 56 262
q0 37 -28 37q-39 0 -81.5 -87.5t-54.5 -211.5h-155q8 109 25 215t30 157z" />
    <glyph glyph-name="n_r" unicode="nr" horiz-adv-x="945" 
d="M78 423h156l-27 -120q81 138 189 138q46 0 75.5 -26t29.5 -77q0 -44 -28.5 -110.5t-28.5 -82.5q0 -28 26 -28t58 40t57 111.5t25 148.5q0 47 -12 87l113 15q-6 -48 -15 -96h210q-54 -144 -54 -252q0 -54 31 -54q41 0 104 126l54 -27l-6 -12q-16 -31 -26.5 -51t-35 -56
t-47 -58t-55.5 -39.5t-67 -17.5q-63 0 -93.5 43.5t-30.5 110.5q0 91 34 203h-38q-43 -154 -118 -255.5t-159 -101.5q-51 0 -83 29t-32 80q0 38 19.5 99.5t19.5 80.5q0 28 -21 28q-39 0 -81.5 -87.5t-54.5 -211.5h-155q8 109 25 215t30 157z" />
    <glyph glyph-name="o_r" unicode="or" horiz-adv-x="816" 
d="M858 243l54 -27l-6 -12q-16 -31 -26.5 -51t-35 -56t-47 -58t-55.5 -39.5t-67 -17.5q-63 0 -93.5 43.5t-30.5 110.5q0 91 34 203h-49q-29 -48 -69 -84q-5 -109 -78.5 -191t-181.5 -82q-82 0 -134 50t-52 141q0 46 16.5 92.5t47 86t81.5 64.5t113 25q65 0 104 -33t43 -83
q50 55 50 133q0 26 -7 46l113 15q2 -16 2 -25q0 -33 -11 -71h204q-54 -144 -54 -252q0 -54 31 -54q41 0 104 126zM251 99q37 0 59.5 38.5t22.5 86.5q0 12 -1 18l-31 12q7 14 7 41q0 21 -11.5 32.5t-28.5 11.5q-30 0 -55 -42t-25 -98q0 -50 17.5 -75t45.5 -25z" />
    <glyph glyph-name="o_r_r" unicode="orr" horiz-adv-x="1197" 
d="M850 504l113 15q0 -24 -14 -96h209q-54 -144 -54 -252q0 -54 31 -54q41 0 104 126l54 -27l-6 -12q-16 -31 -26.5 -51t-35 -56t-47 -58t-55.5 -39.5t-67 -17.5q-63 0 -93.5 43.5t-30.5 110.5q0 91 34 203h-36q-18 -66 -40 -123.5t-53 -113t-73 -88t-89 -32.5
q-63 0 -93.5 43.5t-30.5 110.5q0 91 34 203h-49q-29 -48 -69 -84q-5 -109 -78.5 -191t-181.5 -82q-82 0 -134 50t-52 141q0 46 16.5 92.5t47 86t81.5 64.5t113 25q64 0 103.5 -33t43.5 -82q50 55 50 132q0 26 -7 46l113 15q2 -16 2 -25q0 -35 -11 -71h204q-54 -144 -54 -252
q0 -54 31 -54q37 0 73 97t36 197q0 54 -13 93zM333 223q0 13 -1 19l-31 12q7 14 7 41q0 21 -11.5 32.5t-28.5 11.5q-30 0 -55 -42t-25 -98q0 -50 17.5 -75t45.5 -25q37 0 59.5 38t22.5 86z" />
    <glyph glyph-name="o_s" unicode="os" horiz-adv-x="829" 
d="M516 463l113 15q0 -40 -11 -79q87 -49 141.5 -116.5t54.5 -138.5q0 -67 -47 -114.5t-136 -47.5q-122 0 -194 100l56 84q42 -45 84 -45q34 0 34 40q0 49 -72 115q-32 -27 -74 -43q-12 -103 -84 -177t-174 -74q-82 0 -134 50t-52 141q0 46 16.5 92.5t47 86t81.5 64.5
t113 25q69 0 108.5 -36.5t39.5 -90.5q0 -1 -0.5 -2.5t-0.5 -2.5q44 20 68.5 53.5t24.5 72.5q0 15 -3 28zM251 99q37 0 59.5 38.5t22.5 86.5q0 12 -1 18l-31 12q7 14 7 41q0 21 -11.5 32.5t-28.5 11.5q-30 0 -55 -42t-25 -98q0 -50 17.5 -75t45.5 -25z" />
    <glyph glyph-name="o_x" unicode="ox" horiz-adv-x="894" 
d="M481 -40l-40 44q26 29 133 136q-33 71 -60 165q-18 -26 -48 -51q-5 -109 -78 -190.5t-181 -81.5q-82 0 -134 50t-52 141q0 46 16.5 92.5t47 86t81.5 64.5t113 25q65 0 104 -33t43 -84q36 39 47 99h200q0 -65 23 -147q62 84 82 160l159 24q-25 -121 -204 -282
q33 -60 73 -60q68 0 130 125l54 -27q-63 -131 -122.5 -182.5t-119.5 -51.5q-74 0 -136 92q-104 -87 -131 -114zM333 223q0 13 -1 19l-31 12q7 14 7 41q0 21 -11.5 32.5t-28.5 11.5q-30 0 -55 -42t-25 -98q0 -50 17.5 -75t45.5 -25q37 0 59.5 38t22.5 86z" />
    <glyph glyph-name="r_r" unicode="rr" horiz-adv-x="790" 
d="M832 243l54 -27l-6 -12q-16 -31 -26.5 -51t-35 -56t-47 -58t-55.5 -39.5t-67 -17.5q-63 0 -93.5 43.5t-30.5 110.5q0 91 34 203h-36q-18 -66 -40 -123.5t-53 -113t-73 -88t-89 -32.5q-63 0 -93.5 43.5t-30.5 110.5q0 91 34 203h-38q-21 -76 -48 -131l-56 23q39 89 39 187
q0 51 -13 86l113 15q0 -34 -13 -96h208q-54 -144 -54 -252q0 -54 31 -54q37 0 73 97t36 197q0 54 -13 93l113 15q0 -24 -14 -96h209q-54 -144 -54 -252q0 -54 31 -54q41 0 104 126z" />
    <glyph glyph-name="t_r" unicode="tr" horiz-adv-x="716" 
d="M368 503l-44 -131h-101q-33 -120 -33 -192q0 -63 38 -63q49 0 101 92.5t52 207.5q0 47 -12 87l113 15q-3 -48 -12 -96h207q-54 -144 -54 -252q0 -54 31 -54q41 0 104 126l54 -27l-6 -12q-16 -31 -26.5 -51t-35 -56t-47 -58t-55.5 -39.5t-67 -17.5q-63 0 -93.5 43.5
t-30.5 110.5q0 91 34 203h-35q-44 -150 -124.5 -253.5t-165.5 -103.5q-70 0 -100 43t-30 128q0 79 31 219h-51l21 87l52 7l54 196h189q-33 -76 -67 -173z" />
    <glyph glyph-name="t_t" unicode="tt" horiz-adv-x="614" 
d="M656 243l54 -27q-119 -234 -243 -234q-60 0 -90.5 31.5t-37.5 94.5q-89 -126 -179 -126q-70 0 -100 43t-30 128q0 79 31 219h-51l21 87l51 3l55 200h189q-37 -84 -72 -188l140 10l50 178h189q-32 -72 -65 -166l107 7l-44 -131h-101q-33 -120 -33 -192q0 -63 38 -63
q30 0 63.5 38.5t57.5 87.5zM228 117q27 0 58 33.5t56 79.5q9 67 26 142h-145q-33 -120 -33 -192q0 -63 38 -63z" />
    <glyph glyph-name="t_t_r" unicode="ttr" horiz-adv-x="1023" 
d="M535 117q49 0 101 92.5t52 207.5q0 47 -12 87l113 15q-3 -48 -12 -96h207q-54 -144 -54 -252q0 -54 31 -54q41 0 104 126l54 -27l-6 -12q-16 -31 -26.5 -51t-35 -56t-47 -58t-55.5 -39.5t-67 -17.5q-63 0 -93.5 43.5t-30.5 110.5q0 91 34 203h-35q-44 -150 -124.5 -253.5
t-165.5 -103.5q-60 0 -90.5 31.5t-37.5 94.5q-89 -126 -179 -126q-70 0 -100 43t-30 128q0 79 31 219h-51l21 87l51 3l55 200h189q-37 -84 -72 -188l140 10l50 178h189q-32 -72 -65 -166l107 7l-44 -131h-101q-33 -120 -33 -192q0 -63 38 -63zM228 117q27 0 58 33.5t56 79.5
q9 67 26 142h-145q-33 -120 -33 -192q0 -63 38 -63z" />
    <glyph glyph-name="u_r" unicode="ur" horiz-adv-x="969" 
d="M447 -18q-103 0 -125 107q-67 -107 -162 -107q-141 0 -141 156q0 60 14 131t28 113l14 41h171q-7 -15 -17 -40.5t-27 -90t-17 -112.5q0 -27 11.5 -42t28.5 -15q23 0 41 17t31.5 52.5t22 66.5t20 83.5t19.5 80.5h178q-54 -144 -54 -252q0 -54 31 -54q49 0 84.5 98.5
t35.5 201.5q0 54 -12 87l113 15q-4 -41 -14 -96h209q-54 -144 -54 -252q0 -54 31 -54q41 0 104 126l54 -27l-6 -12q-16 -31 -26.5 -51t-35 -56t-47 -58t-55.5 -39.5t-67 -17.5q-63 0 -93.5 43.5t-30.5 110.5q0 91 34 203h-34q-24 -97 -58.5 -174t-87 -130t-111.5 -53z" />
    <glyph glyph-name="u_r_r" unicode="urr" horiz-adv-x="1350" 
d="M447 -18q-103 0 -125 107q-67 -107 -162 -107q-141 0 -141 156q0 60 14 131t28 113l14 41h171q-7 -15 -17 -40.5t-27 -90t-17 -112.5q0 -27 11.5 -42t28.5 -15q23 0 41 17t31.5 52.5t22 66.5t20 83.5t19.5 80.5h178q-54 -144 -54 -252q0 -54 31 -54q49 0 84.5 98.5
t35.5 201.5q0 54 -12 87l113 15q-4 -41 -14 -96h209q-54 -144 -54 -252q0 -54 31 -54q37 0 73 97t36 197q0 54 -13 93l113 15q0 -24 -14 -96h209q-54 -144 -54 -252q0 -54 31 -54q41 0 104 126l54 -27l-6 -12q-16 -31 -26.5 -51t-35 -56t-47 -58t-55.5 -39.5t-67 -17.5
q-63 0 -93.5 43.5t-30.5 110.5q0 91 34 203h-36q-18 -66 -40 -123.5t-53 -113t-73 -88t-89 -32.5q-63 0 -93.5 43.5t-30.5 110.5q0 91 34 203h-34q-24 -97 -58.5 -174t-87 -130t-111.5 -53z" />
    <glyph glyph-name=".notdef" horiz-adv-x="736" 
d="M576 0h-564q44 168 79 366t48 312l13 114h650q-13 -59 -35 -153.5t-81.5 -307t-109.5 -331.5zM504 120q62 177 120 476l-188 -232zM254 598q-60 -280 -106 -469l188 251zM372 285l-162 -200h237zM554 672h-203l55 -198z" />
    <glyph glyph-name=".null" horiz-adv-x="0" 
 />
    <glyph glyph-name="nonmarkingreturn" horiz-adv-x="333" 
 />
    <glyph glyph-name="NULL" horiz-adv-x="0" 
 />
    <glyph glyph-name="NULL" horiz-adv-x="0" 
 />
    <glyph glyph-name="CR" unicode="&#xd;" horiz-adv-x="0" 
 />
    <glyph glyph-name="space" unicode=" " horiz-adv-x="244" 
 />
    <glyph glyph-name="exclam" unicode="!" horiz-adv-x="366" 
d="M276 221h-133q3 59 43.5 260t67.5 291h207q-25 -49 -90 -238t-95 -313zM192 181q39 0 65.5 -26.5t26.5 -69.5q0 -38 -27.5 -70.5t-73.5 -32.5q-40 0 -66 28.5t-26 66.5q0 42 29.5 73t71.5 31z" />
    <glyph glyph-name="quotedbl" unicode="&#x22;" horiz-adv-x="409" 
d="M208 507l-115 -1q33 121 50 266h146q-33 -136 -81 -265zM408 507l-115 -1q33 121 50 266h146q-33 -136 -81 -265z" />
    <glyph glyph-name="numbersign" unicode="#" horiz-adv-x="763" 
d="M689 324l-55 -162h-130q-32 -85 -56 -162h-119q9 35 46 162h-87q-27 -97 -40 -162h-119q11 61 34 162h-77l28 122l79 5l21 79l-80 -4l39 121l76 9q37 126 64 199h177q-41 -78 -82 -179l94 11q25 61 72 168h177q-41 -66 -81 -147l110 14l-71 -163l-112 -7q-22 -50 -32 -75
zM421 305q5 17 26 77l-91 -6q-16 -44 -26 -77z" />
    <glyph glyph-name="dollar" unicode="$" horiz-adv-x="476" 
d="M64 220l84 15q3 -26 19.5 -45t36.5 -19q34 0 34 24q0 11 -18.5 25t-45 31t-53 39t-45 56.5t-18.5 75.5q0 66 41 116t121 62q9 42 23 93h182q-24 -54 -44 -113q45 -22 69 -60.5t24 -80.5q0 -59 -23 -84l-139 29q8 19 8 33q0 15 -10.5 26t-24.5 11q-15 0 -25 -9t-10 -26
q0 -19 17.5 -35t42 -30t49 -31t42 -46t17.5 -67q0 -50 -37.5 -91.5t-107.5 -49.5q-6 -36 -9 -69h-124q7 66 10 88q-86 44 -86 132z" />
    <glyph glyph-name="percent" unicode="%" horiz-adv-x="795" 
d="M152 -38l-54 38q227 223 395 555q-32 -14 -66 -20q-10 -87 -70.5 -149.5t-146.5 -62.5q-69 0 -113 42.5t-44 118.5q0 53 23 103t74.5 86.5t119.5 36.5q53 0 86 -26.5t38 -66.5q115 11 165 76h129q-84 -179 -236 -387.5t-300 -343.5zM640 369q58 0 94 -30t38 -74l9 3
q8 -22 8 -45q0 -96 -58 -168.5t-151 -72.5q-69 0 -113 42.5t-44 118.5q0 53 23 103t74.5 86.5t119.5 36.5zM247 422q31 0 50 32t19 72q0 11 -1 16l-26 10q6 10 6 35q0 17 -9.5 27t-24.5 10q-25 0 -46 -35t-21 -83q0 -43 15 -63.5t38 -20.5zM617 81q31 0 50 32t19 72
q0 11 -1 16l-26 10q6 10 6 35q0 17 -9.5 27t-24.5 10q-25 0 -46 -35t-21 -83q0 -43 15 -63.5t38 -20.5z" />
    <glyph glyph-name="ampersand" unicode="&#x26;" horiz-adv-x="740" 
d="M392 311l27 112h357l-33 -144l-61 5q-52 -206 -84 -284h-115q14 52 22 101q-41 -62 -107.5 -95.5t-150.5 -33.5q-92 0 -151 51t-59 140q0 62 37.5 117t107.5 86q-114 72 -114 197q0 115 76 181t196 66q126 0 197.5 -68t71.5 -170q0 -33 -9.5 -70.5t-25.5 -59.5l-159 49
q15 32 15 70q0 31 -18.5 53t-44.5 22q-27 0 -49.5 -25.5t-22.5 -73.5q0 -47 29 -81t71 -34l-9 -31l-18 -78q-58 0 -96.5 -35t-38.5 -88q0 -36 23 -62t68 -26q52 0 108.5 55.5t64.5 143.5z" />
    <glyph glyph-name="quotesingle" unicode="'" horiz-adv-x="219" 
d="M218 507l-125 -1q33 121 50 266h156q-33 -136 -81 -265z" />
    <glyph glyph-name="parenleft" unicode="(" horiz-adv-x="445" 
d="M376 -61l-40 -53q-109 57 -163 155.5t-54 218.5q0 171 98 329.5t253 220.5l45 -61q-103 -95 -166 -225t-63 -271q0 -100 20.5 -169.5t69.5 -144.5z" />
    <glyph glyph-name="parenright" unicode=")" horiz-adv-x="392" 
d="M147 767l41 43q108 -56 162.5 -166t54.5 -233q0 -157 -101.5 -306t-249.5 -219l-45 61q229 171 229 507q0 173 -91 313z" />
    <glyph glyph-name="asterisk" unicode="*" horiz-adv-x="366" 
d="M98 608l50 111l115 -85l-15 146l129 -8l-53 -146l124 58l27 -119l-148 6l112 -106l-118 -67l-42 145l-77 -130l-98 85l133 84z" />
    <glyph glyph-name="plus" unicode="+" horiz-adv-x="534" 
d="M67 283l20 123h136q7 41 15 78.5t12 54.5l5 17h156q-24 -72 -46 -150h145l-27 -123h-148q-8 -37 -15 -73t-10.5 -55.5t-4.5 -21.5h-117q5 65 16 150h-137z" />
    <glyph glyph-name="comma" unicode="," horiz-adv-x="321" 
d="M113 -184l-38 42q57 58 57 131q0 51 -53 80q0 4 1.5 11t9 25.5t18 32t31 25t47.5 11.5q44 0 67 -31t23 -71q0 -69 -54.5 -148t-108.5 -108z" />
    <glyph glyph-name="hyphen" unicode="-" horiz-adv-x="445" 
d="M111 175l27 94l280 23l-19 -137z" />
    <glyph glyph-name="period" unicode="." horiz-adv-x="321" 
d="M192 181q39 0 65.5 -26.5t26.5 -69.5q0 -38 -27.5 -70.5t-73.5 -32.5q-40 0 -66 28.5t-26 66.5q0 42 29.5 73t71.5 31z" />
    <glyph glyph-name="slash" unicode="/" horiz-adv-x="358" 
d="M58 -38l-62 38l328 772h146z" />
    <glyph glyph-name="zero" unicode="0" horiz-adv-x="646" 
d="M398 711q128 0 193 -82.5t65 -205.5q0 -74 -21.5 -149t-63 -141.5t-111 -108.5t-155.5 -42q-117 0 -194 76.5t-77 216.5q0 77 25 154t70 140t115.5 102.5t153.5 39.5zM329 114q71 0 120.5 78.5t49.5 177.5q0 69 -26.5 109.5t-76.5 40.5q-71 0 -119 -78.5t-48 -178.5
q0 -68 25.5 -108.5t74.5 -40.5z" />
    <glyph glyph-name="one" unicode="1" horiz-adv-x="443" 
d="M95 388l-54 77l231 228h217q-57 -128 -109.5 -331t-71.5 -362h-159q23 223 68 450z" />
    <glyph glyph-name="two" unicode="2" horiz-adv-x="550" 
d="M505 172l-28 -172h-482l16 105q137 54 232 143t95 182q0 45 -25 70t-69 25q-74 0 -134 -54l-71 128q45 50 121.5 81t154.5 31q112 0 177 -57.5t65 -150.5q0 -111 -79.5 -204.5t-210.5 -159.5z" />
    <glyph glyph-name="three" unicode="3" horiz-adv-x="532" 
d="M288 163q0 26 -20.5 49t-52.5 34q-32 -2 -49 -2q-27 0 -41 1q0 25 3.5 45.5t7.5 28.5l3 8q33 5 63 5q19 0 59 -4q66 39 66 102q0 45 -25 70t-69 25q-74 0 -134 -54l-71 128q45 50 121.5 81t154.5 31q113 0 177.5 -51.5t64.5 -141.5q0 -65 -44 -126.5t-123 -100.5
q85 -48 85 -126q0 -81 -63.5 -132t-173.5 -51q-68 0 -130 24.5t-90 67.5l57 66q20 -24 57 -41t69 -17q48 0 73 21.5t25 59.5z" />
    <glyph glyph-name="four" unicode="4" horiz-adv-x="577" 
d="M428 0h-159l14 121h-279l16 105q94 110 180.5 247t114.5 220h294q-70 -157 -130 -412l95 12l-28 -172h-100q-15 -90 -18 -121zM344 485q-85 -140 -198 -244l157 19q17 110 41 225z" />
    <glyph glyph-name="five" unicode="5" horiz-adv-x="543" 
d="M101 272l-44 43q54 306 73 378h471l-57 -181l-332 26q-21 -59 -41 -120q62 23 131 23q101 0 158.5 -52.5t57.5 -138.5q0 -112 -80.5 -190t-217.5 -78q-122 0 -201 77l46 60q43 -37 110 -37q58 0 92 30.5t34 81.5q0 49 -32 78t-79 29q-49 0 -89 -29z" />
    <glyph glyph-name="six" unicode="6" horiz-adv-x="561" 
d="M272 -18q-108 0 -174.5 67t-66.5 187q0 137 84 272t220 209l192 -101q-161 -92 -244 -201q41 26 99 26q85 0 131 -51t46 -134q0 -115 -82 -194.5t-205 -79.5zM237 249l-28 2q-3 -19 -3 -39q0 -60 24 -94t58 -34q39 0 69 41t30 94q0 40 -19 69.5t-52 29.5q-28 0 -51 -20
t-28 -49z" />
    <glyph glyph-name="seven" unicode="7" horiz-adv-x="537" 
d="M50 487l42 206h491l-21 -138q-91 -74 -185 -234t-111 -321h-187q9 108 95.5 260.5t208.5 259.5z" />
    <glyph glyph-name="eight" unicode="8" horiz-adv-x="567" 
d="M38 149q0 38 29 86t90 79q-97 86 -97 180q0 91 70 154t197 63q124 0 195.5 -59t71.5 -149q0 -15 -6.5 -38t-21 -54t-45 -62.5t-70.5 -52.5q38 -55 38 -115q0 -91 -70 -145.5t-179 -54.5q-88 0 -145 45t-57 123zM296 498q0 -48 62 -108q30 18 47 46.5t17 44.5
q0 33 -19.5 55t-51.5 22q-25 0 -40 -16.5t-15 -43.5zM307 148q0 37 -53 85q-32 -16 -50.5 -40t-18.5 -48q0 -31 17 -46.5t44 -15.5q28 0 44.5 17t16.5 48z" />
    <glyph glyph-name="nine" unicode="9" horiz-adv-x="591" 
d="M346 712q111 0 183.5 -69t72.5 -193q0 -163 -133.5 -292t-348.5 -176l-35 69q7 2 18 6t43.5 20t61.5 34.5t63.5 50t57.5 67.5q-30 -19 -80 -19q-92 0 -143 59t-51 148q0 116 81 205.5t210 89.5zM275 322q32 0 53 20t25 49l26 -2q0 71 -24.5 103.5t-63.5 32.5
q-41 0 -66 -31.5t-25 -77.5q0 -43 20 -68.5t55 -25.5z" />
    <glyph glyph-name="colon" unicode=":" horiz-adv-x="321" 
d="M192 181q39 0 65.5 -26.5t26.5 -69.5q0 -38 -27.5 -70.5t-73.5 -32.5q-40 0 -66 28.5t-26 66.5q0 42 29.5 73t71.5 31zM236 431q39 0 65.5 -26.5t26.5 -69.5q0 -38 -27.5 -70.5t-73.5 -32.5q-41 0 -66.5 28.5t-25.5 66.5q0 43 29 73.5t72 30.5z" />
    <glyph glyph-name="semicolon" unicode=";" horiz-adv-x="321" 
d="M236 431q39 0 65.5 -26.5t26.5 -69.5q0 -38 -27.5 -70.5t-73.5 -32.5q-41 0 -66.5 28.5t-25.5 66.5q0 43 29 73.5t72 30.5zM113 -184l-38 42q57 58 57 131q0 51 -53 80q0 4 1.5 11t9 25.5t18 32t31 25t47.5 11.5q44 0 67 -31t23 -71q0 -69 -54.5 -148t-108.5 -108z" />
    <glyph glyph-name="less" unicode="&#x3c;" horiz-adv-x="515" 
d="M56 324l5 30l360 196l57 -100l-203 -106q49 -27 171 -101l-63 -116q-137 108 -327 197z" />
    <glyph glyph-name="equal" unicode="=" horiz-adv-x="534" 
d="M52 197l20 123h421l-27 -123h-414zM84 377l20 123h425l-27 -123h-418z" />
    <glyph glyph-name="greater" unicode="&#x3e;" horiz-adv-x="515" 
d="M478 352l-5 -30l-360 -196l-57 100l212 113q-74 49 -180 94l63 116q201 -105 327 -197z" />
    <glyph glyph-name="question" unicode="?" horiz-adv-x="542" 
d="M184 221l10 85q73 19 126.5 70t53.5 121q0 54 -31 80.5t-77 26.5q-70 0 -129 -54l-71 128q45 51 119 81.5t151 30.5q112 0 180 -64t68 -165q0 -121 -102 -210.5t-298 -129.5zM249 181q39 0 65.5 -26.5t26.5 -66.5q0 -41 -27.5 -73.5t-72.5 -32.5q-41 0 -67 28.5t-26 67.5
q0 42 29.5 72.5t71.5 30.5z" />
    <glyph glyph-name="at" unicode="@" horiz-adv-x="870" 
d="M861 380q0 -164 -70 -281t-159 -117q-42 0 -69.5 24.5t-37.5 66.5q-60 -91 -154 -91q-63 0 -106.5 44.5t-43.5 129.5q0 108 67 196.5t164 88.5q90 0 117 -66l18 48h135q-54 -144 -54 -252q0 -54 31 -54q26 0 45 63.5t19 143.5q0 102 -65 163.5t-175 61.5
q-98 0 -177 -54.5t-120 -140.5t-41 -182q0 -104 48 -164t128 -60q81 0 147 52l51 -45q-90 -97 -225 -97q-126 0 -211 94.5t-85 246.5q0 73 20 146t61 139t98 116.5t136 80.5t169 30q88 0 155.5 -29.5t106 -78.5t58 -105.5t19.5 -117.5zM436 117q61 0 93 126l-59 11
q13 33 13 55q0 30 -23 30q-27 0 -49 -45.5t-22 -102.5q0 -34 12.5 -54t34.5 -20z" />
    <glyph glyph-name="A" unicode="A" horiz-adv-x="566" 
d="M38 0h-159q123 166 237.5 398t154.5 394h269q-13 -153 -13 -323q0 -236 22 -469h-220q-5 68 -7 145h-201q-42 -79 -83 -145zM321 300q2 100 15 326h-5q-64 -185 -142 -345z" />
    <glyph glyph-name="B" unicode="B" horiz-adv-x="666" 
d="M12 41l30 78q13 -9 36 -19q55 240 97 547q-47 -27 -78 -59l-45 80q145 142 363 142q139 0 226 -64t87 -180q0 -90 -58 -173.5t-162 -126.5q61 -39 61 -102q0 -76 -78.5 -134t-225.5 -58q-83 0 -150.5 22t-102.5 47zM404 688q-48 -201 -93 -360q68 2 133 61t65 156
q0 116 -105 143zM285 239q-36 -116 -58 -174h25q73 0 109 24.5t36 64.5q0 34 -33 59t-79 26z" />
    <glyph glyph-name="C" unicode="C" horiz-adv-x="679" 
d="M618 254l73 -33q-45 -115 -133.5 -182t-204.5 -67q-138 0 -227.5 92.5t-89.5 249.5q0 69 18 139t54 134t85.5 114t118.5 79.5t146 29.5q119 0 183 -63t64 -152q0 -35 -11 -75.5t-26 -63.5l-191 51q26 54 26 95q0 73 -51 73q-39 0 -83.5 -49t-77 -133.5t-32.5 -170.5
q0 -107 46.5 -161t120.5 -54q108 0 192 147z" />
    <glyph glyph-name="D" unicode="D" horiz-adv-x="760" 
d="M12 41l30 78q13 -9 35 -18q61 261 98 549q-40 -24 -78 -62l-45 80q145 142 359 142q154 0 257 -95.5t103 -254.5q0 -86 -33 -171t-94.5 -156.5t-161.5 -116t-221 -44.5q-79 0 -145.5 19.5t-103.5 49.5zM402 680q-89 -381 -175 -615h21q119 0 216.5 111.5t97.5 264.5
q0 96 -43 157.5t-117 81.5z" />
    <glyph glyph-name="E" unicode="E" horiz-adv-x="587" 
d="M697 800l-62 -196h-284l-52 -181l273 32l-33 -144l-278 -10q-27 -85 -56 -162q80 22 164.5 37.5t129.5 19.5l45 5l-40 -219q-104 22 -220 22q-53 0 -149 -7q-35 -48 -84 -68q-3 2 -7 5t-15.5 14t-20.5 23.5t-18 34t-12 44.5l71 40q22 93 42.5 202.5t29.5 167.5t25 176.5
t17 125.5z" />
    <glyph glyph-name="F" unicode="F" horiz-adv-x="550" 
d="M672 800l-62 -196h-266q-15 -64 -46 -181l278 32l-33 -164l-285 -10q-53 -176 -96 -281h-150q79 302 135 762z" />
    <glyph glyph-name="G" unicode="G" horiz-adv-x="758" 
d="M377 311l27 112h390l-33 -144l-61 5q-52 -206 -84 -284h-115q19 75 26 127q-39 -74 -93.5 -114.5t-142.5 -40.5q-109 0 -182 83t-73 227q0 69 18 142t54.5 142t86.5 123.5t120 87.5t149 33q116 0 180 -63t64 -151q0 -36 -11 -76.5t-26 -63.5l-191 51q26 56 26 100
q0 31 -12.5 49.5t-36.5 18.5q-32 0 -68 -34.5t-66.5 -90.5t-50.5 -134.5t-20 -158.5q0 -74 28 -122t81 -48q55 0 99 63t57 149z" />
    <glyph glyph-name="H" unicode="H" horiz-adv-x="736" 
d="M576 0h-150q36 141 62 278h-231q-50 -169 -95 -278h-150q44 168 79 366t48 312l13 114h236q-39 -178 -93 -380l223 32q15 89 27 176t17 130l4 42h236q-13 -59 -35 -153.5t-81.5 -307t-109.5 -331.5z" />
    <glyph glyph-name="I" unicode="I" horiz-adv-x="322" 
d="M162 0h-150q44 168 79 366t48 312l13 114h236q-13 -59 -35 -153.5t-81.5 -307t-109.5 -331.5z" />
    <glyph glyph-name="J" unicode="J" horiz-adv-x="545" 
d="M485 254q-12 -32 -17.5 -45.5t-22.5 -49.5t-30.5 -55.5t-38 -48.5t-49 -44t-59 -27t-72.5 -12q-107 0 -158 61.5t-51 153.5q0 35 11 75.5t26 63.5l191 -51q-33 -67 -33 -131q0 -39 30 -39q27 0 52 44.5t41 117.5q23 105 43 236.5t28 210.5l9 78h236q-64 -351 -136 -538z
" />
    <glyph glyph-name="K" unicode="K" horiz-adv-x="698" 
d="M162 0h-150q44 168 79 366t48 312l13 114h236q-53 -241 -121 -479l3 -2q111 90 199 223.5t117 257.5h245q-124 -281 -391 -468q33 -69 93.5 -150t104.5 -128l44 -46l-246 -18q-8 9 -20 28t-41.5 88.5t-49.5 150.5q-89 -56 -95 -60q-37 -117 -68 -189z" />
    <glyph glyph-name="L" unicode="L" horiz-adv-x="546" 
d="M51 -71q-3 2 -7 5t-15.5 14t-20.5 23.5t-18 34t-12 44.5l71 40q38 158 67 333.5t39 272.5l10 96h236q-95 -383 -196 -653q80 22 164.5 37.5t129.5 19.5l45 5l-29 -219q-104 22 -231 22q-53 0 -149 -7q-35 -48 -84 -68z" />
    <glyph glyph-name="M" unicode="M" horiz-adv-x="921" 
d="M761 0h-150q54 206 93 450h-5q-150 -294 -253 -450h-154q0 242 -26 441h-4q-74 -280 -140 -441h-110q44 168 79 366t48 312l13 114h311q16 -308 17 -499h4q54 121 105.5 245.5t76.5 189.5l24 64h297q-13 -59 -35 -153.5t-81.5 -307t-109.5 -331.5z" />
    <glyph glyph-name="N" unicode="N" horiz-adv-x="716" 
d="M556 0h-154q-20 137 -136 441h-4q-74 -280 -140 -441h-110q44 168 79 366t48 312l13 114h247q76 -235 119 -479h4q20 116 36 236t22 181l6 62h196q-13 -59 -35 -153.5t-81.5 -307t-109.5 -331.5z" />
    <glyph glyph-name="O" unicode="O" horiz-adv-x="746" 
d="M471 810q104 0 165.5 -49t74.5 -127l35 10q13 -65 13 -139q0 -63 -14 -132.5t-46.5 -141.5t-79 -129t-118.5 -93.5t-158 -36.5q-133 0 -215 83.5t-82 239.5q0 89 28 178.5t79.5 165.5t134.5 123.5t183 47.5zM396 111q83 0 138.5 92t60.5 237l-85 31q27 49 27 94
q0 33 -17 50.5t-43 17.5q-68 0 -135.5 -101t-67.5 -238q0 -91 33 -137t89 -46z" />
    <glyph glyph-name="P" unicode="P" horiz-adv-x="666" 
d="M202 0h-150q36 140 61 267q-17 10 -31 24l49 75q27 153 44 281q-47 -27 -78 -59l-45 80q145 142 363 142q139 0 226 -64t87 -180q0 -61 -28 -120.5t-79 -108t-131.5 -78.5t-176.5 -30h-31q-44 -143 -80 -229zM404 688q-48 -201 -93 -360q68 2 133 61t65 156
q0 116 -105 143z" />
    <glyph glyph-name="Q" unicode="Q" horiz-adv-x="746" 
d="M471 810q104 0 165.5 -49t74.5 -127l35 10q13 -65 13 -139q0 -96 -33.5 -204t-98.5 -189q66 -73 120 -112l-206 -79q-23 30 -51 82q-67 -31 -147 -31q-133 0 -215 83.5t-82 239.5q0 89 28 178.5t79.5 165.5t134.5 123.5t183 47.5zM396 111q22 0 42 7q-41 106 -56 221h99
q19 -51 63 -118q47 90 51 219l-85 31q27 49 27 94q0 33 -17 50.5t-43 17.5q-68 0 -135.5 -101t-67.5 -238q0 -91 33 -137t89 -46z" />
    <glyph glyph-name="R" unicode="R" horiz-adv-x="666" 
d="M202 0h-150q36 140 61 267q-17 10 -31 24l49 75q27 153 44 281q-47 -27 -78 -59l-45 80q145 142 363 142q139 0 226 -64t87 -180q0 -93 -62 -178t-171 -127q36 -60 88 -125.5t85 -100.5l34 -35l-246 -18q-7 9 -18.5 26.5t-40 82t-48.5 139.5q-12 -1 -36 -1h-31
q-44 -143 -80 -229zM404 688q-48 -201 -93 -360q68 2 133 61t65 156q0 116 -105 143z" />
    <glyph glyph-name="S" unicode="S" 
d="M365 636q-26 0 -41 -19.5t-15 -48.5q0 -35 20 -68.5t48 -63t56 -62t48 -77.5t20 -96q0 -98 -63.5 -163.5t-170.5 -65.5q-97 0 -153 68.5t-56 171.5l110 13q8 -122 88 -122q29 0 43.5 18t14.5 45q0 29 -24.5 62t-59.5 67t-70.5 71.5t-60 89t-24.5 107.5q0 112 71 179.5
t206 67.5q128 0 198 -69t70 -165q0 -43 -13.5 -86.5t-31.5 -69.5l-159 49q19 46 19 78q0 40 -20 64.5t-50 24.5z" />
    <glyph glyph-name="T" unicode="T" horiz-adv-x="577" 
d="M707 800l-62 -196h-172q-90 -347 -197 -604h-150q82 321 127 604h-184l27 140z" />
    <glyph glyph-name="U" unicode="U" horiz-adv-x="709" 
d="M143 792h241q-45 -95 -75.5 -226t-30.5 -240q0 -98 28 -156.5t89 -58.5q83 0 125.5 123t42.5 332q0 130 -24 226h216q12 -52 12 -128q0 -70 -11 -145.5t-32.5 -154t-57 -148t-81 -124.5t-108.5 -87.5t-135 -32.5q-61 0 -108.5 20t-78.5 53.5t-50.5 82t-27.5 102t-8 116.5
q0 199 74 446z" />
    <glyph glyph-name="V" unicode="V" horiz-adv-x="608" 
d="M511 792h216q-54 -272 -177 -487t-248 -305h-159q-27 138 -37.5 318.5t-10.5 473.5h241q-36 -283 -36 -556v-74h4q54 47 95 130t63.5 176.5t34 174t14.5 149.5z" />
    <glyph glyph-name="W" unicode="W" horiz-adv-x="958" 
d="M467 752q93 21 235 21q-26 -225 -69 -357q2 -138 17 -254h5q54 47 95 130t63.5 176.5t33.5 174t14 149.5h216q-54 -272 -177 -487t-248 -305h-159q-22 85 -33 179q-82 -126 -158 -179h-159q-27 138 -37.5 318.5t-10.5 473.5h241q-36 -283 -36 -556v-74h6q82 69 143 223
q0 157 18 367z" />
    <glyph glyph-name="X" unicode="X" horiz-adv-x="653" 
d="M20 -45l-43 60q138 111 282 277q-36 109 -101.5 283t-78.5 217h256q37 -127 77 -296h4q119 170 168 296h216q-85 -184 -353 -457q39 -198 48 -335h-157q-17 89 -45 183h-4q-150 -139 -269 -228z" />
    <glyph glyph-name="Y" unicode="Y" horiz-adv-x="662" 
d="M329 792q54 -164 86 -351h4q102 164 157 351h228q-47 -102 -153.5 -247.5t-219.5 -266.5q-50 -155 -101 -278h-150q32 126 67 284q-53 241 -174 508h256z" />
    <glyph glyph-name="Z" unicode="Z" horiz-adv-x="648" 
d="M86 596l37 196h600l12 -104q-188 -265 -466 -530v-4q83 18 174.5 30t140.5 14l50 3l-29 -219q-104 22 -319 22q-97 0 -189 -12l-51 -41q-2 1 -6 2.5t-14 8.5t-18.5 16.5t-17 28.5t-11.5 42q54 33 106 55q253 271 399 543z" />
    <glyph glyph-name="bracketleft" unicode="[" horiz-adv-x="445" 
d="M51 -81q5 44 15 122t53.5 307t101.5 444h302l-22 -81h-109q-106 -282 -177 -711h140l-9 -81h-295z" />
    <glyph glyph-name="backslash" unicode="\" horiz-adv-x="396" 
d="M369 0l-62 -38l-202 810h146z" />
    <glyph glyph-name="bracketright" unicode="]" horiz-adv-x="445" 
d="M158 792h295q-4 -44 -14 -122t-55 -307t-107 -444h-286l22 81h132q89 295 121 711h-117z" />
    <glyph glyph-name="asciicircum" unicode="^" horiz-adv-x="515" 
d="M420 391q-73 68 -134 142l-147 -140l-73 90l243 228h8q70 -95 205 -226z" />
    <glyph glyph-name="underscore" unicode="_" horiz-adv-x="482" 
d="M-43 -184l20 123h423l-27 -123h-416z" />
    <glyph glyph-name="grave" unicode="`" horiz-adv-x="400" 
d="M385 501l-58 -18q-38 31 -79 93.5t-62 116.5l180 28q5 -109 19 -220z" />
    <glyph glyph-name="a" unicode="a" 
d="M602 243l54 -27q-53 -105 -88 -149q-67 -85 -137 -85q-42 0 -69.5 24.5t-37.5 66.5q-60 -91 -154 -91q-63 0 -106.5 44.5t-43.5 129.5q0 108 67 196.5t164 88.5q89 0 117 -66l18 48h135q-54 -144 -54 -252q0 -54 31 -54q41 0 104 126zM235 117q61 0 93 126l-59 11
q13 33 13 55q0 30 -23 30q-27 0 -49 -45.5t-22 -102.5q0 -34 12.5 -54t34.5 -20z" />
    <glyph glyph-name="b" unicode="b" horiz-adv-x="476" 
d="M216 -18q-97 0 -146.5 55.5t-49.5 153.5q0 85 35 230.5t71 248.5l35 102h198q-83 -185 -136 -357q39 26 93 26q76 0 118 -50t42 -133q0 -108 -71.5 -192t-188.5 -84zM212 258l-26 3q-5 -35 -5 -58q0 -40 14 -61t37 -21q33 0 55 41.5t22 100.5q0 76 -40 76q-43 0 -57 -81z
" />
    <glyph glyph-name="c" unicode="c" horiz-adv-x="393" 
d="M373 238l-104 16q13 33 13 55q0 30 -23 30q-27 0 -49 -42t-22 -98q0 -101 77 -101q53 0 98 45.5t72 99.5l54 -27q-121 -234 -290 -234q-77 0 -127.5 51.5t-50.5 139.5q0 63 26 122.5t83.5 102.5t133.5 43q65 0 100.5 -31.5t35.5 -80.5q0 -51 -27 -91z" />
    <glyph glyph-name="d" unicode="d" 
d="M602 243l54 -27q-53 -105 -88 -149q-67 -85 -137 -85q-42 0 -69.5 24.5t-37.5 66.5q-60 -91 -154 -91q-63 0 -106.5 44.5t-43.5 129.5q0 108 67 196.5t164 88.5q72 0 104 -44q17 83 40.5 177t38.5 146l15 52h198q-74 -169 -127 -345t-53 -256q0 -54 31 -54q41 0 104 126z
M235 117q60 0 92 121q0 1 0.5 2.5t0.5 2.5l-59 11q13 33 13 55q0 30 -23 30q-27 0 -49 -45.5t-22 -102.5q0 -34 12.5 -54t34.5 -20z" />
    <glyph glyph-name="e" unicode="e" horiz-adv-x="399" 
d="M394 339q0 -67 -56.5 -116.5t-143.5 -67.5q16 -57 76 -57q54 0 99 45.5t72 99.5l54 -27q-119 -234 -288 -234q-80 0 -133 50t-53 141q0 43 15 88t43.5 86.5t77.5 67.5t110 26q54 0 90.5 -26t36.5 -76zM265 345q-24 0 -48.5 -33t-27.5 -92q40 11 69.5 36.5t29.5 61.5
q0 27 -23 27z" />
    <glyph glyph-name="f" unicode="f" horiz-adv-x="386" 
d="M401 458l-33 -119h-111q58 -40 91 -105.5t33 -145.5q0 -119 -55.5 -188.5t-141.5 -69.5q-81 0 -120.5 62t-39.5 158q0 126 33 283q-16 3 -47 6l21 75l45 5q21 86 48.5 174.5t44.5 133.5l17 45h198q-75 -156 -133 -332zM265 84q0 106 -65 173q-16 -82 -16 -141
q0 -58 6.5 -87t26.5 -29q21 0 34.5 23t13.5 61z" />
    <glyph glyph-name="g" unicode="g" horiz-adv-x="517" 
d="M-17 -139l86 103q43 -35 91 -35q59 0 102 42.5t64 109.5q-52 -92 -155 -92q-70 0 -110.5 43.5t-40.5 131.5q0 100 67.5 188.5t163.5 88.5t120 -74l15 56h135q-35 -267 -55 -354q-46 -198 -143 -263q-58 -38 -141 -38q-70 0 -124.5 30.5t-74.5 62.5zM235 117q61 0 93 126
l-59 11q13 33 13 55q0 30 -23 30q-27 0 -49 -45.5t-22 -102.5q0 -34 12.5 -54t34.5 -20z" />
    <glyph glyph-name="h" unicode="h" horiz-adv-x="531" 
d="M169 772h198q-7 -8 -36.5 -82t-68.5 -185.5t-62 -197.5h4q81 134 187 134q46 0 75.5 -26t29.5 -77q0 -44 -28.5 -110.5t-28.5 -82.5q0 -28 26 -28q45 0 108 126l54 -27q-64 -133 -119 -183.5t-114 -50.5q-51 0 -83 29t-32 80q0 38 19.5 99.5t19.5 80.5q0 28 -21 28
q-39 0 -81.5 -87.5t-54.5 -211.5h-155q11 144 59 370.5t104 401.5z" />
    <glyph glyph-name="i" unicode="i" horiz-adv-x="285" 
d="M327 243l54 -27q-53 -105 -88 -149q-67 -85 -137 -85q-68 0 -97 46t-29 116q0 60 11 129.5t23 109.5l11 40h171q-54 -144 -54 -252q0 -54 31 -54q41 0 104 126zM214 730q43 0 72 -29t29 -76q0 -42 -30.5 -77.5t-80.5 -35.5q-44 0 -72.5 31t-28.5 73q0 46 32 80t79 34z
" />
    <glyph glyph-name="j" unicode="j" horiz-adv-x="246" 
d="M106 423h135q-25 -82 -50 -268t-36 -368h-206q24 202 71 383t86 253zM221 730q43 0 72 -29t29 -76q0 -42 -30.5 -77.5t-80.5 -35.5q-44 0 -72.5 31t-28.5 73q0 46 32 80t79 34z" />
    <glyph glyph-name="k" unicode="k" horiz-adv-x="511" 
d="M169 772h198q-7 -8 -37 -83t-69 -188.5t-61 -199.5q82 140 191 140q44 0 70.5 -24.5t26.5 -70.5q0 -50 -41 -93t-89 -62q9 -32 27.5 -52.5t37.5 -20.5q67 0 130 125l54 -27q-63 -131 -122.5 -182.5t-119.5 -51.5q-64 0 -105 53.5t-60 131.5q-27 -70 -39 -167h-155
q11 144 59 370.5t104 401.5zM310 299q-52 0 -100 -107q47 8 85.5 30t38.5 50q0 27 -24 27z" />
    <glyph glyph-name="l" unicode="l" horiz-adv-x="285" 
d="M327 243l54 -27q-53 -105 -88 -149q-67 -85 -137 -85q-68 0 -97 46t-29 116q0 94 36 251t72 267l36 110h198q-7 -17 -19.5 -45.5t-43.5 -109t-54.5 -152.5t-43 -156t-19.5 -138t31 -54q41 0 104 126z" />
    <glyph glyph-name="m" unicode="m" horiz-adv-x="815" 
d="M78 423h156q-8 -19 -29 -116h4q81 134 187 134q44 0 69 -27t25 -75q0 -15 -3 -32h4q81 134 184 134q46 0 75.5 -26t29.5 -77q0 -44 -28.5 -110.5t-28.5 -82.5q0 -28 26 -28q45 0 108 126l54 -27q-64 -133 -119 -183.5t-114 -50.5q-51 0 -83 29t-32 80q0 38 19.5 99.5
t19.5 80.5q0 28 -21 28q-78 0 -141 -299h-166q56 207 56 262q0 37 -28 37q-39 0 -81.5 -87.5t-54.5 -211.5h-155q8 109 25 215t30 157z" />
    <glyph glyph-name="n" unicode="n" horiz-adv-x="536" 
d="M78 423h156q-8 -19 -29 -116h4q81 134 187 134q46 0 75.5 -26t29.5 -77q0 -44 -28.5 -110.5t-28.5 -82.5q0 -28 26 -28q45 0 108 126l54 -27q-64 -133 -119 -183.5t-114 -50.5q-51 0 -83 29t-32 80q0 38 19.5 99.5t19.5 80.5q0 28 -21 28q-39 0 -81.5 -87.5t-54.5 -211.5
h-155q8 109 25 215t30 157z" />
    <glyph glyph-name="o" unicode="o" horiz-adv-x="467" 
d="M279 441q58 0 96 -27.5t48 -70.5l32 6q12 -41 12 -81q0 -113 -74.5 -199.5t-185.5 -86.5q-82 0 -134 50t-52 141q0 46 16.5 92.5t47 86t81.5 64.5t113 25zM251 99q39 0 61.5 43t24.5 98l-36 14q7 14 7 41q0 21 -11.5 32.5t-28.5 11.5q-30 0 -55 -42t-25 -98
q0 -50 17.5 -75t45.5 -25z" />
    <glyph glyph-name="p" unicode="p" horiz-adv-x="492" 
d="M78 423h145q-12 -39 -22 -101q61 119 166 119q51 0 88 -40.5t37 -124.5q0 -113 -66.5 -203.5t-164.5 -90.5q-66 0 -98 32q-11 -120 -17 -227h-185q8 89 50 328t67 308zM292 299q-25 0 -51 -27t-44 -77l17 -9q-6 -18 -6 -37q0 -45 34 -45q32 0 58 43t26 100q0 22 -10 37
t-24 15z" />
    <glyph glyph-name="q" unicode="q" horiz-adv-x="523" 
d="M386 423h135q-87 -282 -107 -636h-206q19 105 56 236q-39 -41 -101 -41q-60 0 -101.5 42.5t-41.5 127.5q0 108 67 198.5t164 90.5q93 0 118 -69q9 33 17 51zM235 117q61 0 93 126l-59 11q13 33 13 55q0 30 -23 30q-27 0 -49 -45.5t-22 -102.5q0 -34 12.5 -54t34.5 -20z
" />
    <glyph glyph-name="r" unicode="r" horiz-adv-x="409" 
d="M62 504l113 15q0 -34 -13 -96h208q-54 -144 -54 -252q0 -54 31 -54q41 0 104 126l54 -27l-6 -12q-16 -31 -26.5 -51t-35 -56t-47 -58t-55.5 -39.5t-67 -17.5q-63 0 -93.5 43.5t-30.5 110.5q0 91 34 203h-38q-21 -76 -48 -131l-56 23q39 89 39 187q0 51 -13 86z" />
    <glyph glyph-name="s" unicode="s" horiz-adv-x="362" 
d="M49 463l113 15q0 -35 -9 -80q86 -49 140 -116.5t54 -137.5q0 -67 -47 -114.5t-136 -47.5q-135 0 -201 111l72 83q36 -55 75 -55q34 0 34 40q0 35 -37 81q-10 -24 -15 -34l-56 23q25 59 25 142q0 51 -12 90z" />
    <glyph glyph-name="t" unicode="t" horiz-adv-x="307" 
d="M368 503l-44 -131h-101q-33 -120 -33 -192q0 -63 38 -63q30 0 63.5 38.5t57.5 87.5l54 -27q-119 -234 -243 -234q-70 0 -100 43t-30 128q0 79 31 219h-51l21 87l52 7l54 196h189q-33 -76 -67 -173z" />
    <glyph glyph-name="u" unicode="u" horiz-adv-x="576" 
d="M618 243l54 -27q-53 -105 -88 -149q-67 -85 -137 -85q-103 0 -125 107q-67 -107 -162 -107q-141 0 -141 156q0 60 14 131t28 113l14 41h171q-7 -15 -17 -40.5t-27 -90t-17 -112.5q0 -27 11.5 -42t28.5 -15q23 0 41 17t31.5 52.5t22 66.5t20 83.5t19.5 80.5h178
q-54 -144 -54 -252q0 -54 31 -54q41 0 104 126z" />
    <glyph glyph-name="v" unicode="v" horiz-adv-x="453" 
d="M334 436l159 24q-35 -146 -125 -279.5t-170 -180.5h-130q-31 130 -31 423h183q-20 -138 -20 -241q0 -66 1 -91h4q62 50 93.5 154t35.5 191z" />
    <glyph glyph-name="w" unicode="w" horiz-adv-x="720" 
d="M600 436l159 24q-12 -70 -37.5 -146.5t-65 -154t-98.5 -127.5t-125 -50q-102 0 -122 110q-76 -110 -155 -110q-68 0 -97 46t-29 116q0 60 11 129.5t23 109.5l11 40h171q-54 -144 -54 -252q0 -54 31 -54q36 0 87 93q4 50 14.5 103t19.5 81l8 29h171q-54 -144 -54 -252
q0 -54 31 -54q41 0 69 94t31 225z" />
    <glyph glyph-name="x" unicode="x" horiz-adv-x="457" 
d="M236 423q0 -57 23 -146q63 85 82 159l159 24q-25 -120 -203 -282q34 -60 72 -60q67 0 130 125l54 -27q-63 -131 -122.5 -182.5t-119.5 -51.5q-74 0 -136 92q-104 -87 -131 -114l-40 44q26 29 133 136q-14 28 -36 88l-9 -20l-56 23q25 61 25 138q-4 14 -11 54h186z" />
    <glyph glyph-name="y" unicode="y" horiz-adv-x="517" 
d="M-17 -139l86 103q43 -35 91 -35q64 0 109 49t63 124q-66 -111 -172 -111q-75 0 -108 37t-33 110q0 60 14 131t28 113l14 41h171q-7 -15 -17 -40.5t-27 -90t-17 -112.5q0 -27 11.5 -42t28.5 -15q23 0 41 17t31.5 52.5t22 66.5t20 83.5t19.5 80.5h162q-35 -267 -55 -354
q-46 -198 -143 -263q-58 -38 -141 -38q-70 0 -124.5 30.5t-74.5 62.5z" />
    <glyph glyph-name="z" unicode="z" horiz-adv-x="447" 
d="M60 -5l-40 44q29 32 108.5 109t121.5 131q-36 24 -96 24q-12 0 -25 -3q-18 -54 -37 -92l-56 23q4 10 7.5 21.5t6 27.5t4 26.5t3 31.5l2 28t1.5 31t1 26q42 18 93 18q96 0 167 -55l19 37h104q-31 -116 -181 -251q45 -29 95 -29q78 0 131 100l54 -27q-50 -124 -114.5 -179
t-126.5 -55q-92 0 -160 86q-43 -36 -82 -73z" />
    <glyph glyph-name="braceleft" unicode="{" horiz-adv-x="445" 
d="M346 -81h-143q-74 0 -104 31.5t-30 86.5q0 41 20 127t20 115q0 60 -54 60l16 84q34 0 53.5 20.5t27.5 53t14 71.5t19.5 78.5t38 72t75.5 53t126 20.5h98l-22 -81h-49q-36 0 -58.5 -18t-32.5 -46.5t-16.5 -63.5t-16 -69.5t-25 -63t-49.5 -46.5t-84 -18l-3 -14q98 0 98 -97
q0 -37 -17.5 -116t-17.5 -106q0 -53 45 -53h80z" />
    <glyph glyph-name="bar" unicode="|" horiz-adv-x="392" 
d="M102 -184h-66l226 976h146z" />
    <glyph glyph-name="braceright" unicode="}" horiz-adv-x="445" 
d="M158 792h114q91 0 127.5 -30.5t36.5 -84.5q0 -37 -20.5 -110t-20.5 -97q0 -47 50 -47l-13 -84q-35 0 -55 -23t-27.5 -60t-12.5 -82t-15.5 -90t-30.5 -82t-63.5 -60t-108.5 -23h-128l22 81h72q40 0 62 20.5t29.5 53.5t10 72.5t7.5 79t17.5 72.5t45 53.5t85.5 20.5l2 14
q-56 0 -78 26t-22 72q0 27 9 83.5t9 79.5q0 64 -56 64h-57z" />
    <glyph glyph-name="asciitilde" unicode="~" horiz-adv-x="534" 
d="M92 209l-53 27q38 68 72.5 97t85.5 29q22 0 64 -11t62 -11q56 0 97 64l95 -102q-55 -96 -128 -96q-38 0 -110.5 34t-103.5 34q-25 0 -42.5 -14.5t-38.5 -50.5z" />
    <glyph glyph-name="exclamdown" unicode="&#xa1;" horiz-adv-x="372" 
d="M168 280h135q-12 -37 -38 -207t-34 -305h-206q13 114 61 280.5t82 231.5zM263 512q39 0 65.5 -26.5t26.5 -69.5q0 -38 -27.5 -70.5t-73.5 -32.5q-40 0 -66 28.5t-26 66.5q0 42 29.5 73t71.5 31z" />
    <glyph glyph-name="cent" unicode="&#xa2;" horiz-adv-x="476" 
d="M355 238l56 -17q-14 -49 -49.5 -86t-85.5 -50q-8 -46 -12 -85h-124l10 91q-57 21 -94 73.5t-37 136.5q0 103 53.5 186.5t146.5 107.5q11 53 24 98h182q-24 -54 -44 -113q41 -22 65.5 -59t24.5 -83q0 -42 -20 -83l-139 29q7 17 7 33q0 42 -41 42q-38 0 -70.5 -48
t-32.5 -112q0 -59 22.5 -95.5t60.5 -36.5q63 0 97 71z" />
    <glyph glyph-name="sterling" unicode="&#xa3;" horiz-adv-x="591" 
d="M456 359l-38 -87h-131q3 -52 11 -113q64 15 128 25.5t96 13.5l33 3l-29 -219q-104 22 -231 22q-64 0 -127 -5.5t-94 -10.5l-31 -6l27 108q48 18 72 26q-29 87 -42 156h-59l16 87h32q-1 13 -1 39q0 65 14.5 119t46.5 99t89.5 70.5t136.5 25.5q99 0 158.5 -56.5
t59.5 -133.5q0 -31 -9.5 -67t-23.5 -56l-169 45q23 46 23 84q0 65 -45 65q-41 0 -61.5 -65t-22.5 -169h171z" />
    <glyph glyph-name="currency" unicode="&#xa4;" horiz-adv-x="646" 
d="M360 174q54 0 86.5 46.5t32.5 107.5q0 48 -23.5 77t-66.5 29q-54 0 -87.5 -43.5t-33.5 -103.5q0 -48 25 -80.5t67 -32.5zM376 557q71 0 121 -29l75 69l80 -96l-75 -67q16 -39 16 -84q0 -89 -47 -158q42 -44 54 -55l-79 -85l-65 62q-53 -25 -121 -25q-56 0 -106 22
l-70 -62l-71 88l54 53q-28 48 -28 115q0 69 36 132q-49 66 -53 71l116 95q13 -29 42 -72q52 26 121 26z" />
    <glyph glyph-name="yen" unicode="&#xa5;" horiz-adv-x="662" 
d="M527 207l-37 -87h-141q-24 -68 -45 -120h-139q12 44 30 120h-131l15 87h135l9 41q0 3 -1 4h-137l16 87h100q-50 181 -128 354h230q42 -131 70 -284q46 74 82 152t51 132h197q-67 -146 -239 -354h121l-38 -87h-153l-15 -45h148z" />
    <glyph glyph-name="brokenbar" unicode="&#xa6;" horiz-adv-x="392" 
d="M408 792l-128 -406h-112l94 406h146zM102 -184h-66l101 438h101z" />
    <glyph glyph-name="section" unicode="&#xa7;" horiz-adv-x="507" 
d="M36 71l83 15q5 -26 22 -45t37 -19q33 0 33 23q0 18 -15 38t-36.5 41t-42.5 44t-36 55t-15 66q0 45 23.5 78.5t66.5 48.5q-53 55 -53 119q0 73 51.5 124.5t151.5 51.5q102 0 157.5 -51t55.5 -119q0 -57 -21 -79l-140 29q7 16 7 31q0 16 -11 27.5t-25 11.5q-34 0 -34 -34
q0 -19 16.5 -36t40.5 -32t47.5 -33t40 -48.5t16.5 -69.5q0 -52 -31.5 -89t-101.5 -43q54 -64 54 -125q0 -56 -38 -94t-121 -38q-76 0 -128 44t-54 108zM229 351q-12 0 -20 -8t-8 -19q0 -23 26.5 -47.5t51.5 -24.5q12 0 19.5 8.5t7.5 19.5q0 23 -27 47t-50 24z" />
    <glyph glyph-name="dieresis" unicode="&#xa8;" horiz-adv-x="400" 
d="M180 688q35 0 58 -23.5t23 -61.5q0 -34 -24.5 -62.5t-64.5 -28.5q-36 0 -58.5 25t-22.5 59q0 37 25.5 64.5t63.5 27.5zM379 688q35 0 58 -23.5t23 -61.5q0 -34 -24.5 -62.5t-64.5 -28.5q-36 0 -58.5 25t-22.5 59q0 37 25.5 64.5t63.5 27.5z" />
    <glyph glyph-name="copyright" unicode="&#xa9;" horiz-adv-x="561" 
d="M371 788q104 0 163.5 -62t59.5 -153q0 -47 -18.5 -95.5t-52.5 -90t-89 -68t-121 -26.5q-92 0 -156.5 59t-64.5 157q0 109 76.5 194t202.5 85zM370 711q-90 0 -144.5 -61.5t-54.5 -140.5q0 -72 45.5 -114.5t111.5 -42.5q92 0 146 64.5t54 138.5q0 67 -42 111.5t-116 44.5z
M422 481l34 -17q-16 -34 -48.5 -56t-75.5 -22q-48 0 -86.5 31t-38.5 91q0 66 45 116t120 50q48 0 80.5 -28.5t32.5 -69.5q0 -21 -5 -36h-93q4 12 4 27q0 11 -7.5 18t-17.5 7q-24 0 -43.5 -25.5t-19.5 -60.5q0 -30 15 -47.5t39 -17.5q43 0 65 40z" />
    <glyph glyph-name="ordfeminine" unicode="&#xaa;" horiz-adv-x="518" 
d="M477 491l54 -19q-51 -116 -137 -116q-62 0 -81 66q-49 -66 -121 -66q-49 0 -83 34.5t-34 100.5q0 84 52 153t128 69q70 0 90 -51l14 37h105q-42 -112 -42 -196q0 -42 25 -42q15 0 30 30zM86 211l24 83l279 21l-17 -122zM242 461q45 0 70 86l-42 9q10 28 10 42
q0 24 -18 24q-21 0 -38.5 -30t-17.5 -73q0 -26 10 -42t26 -16z" />
    <glyph glyph-name="guillemotleft" unicode="&#xab;" horiz-adv-x="576" 
d="M325 414l37 -45q-4 -4 -23.5 -24t-26 -27.5l-19.5 -22.5t-20.5 -26.5t-13.5 -22.5q13 -33 39.5 -69.5t39.5 -48.5l-81 -82q-82 74 -111 123q-20 35 -20 63t72.5 90.5t126.5 91.5zM525 414l37 -45q-4 -4 -23.5 -24t-26 -27.5l-19.5 -22.5t-20.5 -26.5t-13.5 -22.5
q13 -33 39.5 -69.5t39.5 -48.5l-81 -82q-82 74 -111 123q-20 35 -20 63t72.5 90.5t126.5 91.5z" />
    <glyph glyph-name="logicalnot" unicode="&#xac;" horiz-adv-x="534" 
d="M79 353l20 122h433l-72 -310h-117l19 188h-283z" />
    <glyph glyph-name="registered" unicode="&#xae;" horiz-adv-x="561" 
d="M371 788q104 0 163.5 -62t59.5 -153q0 -47 -18.5 -95.5t-52.5 -90t-89 -68t-121 -26.5q-92 0 -156.5 59t-64.5 157q0 109 76.5 194t202.5 85zM370 711q-90 0 -144.5 -61.5t-54.5 -140.5q0 -72 45.5 -114.5t111.5 -42.5q92 0 146 64.5t54 138.5q0 67 -42 111.5t-116 44.5z
M289 389h-50q25 151 27 238l-5 16q46 37 110 37q50 0 82 -27.5t32 -73.5q0 -40 -32.5 -70t-82.5 -39q18 -15 37 -27t29 -17l11 -4q-13 -15 -30 -24t-27 -10l-10 -2q-32 21 -70 77q-10 -46 -21 -74zM355 630q-13 -60 -33 -128l11 -5q29 0 48 23.5t19 56.5q0 20 -12.5 34.5
t-32.5 18.5z" />
    <glyph glyph-name="macron" unicode="&#xaf;" horiz-adv-x="429" 
d="M45 534l20 121h323l-31 -121h-312z" />
    <glyph glyph-name="degree" unicode="&#xb0;" horiz-adv-x="467" 
d="M268 425q43 0 72.5 34.5t29.5 78.5q0 35 -19.5 56.5t-53.5 21.5q-44 0 -71.5 -34.5t-27.5 -78.5q0 -35 18 -56.5t52 -21.5zM289 711q81 0 122.5 -44t41.5 -109q0 -82 -54.5 -150t-153.5 -68q-74 0 -123 40.5t-49 114.5q0 83 59 149.5t157 66.5z" />
    <glyph glyph-name="plusminus" unicode="&#xb1;" horiz-adv-x="534" 
d="M80 339l20 123h136q7 41 15 78.5t13 54.5l4 17h156q-24 -72 -46 -150h145l-27 -123h-148q-8 -37 -15 -73t-10.5 -55.5t-4.5 -21.5h-117q5 65 16 150h-137zM34 34l20 123h413l-27 -123h-406z" />
    <glyph glyph-name="twosuperior" unicode="&#xb2;" horiz-adv-x="539" 
d="M497 406l-31 -142h-359l12 75q223 121 223 239q0 28 -16 44.5t-45 16.5q-44 0 -84 -35l-57 103q33 37 90 60t115 23q84 0 132.5 -42.5t48.5 -112.5q0 -78 -52 -143.5t-141 -114.5z" />
    <glyph glyph-name="threesuperior" unicode="&#xb3;" horiz-adv-x="540" 
d="M338 378q0 19 -14.5 35t-37.5 24q-11 -1 -34 -1q-21 0 -31 1q0 19 2.5 35.5t4.5 23.5l3 7q30 4 47 4q20 0 39 -3q40 27 40 67q0 31 -17 48t-48 17q-48 0 -90 -37l-53 107q33 37 90 60t115 23q85 0 133 -38.5t48 -105.5q0 -48 -32 -94.5t-89 -76.5q60 -36 60 -92
q0 -61 -47.5 -98.5t-129.5 -37.5q-51 0 -97 18.5t-67 50.5l43 55q15 -18 42.5 -30.5t49.5 -12.5q70 0 70 51z" />
    <glyph glyph-name="acute" unicode="&#xb4;" horiz-adv-x="400" 
d="M244 483l-58 18q36 119 53 220l180 -28q-25 -43 -81.5 -111.5t-93.5 -98.5z" />
    <glyph glyph-name="mu" unicode="&#xb5;" horiz-adv-x="596" 
d="M78 423h188q-7 -14 -17 -38.5t-27 -87t-17 -110.5q0 -31 11 -47.5t29 -16.5q23 0 41 17t31.5 52.5t22 66.5t20 83.5t19.5 80.5h178q-54 -144 -54 -252q0 -54 31 -54q41 0 104 126l54 -27q-53 -105 -88 -149q-67 -85 -137 -85q-85 0 -116 77q-45 -77 -116 -77
q-47 0 -74 32q-9 -107 -15 -227h-185q8 89 50 328t67 308z" />
    <glyph glyph-name="paragraph" unicode="&#xb6;" horiz-adv-x="734" 
d="M450 -63h-88q6 56 60 287t82 326l-29 8q-42 -115 -105 -315.5t-90 -305.5h-87q4 53 62 328q-61 7 -104.5 44.5t-60.5 77.5t-17 74q0 70 29 120t80 77.5t111 40t131 12.5t165.5 -14.5t149.5 -38.5l-62 -173q-10 5 -42 19q-39 -101 -98.5 -281.5t-86.5 -285.5z" />
    <glyph glyph-name="periodcentered" unicode="&#xb7;" horiz-adv-x="321" 
d="M179 458q39 0 65.5 -26.5t26.5 -69.5q0 -38 -27.5 -70.5t-73.5 -32.5q-40 0 -66 28.5t-26 66.5q0 42 29.5 73t71.5 31z" />
    <glyph glyph-name="cedilla" unicode="&#xb8;" horiz-adv-x="323" 
d="M115 -81l20 48q53 0 99.5 -27t46.5 -81q0 -42 -34 -66.5t-88 -24.5q-40 0 -77 16t-57 43l26 37q19 -19 49 -19q20 0 30.5 9.5t10.5 25.5q0 13 -7.5 24t-18.5 15z" />
    <glyph glyph-name="onesuperior" unicode="&#xb9;" horiz-adv-x="425" 
d="M142 538l-42 65l172 170h172q-43 -97 -82 -244t-53 -265h-129q15 143 49 321z" />
    <glyph glyph-name="ordmasculine" unicode="&#xba;" horiz-adv-x="430" 
d="M277 713q46 0 75.5 -21.5t37.5 -55.5l24 5q9 -30 9 -62q0 -88 -58 -155.5t-144 -67.5q-63 0 -103.5 39.5t-40.5 109.5q0 78 53.5 143t146.5 65zM54 211l24 83l274 18l-17 -119zM248 459q28 0 46 31t20 71l-21 9q5 7 5 30q0 31 -28 31q-23 0 -43 -34t-20 -78
q0 -27 11 -43.5t30 -16.5z" />
    <glyph glyph-name="guillemotright" unicode="&#xbb;" horiz-adv-x="541" 
d="M328 46l-37 45q4 4 23.5 24t26 27.5l19.5 22.5t20.5 26.5t13.5 22.5q-13 33 -39.5 69.5t-39.5 48.5l81 82q82 -74 111 -123q20 -36 20 -63q0 -28 -72.5 -90.5t-126.5 -91.5zM128 46l-37 45q4 4 23.5 24t26 27.5l19.5 22.5t20.5 26.5t13.5 22.5q-13 33 -39.5 69.5
t-39.5 48.5l81 82q82 -74 111 -123q20 -36 20 -63q0 -28 -72.5 -90.5t-126.5 -91.5z" />
    <glyph glyph-name="onequarter" unicode="&#xbc;" horiz-adv-x="1010" 
d="M843 -1h-128q8 72 10 87h-208l12 78q71 82 135.5 184t84.5 164h229q-50 -111 -96 -301l72 10l-23 -135h-75q-11 -66 -13 -87zM131 459l-42 65l172 170h172q-43 -97 -82 -244t-53 -265h-129q15 143 49 321zM769 350q-61 -100 -134 -172l105 14q19 111 29 158zM269 -38
l-54 38l461 693h129z" />
    <glyph glyph-name="onehalf" unicode="&#xbd;" horiz-adv-x="1041" 
d="M968 141l-31 -142h-359l12 75q122 66 187.5 123.5t65.5 115.5q0 61 -52 61q-44 0 -84 -35l-57 103q33 38 86 60.5t110 22.5q84 0 132.5 -42.5t48.5 -112.5q0 -80 -63.5 -146.5t-167.5 -113.5zM131 459l-42 65l172 170h172q-43 -97 -82 -244t-53 -265h-129q15 143 49 321z
M269 -38l-54 38l461 693h129z" />
    <glyph glyph-name="threequarters" unicode="&#xbe;" horiz-adv-x="1084" 
d="M917 -1h-128q8 72 10 87h-208l12 78q71 82 135.5 184t84.5 164h229q-50 -111 -96 -301l72 10l-23 -135h-75q-11 -66 -13 -87zM279 300q0 19 -14.5 35t-37.5 24q-11 -1 -34 -1q-21 0 -31 1q0 19 2.5 35.5t5.5 23.5l2 7q30 4 47 4q19 0 39 -3q40 27 40 67q0 31 -17 48
t-48 17q-48 0 -90 -37l-53 107q33 37 90 60t115 23q85 0 133 -38.5t48 -105.5q0 -48 -32 -94.5t-89 -76.5q60 -36 60 -92q0 -61 -47.5 -98.5t-129.5 -37.5q-51 0 -97 18.5t-67 50.5l43 55q15 -18 42.5 -30.5t49.5 -12.5q70 0 70 51zM843 350q-61 -100 -134 -172l105 14
q19 111 29 158zM343 -38l-54 38l461 693h129z" />
    <glyph glyph-name="questiondown" unicode="&#xbf;" horiz-adv-x="535" 
d="M400 280l18 -80q-88 -23 -140 -65.5t-52 -98.5q0 -36 23 -57t57 -21q29 0 63.5 15t57.5 35l62 -142q-40 -46 -106 -73t-135 -27q-100 0 -160.5 57t-60.5 147q0 107 98.5 191t274.5 119zM382 313q-39 0 -65.5 26.5t-26.5 66.5q0 41 27.5 73.5t72.5 32.5q41 0 67 -28.5
t26 -67.5q0 -42 -29.5 -72.5t-71.5 -30.5z" />
    <glyph glyph-name="Agrave" unicode="&#xc0;" horiz-adv-x="566" 
d="M38 0h-159q123 166 237.5 398t154.5 394h269q-13 -153 -13 -323q0 -236 22 -469h-220q-5 68 -7 145h-201q-42 -79 -83 -145zM321 300q2 100 15 326h-5q-64 -185 -142 -345zM539 901l-33 -63q-52 6 -140 40t-132 65l125 137q17 -23 43.5 -50.5t44.5 -45t51 -47t41 -36.5z
" />
    <glyph glyph-name="Aacute" unicode="&#xc1;" horiz-adv-x="566" 
d="M38 0h-159q123 166 237.5 398t154.5 394h269q-13 -153 -13 -323q0 -236 22 -469h-220q-5 68 -7 145h-201q-42 -79 -83 -145zM321 300q2 100 15 326h-5q-64 -185 -142 -345zM314 838l-39 58q144 94 221 172l109 -153q-48 -21 -143.5 -47t-147.5 -30z" />
    <glyph glyph-name="Acircumflex" unicode="&#xc2;" horiz-adv-x="566" 
d="M38 0h-159q123 166 237.5 398t154.5 394h269q-13 -153 -13 -323q0 -236 22 -469h-220q-5 68 -7 145h-201q-42 -79 -83 -145zM321 300q2 100 15 326h-5q-64 -185 -142 -345zM505 822l-98 70l-112 -74l-61 65l178 138h30l149 -121z" />
    <glyph glyph-name="Atilde" unicode="&#xc3;" horiz-adv-x="566" 
d="M38 0h-159q123 166 237.5 398t154.5 394h269q-13 -153 -13 -323q0 -236 22 -469h-220q-5 68 -7 145h-201q-42 -79 -83 -145zM321 300q2 100 15 326h-5q-64 -185 -142 -345zM237 865l-49 44q69 107 133 107q23 0 64 -22.5t58 -22.5q31 0 60 50l124 -79q-54 -108 -141 -108
q-37 0 -70.5 19.5t-60 39t-48.5 19.5q-29 0 -70 -47z" />
    <glyph glyph-name="Adieresis" unicode="&#xc4;" horiz-adv-x="566" 
d="M38 0h-159q123 166 237.5 398t154.5 394h269q-13 -153 -13 -323q0 -236 22 -469h-220q-5 68 -7 145h-201q-42 -79 -83 -145zM321 300q2 100 15 326h-5q-64 -185 -142 -345zM280 1049q41 0 68 -27.5t27 -72.5q0 -40 -29 -73.5t-76 -33.5q-42 0 -68.5 29.5t-26.5 69.5
q0 44 30.5 76t74.5 32zM552 1049q41 0 68 -27.5t27 -72.5q0 -40 -29 -73.5t-76 -33.5q-42 0 -68.5 29.5t-26.5 69.5q0 44 30.5 76t74.5 32z" />
    <glyph glyph-name="Aring" unicode="&#xc5;" horiz-adv-x="566" 
d="M418 1040q56 0 92 -38.5t36 -87.5q0 -80 -60 -122h54q-13 -153 -13 -323q0 -236 22 -469h-220q-5 68 -7 145h-201q-42 -79 -83 -145h-159q123 166 237.5 398t154.5 394h51q-51 38 -51 104q0 59 41 101.5t106 42.5zM321 300q2 100 15 326h-5q-64 -185 -142 -345zM418 941
q-21 0 -34.5 -15t-13.5 -35q0 -19 12 -31.5t31 -12.5q20 0 32.5 15t12.5 33t-10.5 32t-29.5 14z" />
    <glyph glyph-name="AE" unicode="&#xc6;" horiz-adv-x="926" 
d="M1036 800l-62 -196h-411q-17 -122 -24 -192l372 43l-33 -144l-349 -13q-7 -101 -7 -165q84 24 174 41t138 22l49 5l-40 -219q-85 18 -376 18h-138q-7 90 -7 184q0 32 2 92q-87 -11 -131 -18q-51 -93 -155 -258h-159q120 163 242.5 393t181.5 399h292l-5 -24zM329 378
q5 92 20 200h-4q-44 -109 -99 -218z" />
    <glyph glyph-name="Ccedilla" unicode="&#xc7;" horiz-adv-x="679" 
d="M618 254l73 -33q-45 -115 -133.5 -182t-204.5 -67q-138 0 -227.5 92.5t-89.5 249.5q0 69 18 139t54 134t85.5 114t118.5 79.5t146 29.5q119 0 183 -63t64 -152q0 -35 -11 -75.5t-26 -63.5l-191 51q26 54 26 95q0 73 -51 73q-39 0 -83.5 -49t-77 -133.5t-32.5 -170.5
q0 -107 46.5 -161t120.5 -54q108 0 192 147zM301 -81l20 48q53 0 99.5 -27t46.5 -81q0 -42 -34 -66.5t-88 -24.5q-40 0 -77 16t-57 43l26 37q19 -19 49 -19q20 0 30.5 9.5t10.5 25.5q0 13 -7.5 24t-18.5 15z" />
    <glyph glyph-name="Egrave" unicode="&#xc8;" horiz-adv-x="587" 
d="M697 800l-62 -196h-284l-52 -181l273 32l-33 -144l-278 -10q-27 -85 -56 -162q80 22 164.5 37.5t129.5 19.5l45 5l-40 -219q-104 22 -220 22q-53 0 -149 -7q-35 -48 -84 -68q-3 2 -7 5t-15.5 14t-20.5 23.5t-18 34t-12 44.5l71 40q22 93 42.5 202.5t29.5 167.5t25 176.5
t17 125.5zM575 901l-33 -63q-52 6 -140 40t-132 65l125 137q17 -23 43.5 -50.5t44.5 -45t51 -47t41 -36.5z" />
    <glyph glyph-name="Eacute" unicode="&#xc9;" horiz-adv-x="587" 
d="M697 800l-62 -196h-284l-52 -181l273 32l-33 -144l-278 -10q-27 -85 -56 -162q80 22 164.5 37.5t129.5 19.5l45 5l-40 -219q-104 22 -220 22q-53 0 -149 -7q-35 -48 -84 -68q-3 2 -7 5t-15.5 14t-20.5 23.5t-18 34t-12 44.5l71 40q22 93 42.5 202.5t29.5 167.5t25 176.5
t17 125.5zM325 838l-39 58q144 94 221 172l109 -153q-48 -21 -143.5 -47t-147.5 -30z" />
    <glyph glyph-name="Ecircumflex" unicode="&#xca;" horiz-adv-x="587" 
d="M697 800l-62 -196h-284l-52 -181l273 32l-33 -144l-278 -10q-27 -85 -56 -162q80 22 164.5 37.5t129.5 19.5l45 5l-40 -219q-104 22 -220 22q-53 0 -149 -7q-35 -48 -84 -68q-3 2 -7 5t-15.5 14t-20.5 23.5t-18 34t-12 44.5l71 40q22 93 42.5 202.5t29.5 167.5t25 176.5
t17 125.5zM532 822l-98 70l-112 -74l-61 65l178 138h30l149 -121z" />
    <glyph glyph-name="Edieresis" unicode="&#xcb;" horiz-adv-x="587" 
d="M697 800l-62 -196h-284l-52 -181l273 32l-33 -144l-278 -10q-27 -85 -56 -162q80 22 164.5 37.5t129.5 19.5l45 5l-40 -219q-104 22 -220 22q-53 0 -149 -7q-35 -48 -84 -68q-3 2 -7 5t-15.5 14t-20.5 23.5t-18 34t-12 44.5l71 40q22 93 42.5 202.5t29.5 167.5t25 176.5
t17 125.5zM311 1049q41 0 68 -27.5t27 -72.5q0 -40 -29 -73.5t-76 -33.5q-42 0 -68.5 29.5t-26.5 69.5q0 44 30.5 76t74.5 32zM583 1049q41 0 68 -27.5t27 -72.5q0 -40 -29 -73.5t-76 -33.5q-42 0 -68.5 29.5t-26.5 69.5q0 44 30.5 76t74.5 32z" />
    <glyph glyph-name="Igrave" unicode="&#xcc;" horiz-adv-x="322" 
d="M162 0h-150q44 168 79 366t48 312l13 114h236q-13 -59 -35 -153.5t-81.5 -307t-109.5 -331.5zM432 901l-33 -63q-52 6 -140 40t-132 65l125 137q17 -23 43.5 -50.5t44.5 -45t51 -47t41 -36.5z" />
    <glyph glyph-name="Iacute" unicode="&#xcd;" horiz-adv-x="322" 
d="M162 0h-150q44 168 79 366t48 312l13 114h236q-13 -59 -35 -153.5t-81.5 -307t-109.5 -331.5zM188 838l-39 58q144 94 221 172l109 -153q-48 -21 -143.5 -47t-147.5 -30z" />
    <glyph glyph-name="Icircumflex" unicode="&#xce;" horiz-adv-x="322" 
d="M162 0h-150q44 168 79 366t48 312l13 114h236q-13 -59 -35 -153.5t-81.5 -307t-109.5 -331.5zM376 822l-98 70l-112 -74l-61 65l178 138h30l149 -121z" />
    <glyph glyph-name="Idieresis" unicode="&#xcf;" horiz-adv-x="322" 
d="M188 1049q41 0 68 -27.5t27 -72.5q0 -40 -29 -73.5t-76 -33.5q-42 0 -68.5 29.5t-26.5 69.5q0 44 30.5 76t74.5 32zM430 1049q41 0 68 -27.5t27 -72.5q0 -40 -29 -73.5t-76 -33.5q-42 0 -68.5 29.5t-26.5 69.5q0 44 30.5 76t74.5 32zM162 0h-150q44 168 79 366t48 312
l13 114h236q-13 -59 -35 -153.5t-81.5 -307t-109.5 -331.5z" />
    <glyph glyph-name="Eth" unicode="&#xd0;" horiz-adv-x="760" 
d="M24 339l12 84h105q19 109 34 227q-40 -24 -78 -62l-45 80q145 142 359 142q154 0 257 -95.5t103 -254.5q0 -86 -33 -171t-94.5 -156.5t-161.5 -116t-221 -44.5q-79 0 -145.5 19.5t-103.5 49.5l30 78q13 -9 35 -18q24 106 48 232zM402 680q-38 -158 -65 -257h121l-35 -106
l-114 6q-46 -158 -82 -258h21q119 0 216.5 111.5t97.5 264.5q0 96 -43 157.5t-117 81.5z" />
    <glyph glyph-name="Ntilde" unicode="&#xd1;" horiz-adv-x="716" 
d="M322 865l-49 44q69 107 133 107q23 0 64 -22.5t58 -22.5q31 0 60 50l124 -79q-54 -108 -141 -108q-37 0 -70.5 19.5t-60 39t-48.5 19.5q-29 0 -70 -47zM556 0h-154q-20 137 -136 441h-4q-74 -280 -140 -441h-110q44 168 79 366t48 312l13 114h247q76 -235 119 -479h4
q20 116 36 236t22 181l6 62h196q-13 -59 -35 -153.5t-81.5 -307t-109.5 -331.5z" />
    <glyph glyph-name="Ograve" unicode="&#xd2;" horiz-adv-x="746" 
d="M471 810q104 0 165.5 -49t74.5 -127l35 10q13 -65 13 -139q0 -63 -14 -132.5t-46.5 -141.5t-79 -129t-118.5 -93.5t-158 -36.5q-133 0 -215 83.5t-82 239.5q0 89 28 178.5t79.5 165.5t134.5 123.5t183 47.5zM396 111q83 0 138.5 92t60.5 237l-85 31q27 49 27 94
q0 33 -17 50.5t-43 17.5q-68 0 -135.5 -101t-67.5 -238q0 -91 33 -137t89 -46zM586 901l-33 -63q-52 6 -140 40t-132 65l125 137q17 -23 43.5 -50.5t44.5 -45t51 -47t41 -36.5z" />
    <glyph glyph-name="Oacute" unicode="&#xd3;" horiz-adv-x="746" 
d="M471 810q104 0 165.5 -49t74.5 -127l35 10q13 -65 13 -139q0 -63 -14 -132.5t-46.5 -141.5t-79 -129t-118.5 -93.5t-158 -36.5q-133 0 -215 83.5t-82 239.5q0 89 28 178.5t79.5 165.5t134.5 123.5t183 47.5zM396 111q83 0 138.5 92t60.5 237l-85 31q27 49 27 94
q0 33 -17 50.5t-43 17.5q-68 0 -135.5 -101t-67.5 -238q0 -91 33 -137t89 -46zM385 838l-39 58q144 94 221 172l109 -153q-48 -21 -143.5 -47t-147.5 -30z" />
    <glyph glyph-name="Ocircumflex" unicode="&#xd4;" horiz-adv-x="746" 
d="M471 810q104 0 165.5 -49t74.5 -127l35 10q13 -65 13 -139q0 -63 -14 -132.5t-46.5 -141.5t-79 -129t-118.5 -93.5t-158 -36.5q-133 0 -215 83.5t-82 239.5q0 89 28 178.5t79.5 165.5t134.5 123.5t183 47.5zM396 111q83 0 138.5 92t60.5 237l-85 31q27 49 27 94
q0 33 -17 50.5t-43 17.5q-68 0 -135.5 -101t-67.5 -238q0 -91 33 -137t89 -46zM579 822l-98 70l-112 -74l-61 65l178 138h30l149 -121z" />
    <glyph glyph-name="Otilde" unicode="&#xd5;" horiz-adv-x="746" 
d="M471 810q104 0 165.5 -49t74.5 -127l35 10q13 -65 13 -139q0 -63 -14 -132.5t-46.5 -141.5t-79 -129t-118.5 -93.5t-158 -36.5q-133 0 -215 83.5t-82 239.5q0 89 28 178.5t79.5 165.5t134.5 123.5t183 47.5zM396 111q83 0 138.5 92t60.5 237l-85 31q27 49 27 94
q0 33 -17 50.5t-43 17.5q-68 0 -135.5 -101t-67.5 -238q0 -91 33 -137t89 -46zM330 865l-49 44q69 107 133 107q23 0 64 -22.5t58 -22.5q31 0 60 50l124 -79q-54 -108 -141 -108q-37 0 -70.5 19.5t-60 39t-48.5 19.5q-29 0 -70 -47z" />
    <glyph glyph-name="Odieresis" unicode="&#xd6;" horiz-adv-x="746" 
d="M471 810q104 0 165.5 -49t74.5 -127l35 10q13 -65 13 -139q0 -63 -14 -132.5t-46.5 -141.5t-79 -129t-118.5 -93.5t-158 -36.5q-133 0 -215 83.5t-82 239.5q0 89 28 178.5t79.5 165.5t134.5 123.5t183 47.5zM396 111q83 0 138.5 92t60.5 237l-85 31q27 49 27 94
q0 33 -17 50.5t-43 17.5q-68 0 -135.5 -101t-67.5 -238q0 -91 33 -137t89 -46zM361 1049q41 0 68 -27.5t27 -72.5q0 -40 -29 -73.5t-76 -33.5q-42 0 -68.5 29.5t-26.5 69.5q0 44 30.5 76t74.5 32zM633 1049q41 0 68 -27.5t27 -72.5q0 -40 -29 -73.5t-76 -33.5
q-42 0 -68.5 29.5t-26.5 69.5q0 44 30.5 76t74.5 32z" />
    <glyph glyph-name="multiply" unicode="&#xd7;" horiz-adv-x="515" 
d="M143 131l-73 90l116 108q-59 69 -97 125l118 96q23 -49 78 -127l136 127l82 -98l-143 -128q57 -67 103 -112l-80 -85q-54 50 -117 114z" />
    <glyph glyph-name="Oslash" unicode="&#xd8;" horiz-adv-x="746" 
d="M127 -98l-62 38l73 106q-92 87 -92 249q0 89 28 178.5t79.5 165.5t134.5 123.5t183 47.5t163 -47l67 97l143 -50l-140 -178l42 12q13 -65 13 -139q0 -63 -14 -132.5t-46.5 -141.5t-79 -129t-118.5 -93.5t-158 -36.5q-74 0 -138 28zM596 468q0 18 -1 27l-278 -352
q31 -32 79 -32q87 0 143.5 100.5t56.5 256.5zM274 294q0 -26 3 -47l249 360q-17 26 -49 26q-68 0 -135.5 -101t-67.5 -238z" />
    <glyph glyph-name="Ugrave" unicode="&#xd9;" horiz-adv-x="709" 
d="M143 792h241q-45 -95 -75.5 -226t-30.5 -240q0 -98 28 -156.5t89 -58.5q83 0 125.5 123t42.5 332q0 130 -24 226h216q12 -52 12 -128q0 -70 -11 -145.5t-32.5 -154t-57 -148t-81 -124.5t-108.5 -87.5t-135 -32.5q-61 0 -108.5 20t-78.5 53.5t-50.5 82t-27.5 102t-8 116.5
q0 199 74 446zM600 901l-33 -63q-52 6 -140 40t-132 65l125 137q17 -23 43.5 -50.5t44.5 -45t51 -47t41 -36.5z" />
    <glyph glyph-name="Uacute" unicode="&#xda;" horiz-adv-x="709" 
d="M143 792h241q-45 -95 -75.5 -226t-30.5 -240q0 -98 28 -156.5t89 -58.5q83 0 125.5 123t42.5 332q0 130 -24 226h216q12 -52 12 -128q0 -70 -11 -145.5t-32.5 -154t-57 -148t-81 -124.5t-108.5 -87.5t-135 -32.5q-61 0 -108.5 20t-78.5 53.5t-50.5 82t-27.5 102t-8 116.5
q0 199 74 446zM356 838l-39 58q144 94 221 172l109 -153q-48 -21 -143.5 -47t-147.5 -30z" />
    <glyph glyph-name="Ucircumflex" unicode="&#xdb;" horiz-adv-x="709" 
d="M143 792h241q-45 -95 -75.5 -226t-30.5 -240q0 -98 28 -156.5t89 -58.5q83 0 125.5 123t42.5 332q0 130 -24 226h216q12 -52 12 -128q0 -70 -11 -145.5t-32.5 -154t-57 -148t-81 -124.5t-108.5 -87.5t-135 -32.5q-61 0 -108.5 20t-78.5 53.5t-50.5 82t-27.5 102t-8 116.5
q0 199 74 446zM559 822l-98 70l-112 -74l-61 65l178 138h30l149 -121z" />
    <glyph glyph-name="Udieresis" unicode="&#xdc;" horiz-adv-x="709" 
d="M143 792h241q-45 -95 -75.5 -226t-30.5 -240q0 -98 28 -156.5t89 -58.5q83 0 125.5 123t42.5 332q0 130 -24 226h216q12 -52 12 -128q0 -70 -11 -145.5t-32.5 -154t-57 -148t-81 -124.5t-108.5 -87.5t-135 -32.5q-61 0 -108.5 20t-78.5 53.5t-50.5 82t-27.5 102t-8 116.5
q0 199 74 446zM347 1049q41 0 68 -27.5t27 -72.5q0 -40 -29 -73.5t-76 -33.5q-42 0 -68.5 29.5t-26.5 69.5q0 44 30.5 76t74.5 32zM619 1049q41 0 68 -27.5t27 -72.5q0 -40 -29 -73.5t-76 -33.5q-42 0 -68.5 29.5t-26.5 69.5q0 44 30.5 76t74.5 32z" />
    <glyph glyph-name="Yacute" unicode="&#xdd;" horiz-adv-x="662" 
d="M329 792q54 -164 86 -351h4q102 164 157 351h228q-47 -102 -153.5 -247.5t-219.5 -266.5q-50 -155 -101 -278h-150q32 126 67 284q-53 241 -174 508h256zM369 838l-39 58q144 94 221 172l109 -153q-48 -21 -143.5 -47t-147.5 -30z" />
    <glyph glyph-name="Thorn" unicode="&#xde;" horiz-adv-x="693" 
d="M189 0h-150q25 99 37 157q-12 9 -23 20l43 73q24 124 45 257q-34 -22 -57 -46l-46 81q57 55 121 88l20 162h236l-24 -105h16q142 0 230.5 -65t88.5 -183q0 -62 -30 -121t-84 -106.5t-137 -76.5t-181 -29q-34 0 -64 3q-29 -80 -41 -109zM503 417q0 63 -37 103.5t-104 48.5
q-52 -207 -100 -362q9 -1 27 -1q83 0 148.5 55t65.5 156z" />
    <glyph glyph-name="germandbls" unicode="&#xdf;" horiz-adv-x="589" 
d="M544 608q0 -116 -135 -228q75 -48 120 -110t45 -126q0 -67 -47 -114.5t-136 -47.5q-135 0 -201 111l72 83q36 -55 75 -55q34 0 34 40q0 55 -80 137q-12 -8 -18 -11l-33 51q57 39 110.5 100.5t53.5 116.5q0 21 -12.5 35t-30.5 14q-61 0 -110 -127q-10 -25 -19.5 -56.5
t-17 -58t-16 -67t-13 -62t-12.5 -67t-10.5 -59t-10 -59.5t-7.5 -48h-139q16 197 86 490q10 40 19.5 70.5t32 77t50 77t73 53t101.5 22.5q80 0 128 -54t48 -128z" />
    <glyph glyph-name="agrave" unicode="&#xe0;" 
d="M602 243l54 -27q-53 -105 -88 -149q-67 -85 -137 -85q-42 0 -69.5 24.5t-37.5 66.5q-60 -91 -154 -91q-63 0 -106.5 44.5t-43.5 129.5q0 108 67 196.5t164 88.5q89 0 117 -66l18 48h135q-54 -144 -54 -252q0 -54 31 -54q41 0 104 126zM235 117q61 0 93 126l-59 11
q13 33 13 55q0 30 -23 30q-27 0 -49 -45.5t-22 -102.5q0 -34 12.5 -54t34.5 -20zM380 501l-58 -18q-38 31 -79 93.5t-62 116.5l180 28q5 -109 19 -220z" />
    <glyph glyph-name="aacute" unicode="&#xe1;" 
d="M602 243l54 -27q-53 -105 -88 -149q-67 -85 -137 -85q-42 0 -69.5 24.5t-37.5 66.5q-60 -91 -154 -91q-63 0 -106.5 44.5t-43.5 129.5q0 108 67 196.5t164 88.5q89 0 117 -66l18 48h135q-54 -144 -54 -252q0 -54 31 -54q41 0 104 126zM235 117q61 0 93 126l-59 11
q13 33 13 55q0 30 -23 30q-27 0 -49 -45.5t-22 -102.5q0 -34 12.5 -54t34.5 -20zM318 483l-58 18q36 119 53 220l180 -28q-25 -43 -81.5 -111.5t-93.5 -98.5z" />
    <glyph glyph-name="acircumflex" unicode="&#xe2;" 
d="M602 243l54 -27q-53 -105 -88 -149q-67 -85 -137 -85q-42 0 -69.5 24.5t-37.5 66.5q-60 -91 -154 -91q-63 0 -106.5 44.5t-43.5 129.5q0 108 67 196.5t164 88.5q89 0 117 -66l18 48h135q-54 -144 -54 -252q0 -54 31 -54q41 0 104 126zM235 117q61 0 93 126l-59 11
q13 33 13 55q0 30 -23 30q-27 0 -49 -45.5t-22 -102.5q0 -34 12.5 -54t34.5 -20zM405 492l-73 76l-84 -75l-67 29l161 189h26l119 -181z" />
    <glyph glyph-name="atilde" unicode="&#xe3;" 
d="M602 243l54 -27q-53 -105 -88 -149q-67 -85 -137 -85q-42 0 -69.5 24.5t-37.5 66.5q-60 -91 -154 -91q-63 0 -106.5 44.5t-43.5 129.5q0 108 67 196.5t164 88.5q89 0 117 -66l18 48h135q-54 -144 -54 -252q0 -54 31 -54q41 0 104 126zM235 117q61 0 93 126l-59 11
q13 33 13 55q0 30 -23 30q-27 0 -49 -45.5t-22 -102.5q0 -34 12.5 -54t34.5 -20zM196 508l-48 36q54 109 116 109q18 0 49.5 -12.5t45.5 -12.5q33 0 52 46l124 -49q-26 -70 -63.5 -96.5t-70.5 -26.5q-31 0 -76 28t-64 28q-29 0 -65 -50z" />
    <glyph glyph-name="adieresis" unicode="&#xe4;" 
d="M602 243l54 -27q-53 -105 -88 -149q-67 -85 -137 -85q-42 0 -69.5 24.5t-37.5 66.5q-60 -91 -154 -91q-63 0 -106.5 44.5t-43.5 129.5q0 108 67 196.5t164 88.5q89 0 117 -66l18 48h135q-54 -144 -54 -252q0 -54 31 -54q41 0 104 126zM235 117q61 0 93 126l-59 11
q13 33 13 55q0 30 -23 30q-27 0 -49 -45.5t-22 -102.5q0 -34 12.5 -54t34.5 -20zM248 688q35 0 58 -23.5t23 -61.5q0 -34 -24.5 -62.5t-64.5 -28.5q-36 0 -58.5 25t-22.5 59q0 37 25.5 64.5t63.5 27.5zM447 688q35 0 58 -23.5t23 -61.5q0 -34 -24.5 -62.5t-64.5 -28.5
q-36 0 -58.5 25t-22.5 59q0 37 25.5 64.5t63.5 27.5z" />
    <glyph glyph-name="aring" unicode="&#xe5;" 
d="M602 243l54 -27q-53 -105 -88 -149q-67 -85 -137 -85q-42 0 -69.5 24.5t-37.5 66.5q-60 -91 -154 -91q-63 0 -106.5 44.5t-43.5 129.5q0 108 67 196.5t164 88.5q89 0 117 -66l18 48h135q-54 -144 -54 -252q0 -54 31 -54q41 0 104 126zM235 117q61 0 93 126l-59 11
q13 33 13 55q0 30 -23 30q-27 0 -49 -45.5t-22 -102.5q0 -34 12.5 -54t34.5 -20zM353 724q50 0 81.5 -34t31.5 -77q0 -52 -34 -91.5t-93 -39.5q-49 0 -82.5 33t-33.5 82q0 52 36 89.5t94 37.5zM354 641q-21 0 -34.5 -15t-13.5 -35q0 -19 12 -31.5t31 -12.5q20 0 32.5 15
t12.5 33t-10.5 32t-29.5 14z" />
    <glyph glyph-name="ae" unicode="&#xe6;" horiz-adv-x="696" 
d="M251 441q58 0 89 -28t35 -68q70 96 189 96q54 0 90.5 -26t36.5 -76q0 -67 -56.5 -116.5t-143.5 -67.5q16 -57 76 -57q54 0 99 45.5t72 99.5l54 -27q-119 -234 -288 -234q-58 0 -104 27.5t-67 78.5q-61 -106 -163 -106q-63 0 -106.5 44.5t-43.5 129.5q0 108 67 196.5
t164 88.5zM235 117q61 0 93 126l-59 11q13 33 13 55q0 30 -23 30q-27 0 -49 -45.5t-22 -102.5q0 -34 12.5 -54t34.5 -20zM562 345q-24 0 -48.5 -33t-27.5 -92q40 11 69.5 36.5t29.5 61.5q0 27 -23 27z" />
    <glyph glyph-name="ccedilla" unicode="&#xe7;" horiz-adv-x="393" 
d="M373 238l-104 16q13 33 13 55q0 30 -23 30q-27 0 -49 -42t-22 -98q0 -101 77 -101q53 0 98 45.5t72 99.5l54 -27q-121 -234 -290 -234q-77 0 -127.5 51.5t-50.5 139.5q0 63 26 122.5t83.5 102.5t133.5 43q65 0 100.5 -31.5t35.5 -80.5q0 -51 -27 -91zM125 -81l20 48
q53 0 99.5 -27t46.5 -81q0 -42 -34 -66.5t-88 -24.5q-40 0 -77 16t-57 43l26 37q19 -19 49 -19q20 0 30.5 9.5t10.5 25.5q0 13 -7.5 24t-18.5 15z" />
    <glyph glyph-name="egrave" unicode="&#xe8;" horiz-adv-x="399" 
d="M394 339q0 -67 -56.5 -116.5t-143.5 -67.5q16 -57 76 -57q54 0 99 45.5t72 99.5l54 -27q-119 -234 -288 -234q-80 0 -133 50t-53 141q0 43 15 88t43.5 86.5t77.5 67.5t110 26q54 0 90.5 -26t36.5 -76zM265 345q-24 0 -48.5 -33t-27.5 -92q40 11 69.5 36.5t29.5 61.5
q0 27 -23 27zM319 501l-58 -18q-38 31 -79 93.5t-62 116.5l180 28q5 -109 19 -220z" />
    <glyph glyph-name="eacute" unicode="&#xe9;" horiz-adv-x="399" 
d="M394 339q0 -67 -56.5 -116.5t-143.5 -67.5q16 -57 76 -57q54 0 99 45.5t72 99.5l54 -27q-119 -234 -288 -234q-80 0 -133 50t-53 141q0 43 15 88t43.5 86.5t77.5 67.5t110 26q54 0 90.5 -26t36.5 -76zM265 345q-24 0 -48.5 -33t-27.5 -92q40 11 69.5 36.5t29.5 61.5
q0 27 -23 27zM269 483l-58 18q36 119 53 220l180 -28q-25 -43 -81.5 -111.5t-93.5 -98.5z" />
    <glyph glyph-name="ecircumflex" unicode="&#xea;" horiz-adv-x="399" 
d="M394 339q0 -67 -56.5 -116.5t-143.5 -67.5q16 -57 76 -57q54 0 99 45.5t72 99.5l54 -27q-119 -234 -288 -234q-80 0 -133 50t-53 141q0 43 15 88t43.5 86.5t77.5 67.5t110 26q54 0 90.5 -26t36.5 -76zM265 345q-24 0 -48.5 -33t-27.5 -92q40 11 69.5 36.5t29.5 61.5
q0 27 -23 27zM355 492l-73 76l-84 -75l-67 29l161 189h26l119 -181z" />
    <glyph glyph-name="edieresis" unicode="&#xeb;" horiz-adv-x="399" 
d="M394 339q0 -67 -56.5 -116.5t-143.5 -67.5q16 -57 76 -57q54 0 99 45.5t72 99.5l54 -27q-119 -234 -288 -234q-80 0 -133 50t-53 141q0 43 15 88t43.5 86.5t77.5 67.5t110 26q54 0 90.5 -26t36.5 -76zM265 345q-24 0 -48.5 -33t-27.5 -92q40 11 69.5 36.5t29.5 61.5
q0 27 -23 27zM194 688q35 0 58 -23.5t23 -61.5q0 -34 -24.5 -62.5t-64.5 -28.5q-36 0 -58.5 25t-22.5 59q0 37 25.5 64.5t63.5 27.5zM393 688q35 0 58 -23.5t23 -61.5q0 -34 -24.5 -62.5t-64.5 -28.5q-36 0 -58.5 25t-22.5 59q0 37 25.5 64.5t63.5 27.5z" />
    <glyph glyph-name="igrave" unicode="&#xec;" horiz-adv-x="285" 
d="M327 243l54 -27q-53 -105 -88 -149q-67 -85 -137 -85q-68 0 -97 46t-29 116q0 60 11 129.5t23 109.5l11 40h171q-54 -144 -54 -252q0 -54 31 -54q41 0 104 126zM262 501l-58 -18q-38 31 -79 93.5t-62 116.5l180 28q5 -109 19 -220z" />
    <glyph glyph-name="iacute" unicode="&#xed;" horiz-adv-x="285" 
d="M327 243l54 -27q-53 -105 -88 -149q-67 -85 -137 -85q-68 0 -97 46t-29 116q0 60 11 129.5t23 109.5l11 40h171q-54 -144 -54 -252q0 -54 31 -54q41 0 104 126zM186 483l-58 18q36 119 53 220l180 -28q-25 -43 -81.5 -111.5t-93.5 -98.5z" />
    <glyph glyph-name="icircumflex" unicode="&#xee;" horiz-adv-x="285" 
d="M327 243l54 -27q-53 -105 -88 -149q-67 -85 -137 -85q-68 0 -97 46t-29 116q0 60 11 129.5t23 109.5l11 40h171q-54 -144 -54 -252q0 -54 31 -54q41 0 104 126zM260 492l-73 76l-84 -75l-67 29l161 189h26l119 -181z" />
    <glyph glyph-name="idieresis" unicode="&#xef;" horiz-adv-x="285" 
d="M126 685q33 0 55.5 -22.5t22.5 -59.5q0 -33 -23.5 -60.5t-62.5 -27.5q-34 0 -56 24t-22 57q0 36 25 62.5t61 26.5zM306 685q33 0 55.5 -22.5t22.5 -59.5q0 -33 -23.5 -60.5t-62.5 -27.5q-34 0 -56 24t-22 57q0 36 25 62.5t61 26.5zM327 243l54 -27q-53 -105 -88 -149
q-67 -85 -137 -85q-68 0 -97 46t-29 116q0 60 11 129.5t23 109.5l11 40h171q-54 -144 -54 -252q0 -54 31 -54q41 0 104 126z" />
    <glyph glyph-name="eth" unicode="&#xf0;" horiz-adv-x="467" 
d="M151 467l-38 68l74 39q-31 28 -79 63l134 153q66 -48 118 -126l88 46l36 -81l-81 -40q70 -143 70 -284q0 -64 -16 -121t-47.5 -103t-83.5 -72.5t-119 -26.5q-82 0 -134 50t-52 141q0 46 16.5 92.5t47 86t81.5 64.5t113 25q1 0 5 -0.5t6 -0.5q-20 39 -46 72zM251 99
q36 0 59.5 39.5t24.5 102.5l-34 13q7 14 7 41q0 21 -11.5 32.5t-28.5 11.5q-30 0 -55 -42t-25 -98q0 -50 17.5 -75t45.5 -25z" />
    <glyph glyph-name="ntilde" unicode="&#xf1;" horiz-adv-x="536" 
d="M209 508l-48 36q55 109 116 109q18 0 49.5 -12.5t45.5 -12.5q33 0 52 46l124 -49q-26 -70 -63.5 -96.5t-70.5 -26.5q-32 0 -76 28t-64 28q-29 0 -65 -50zM78 423h156q-8 -19 -29 -116h4q81 134 187 134q46 0 75.5 -26t29.5 -77q0 -44 -28.5 -110.5t-28.5 -82.5
q0 -28 26 -28q45 0 108 126l54 -27q-64 -133 -119 -183.5t-114 -50.5q-51 0 -83 29t-32 80q0 38 19.5 99.5t19.5 80.5q0 28 -21 28q-39 0 -81.5 -87.5t-54.5 -211.5h-155q8 109 25 215t30 157z" />
    <glyph glyph-name="ograve" unicode="&#xf2;" horiz-adv-x="467" 
d="M279 441q58 0 96 -27.5t48 -70.5l32 6q12 -41 12 -81q0 -113 -74.5 -199.5t-185.5 -86.5q-82 0 -134 50t-52 141q0 46 16.5 92.5t47 86t81.5 64.5t113 25zM251 99q39 0 61.5 43t24.5 98l-36 14q7 14 7 41q0 21 -11.5 32.5t-28.5 11.5q-30 0 -55 -42t-25 -98
q0 -50 17.5 -75t45.5 -25zM353 501l-58 -18q-38 31 -79 93.5t-62 116.5l180 28q5 -109 19 -220z" />
    <glyph glyph-name="oacute" unicode="&#xf3;" horiz-adv-x="467" 
d="M279 441q58 0 96 -27.5t48 -70.5l32 6q12 -41 12 -81q0 -113 -74.5 -199.5t-185.5 -86.5q-82 0 -134 50t-52 141q0 46 16.5 92.5t47 86t81.5 64.5t113 25zM251 99q39 0 61.5 43t24.5 98l-36 14q7 14 7 41q0 21 -11.5 32.5t-28.5 11.5q-30 0 -55 -42t-25 -98
q0 -50 17.5 -75t45.5 -25zM293 483l-58 18q36 119 53 220l180 -28q-25 -43 -81.5 -111.5t-93.5 -98.5z" />
    <glyph glyph-name="ocircumflex" unicode="&#xf4;" horiz-adv-x="467" 
d="M279 441q58 0 96 -27.5t48 -70.5l32 6q12 -41 12 -81q0 -113 -74.5 -199.5t-185.5 -86.5q-82 0 -134 50t-52 141q0 46 16.5 92.5t47 86t81.5 64.5t113 25zM251 99q39 0 61.5 43t24.5 98l-36 14q7 14 7 41q0 21 -11.5 32.5t-28.5 11.5q-30 0 -55 -42t-25 -98
q0 -50 17.5 -75t45.5 -25zM376 492l-73 76l-84 -75l-67 29l161 189h26l119 -181z" />
    <glyph glyph-name="otilde" unicode="&#xf5;" horiz-adv-x="467" 
d="M279 441q58 0 96 -27.5t48 -70.5l32 6q12 -41 12 -81q0 -113 -74.5 -199.5t-185.5 -86.5q-82 0 -134 50t-52 141q0 46 16.5 92.5t47 86t81.5 64.5t113 25zM251 99q39 0 61.5 43t24.5 98l-36 14q7 14 7 41q0 21 -11.5 32.5t-28.5 11.5q-30 0 -55 -42t-25 -98
q0 -50 17.5 -75t45.5 -25zM160 508l-48 36q54 109 116 109q18 0 49.5 -12.5t45.5 -12.5q33 0 52 46l124 -49q-26 -70 -63.5 -96.5t-70.5 -26.5q-31 0 -75.5 28t-64.5 28q-29 0 -65 -50z" />
    <glyph glyph-name="odieresis" unicode="&#xf6;" horiz-adv-x="467" 
d="M279 441q58 0 96 -27.5t48 -70.5l32 6q12 -41 12 -81q0 -113 -74.5 -199.5t-185.5 -86.5q-82 0 -134 50t-52 141q0 46 16.5 92.5t47 86t81.5 64.5t113 25zM251 99q39 0 61.5 43t24.5 98l-36 14q7 14 7 41q0 21 -11.5 32.5t-28.5 11.5q-30 0 -55 -42t-25 -98
q0 -50 17.5 -75t45.5 -25zM206 688q35 0 58 -23.5t23 -61.5q0 -34 -24.5 -62.5t-64.5 -28.5q-36 0 -58.5 25t-22.5 59q0 37 25.5 64.5t63.5 27.5zM405 688q35 0 58 -23.5t23 -61.5q0 -34 -24.5 -62.5t-64.5 -28.5q-36 0 -58.5 25t-22.5 59q0 37 25.5 64.5t63.5 27.5z" />
    <glyph glyph-name="divide" unicode="&#xf7;" horiz-adv-x="534" 
d="M67 283l20 123h423l-27 -123h-416zM318 598q33 0 55.5 -22.5t22.5 -59.5q0 -33 -23.5 -60.5t-62.5 -27.5q-34 0 -56 24t-22 57q0 36 25 62.5t61 26.5zM257 260q31 0 51.5 -21t20.5 -55q0 -30 -21.5 -55t-57.5 -25q-32 0 -52 22t-20 52q0 33 23 57.5t56 24.5z" />
    <glyph glyph-name="oslash" unicode="&#xf8;" horiz-adv-x="467" 
d="M72 -81l-48 29l55 78q-58 52 -58 147q0 46 16.5 92.5t47 86t81.5 64.5t113 25q43 0 80 -17l62 88l90 -48l-100 -124l44 9q12 -41 12 -81q0 -113 -74.5 -199.5t-185.5 -86.5q-38 0 -74 13zM251 99q40 0 63 46t23 103l-114 -142q11 -7 28 -7zM188 199v-17l105 149
q-11 8 -25 8q-30 0 -55 -42t-25 -98z" />
    <glyph glyph-name="ugrave" unicode="&#xf9;" horiz-adv-x="576" 
d="M618 243l54 -27q-53 -105 -88 -149q-67 -85 -137 -85q-103 0 -125 107q-67 -107 -162 -107q-141 0 -141 156q0 60 14 131t28 113l14 41h171q-7 -15 -17 -40.5t-27 -90t-17 -112.5q0 -27 11.5 -42t28.5 -15q23 0 41 17t31.5 52.5t22 66.5t20 83.5t19.5 80.5h178
q-54 -144 -54 -252q0 -54 31 -54q41 0 104 126zM392 501l-58 -18q-38 31 -79 93.5t-62 116.5l180 28q5 -109 19 -220z" />
    <glyph glyph-name="uacute" unicode="&#xfa;" horiz-adv-x="576" 
d="M618 243l54 -27q-53 -105 -88 -149q-67 -85 -137 -85q-103 0 -125 107q-67 -107 -162 -107q-141 0 -141 156q0 60 14 131t28 113l14 41h171q-7 -15 -17 -40.5t-27 -90t-17 -112.5q0 -27 11.5 -42t28.5 -15q23 0 41 17t31.5 52.5t22 66.5t20 83.5t19.5 80.5h178
q-54 -144 -54 -252q0 -54 31 -54q41 0 104 126zM312 483l-58 18q36 119 53 220l180 -28q-25 -43 -81.5 -111.5t-93.5 -98.5z" />
    <glyph glyph-name="ucircumflex" unicode="&#xfb;" horiz-adv-x="576" 
d="M618 243l54 -27q-53 -105 -88 -149q-67 -85 -137 -85q-103 0 -125 107q-67 -107 -162 -107q-141 0 -141 156q0 60 14 131t28 113l14 41h171q-7 -15 -17 -40.5t-27 -90t-17 -112.5q0 -27 11.5 -42t28.5 -15q23 0 41 17t31.5 52.5t22 66.5t20 83.5t19.5 80.5h178
q-54 -144 -54 -252q0 -54 31 -54q41 0 104 126zM395 492l-73 76l-84 -75l-67 29l161 189h26l119 -181z" />
    <glyph glyph-name="udieresis" unicode="&#xfc;" horiz-adv-x="576" 
d="M618 243l54 -27q-53 -105 -88 -149q-67 -85 -137 -85q-103 0 -125 107q-67 -107 -162 -107q-141 0 -141 156q0 60 14 131t28 113l14 41h171q-7 -15 -17 -40.5t-27 -90t-17 -112.5q0 -27 11.5 -42t28.5 -15q23 0 41 17t31.5 52.5t22 66.5t20 83.5t19.5 80.5h178
q-54 -144 -54 -252q0 -54 31 -54q41 0 104 126zM233 688q35 0 58 -23.5t23 -61.5q0 -34 -24.5 -62.5t-64.5 -28.5q-36 0 -58.5 25t-22.5 59q0 37 25.5 64.5t63.5 27.5zM432 688q35 0 58 -23.5t23 -61.5q0 -34 -24.5 -62.5t-64.5 -28.5q-36 0 -58.5 25t-22.5 59
q0 37 25.5 64.5t63.5 27.5z" />
    <glyph glyph-name="yacute" unicode="&#xfd;" horiz-adv-x="517" 
d="M-17 -139l86 103q43 -35 91 -35q64 0 109 49t63 124q-66 -111 -172 -111q-75 0 -108 37t-33 110q0 60 14 131t28 113l14 41h171q-7 -15 -17 -40.5t-27 -90t-17 -112.5q0 -27 11.5 -42t28.5 -15q23 0 41 17t31.5 52.5t22 66.5t20 83.5t19.5 80.5h162q-35 -267 -55 -354
q-46 -198 -143 -263q-58 -38 -141 -38q-70 0 -124.5 30.5t-74.5 62.5zM302 483l-58 18q36 119 53 220l180 -28q-25 -43 -81.5 -111.5t-93.5 -98.5z" />
    <glyph glyph-name="thorn" unicode="&#xfe;" horiz-adv-x="492" 
d="M-39 -213q21 189 75 462.5t133 522.5h198q-83 -182 -154 -429q61 98 154 98q51 0 88 -40.5t37 -124.5q0 -113 -66.5 -203.5t-164.5 -90.5q-66 0 -98 32q-12 -122 -17 -227h-185zM292 299q-25 0 -51 -27t-44 -77l17 -9q-6 -18 -6 -37q0 -45 34 -45q32 0 58 43t26 100
q0 22 -10 37t-24 15z" />
    <glyph glyph-name="ydieresis" unicode="&#xff;" horiz-adv-x="517" 
d="M-17 -139l86 103q43 -35 91 -35q64 0 109 49t63 124q-66 -111 -172 -111q-75 0 -108 37t-33 110q0 60 14 131t28 113l14 41h171q-7 -15 -17 -40.5t-27 -90t-17 -112.5q0 -27 11.5 -42t28.5 -15q23 0 41 17t31.5 52.5t22 66.5t20 83.5t19.5 80.5h162q-35 -267 -55 -354
q-46 -198 -143 -263q-58 -38 -141 -38q-70 0 -124.5 30.5t-74.5 62.5zM228 688q35 0 58 -23.5t23 -61.5q0 -34 -24.5 -62.5t-64.5 -28.5q-36 0 -58.5 25t-22.5 59q0 37 25.5 64.5t63.5 27.5zM427 688q35 0 58 -23.5t23 -61.5q0 -34 -24.5 -62.5t-64.5 -28.5q-36 0 -58.5 25
t-22.5 59q0 37 25.5 64.5t63.5 27.5z" />
    <glyph glyph-name="Amacron" unicode="&#x100;" horiz-adv-x="566" 
d="M38 0h-159q123 166 237.5 398t154.5 394h269q-13 -153 -13 -323q0 -236 22 -469h-220q-5 68 -7 145h-201q-42 -79 -83 -145zM321 300q2 100 15 326h-5q-64 -185 -142 -345zM212 864l22 136h394l-35 -136h-381z" />
    <glyph glyph-name="amacron" unicode="&#x101;" 
d="M602 243l54 -27q-53 -105 -88 -149q-67 -85 -137 -85q-42 0 -69.5 24.5t-37.5 66.5q-60 -91 -154 -91q-63 0 -106.5 44.5t-43.5 129.5q0 108 67 196.5t164 88.5q89 0 117 -66l18 48h135q-54 -144 -54 -252q0 -54 31 -54q41 0 104 126zM235 117q61 0 93 126l-59 11
q13 33 13 55q0 30 -23 30q-27 0 -49 -45.5t-22 -102.5q0 -34 12.5 -54t34.5 -20zM161 534l20 121h323l-31 -121h-312z" />
    <glyph glyph-name="Abreve" unicode="&#x102;" horiz-adv-x="566" 
d="M38 0h-159q123 166 237.5 398t154.5 394h269q-13 -153 -13 -323q0 -236 22 -469h-220q-5 68 -7 145h-201q-42 -79 -83 -145zM321 300q2 100 15 326h-5q-64 -185 -142 -345zM509 1013l74 -16q-49 -159 -181 -159q-66 0 -109 47.5t-44 123.5h158q2 -22 13.5 -37t30.5 -15
q35 0 58 56z" />
    <glyph glyph-name="abreve" unicode="&#x103;" 
d="M602 243l54 -27q-53 -105 -88 -149q-67 -85 -137 -85q-42 0 -69.5 24.5t-37.5 66.5q-60 -91 -154 -91q-63 0 -106.5 44.5t-43.5 129.5q0 108 67 196.5t164 88.5q89 0 117 -66l18 48h135q-54 -144 -54 -252q0 -54 31 -54q41 0 104 126zM235 117q61 0 93 126l-59 11
q13 33 13 55q0 30 -23 30q-27 0 -49 -45.5t-22 -102.5q0 -34 12.5 -54t34.5 -20zM425 698l59 -17q-23 -89 -66.5 -129t-96.5 -40q-60 0 -98.5 50.5t-39.5 130.5h131q2 -29 14 -47.5t33 -18.5q38 0 64 71z" />
    <glyph glyph-name="Aogonek" unicode="&#x104;" horiz-adv-x="566" 
d="M501 -76l48 -32q-69 -124 -194 -124q-60 0 -97 30t-37 85q0 42 28 80.5t78 59.5q-3 42 -5 122h-201q-42 -79 -83 -145h-159q123 166 237.5 398t154.5 394h269q-13 -153 -13 -323q0 -236 22 -469h-79q-44 0 -75.5 -23t-31.5 -58q0 -19 14 -32t37 -13q50 0 87 50zM321 300
q2 100 15 326h-5q-64 -185 -142 -345z" />
    <glyph glyph-name="aogonek" unicode="&#x105;" 
d="M542 -76l48 -32q-32 -57 -74 -90.5t-109 -33.5q-51 0 -82.5 29t-31.5 71q0 65 88 125q-42 22 -57 80q-60 -91 -154 -91q-63 0 -106.5 44.5t-43.5 129.5q0 108 67 196.5t164 88.5q89 0 117 -66l18 48h135q-54 -144 -54 -252q0 -54 31 -54q41 0 104 126l54 -27
q-1 -2 -12 -23.5t-16.5 -31.5t-18 -32.5t-23 -37t-24.5 -32.5t-29 -32t-31 -25q-68 -47 -68 -91q0 -16 11 -26.5t27 -10.5q21 0 36 12t34 38zM235 117q61 0 93 126l-59 11q13 33 13 55q0 30 -23 30q-27 0 -49 -45.5t-22 -102.5q0 -34 12.5 -54t34.5 -20z" />
    <glyph glyph-name="Cacute" unicode="&#x106;" horiz-adv-x="679" 
d="M618 254l73 -33q-45 -115 -133.5 -182t-204.5 -67q-138 0 -227.5 92.5t-89.5 249.5q0 69 18 139t54 134t85.5 114t118.5 79.5t146 29.5q119 0 183 -63t64 -152q0 -35 -11 -75.5t-26 -63.5l-191 51q26 54 26 95q0 73 -51 73q-39 0 -83.5 -49t-77 -133.5t-32.5 -170.5
q0 -107 46.5 -161t120.5 -54q108 0 192 147zM397 838l-39 58q144 94 221 172l109 -153q-48 -21 -143.5 -47t-147.5 -30z" />
    <glyph glyph-name="cacute" unicode="&#x107;" horiz-adv-x="393" 
d="M373 238l-104 16q13 33 13 55q0 30 -23 30q-27 0 -49 -42t-22 -98q0 -101 77 -101q53 0 98 45.5t72 99.5l54 -27q-121 -234 -290 -234q-77 0 -127.5 51.5t-50.5 139.5q0 63 26 122.5t83.5 102.5t133.5 43q65 0 100.5 -31.5t35.5 -80.5q0 -51 -27 -91zM283 483l-58 18
q36 119 53 220l180 -28q-25 -43 -81.5 -111.5t-93.5 -98.5z" />
    <glyph glyph-name="Ccircumflex" unicode="&#x108;" horiz-adv-x="679" 
d="M618 254l73 -33q-45 -115 -133.5 -182t-204.5 -67q-138 0 -227.5 92.5t-89.5 249.5q0 69 18 139t54 134t85.5 114t118.5 79.5t146 29.5q119 0 183 -63t64 -152q0 -35 -11 -75.5t-26 -63.5l-191 51q26 54 26 95q0 73 -51 73q-39 0 -83.5 -49t-77 -133.5t-32.5 -170.5
q0 -107 46.5 -161t120.5 -54q108 0 192 147zM559 822l-98 70l-112 -74l-61 65l178 138h30l149 -121z" />
    <glyph glyph-name="ccircumflex" unicode="&#x109;" horiz-adv-x="393" 
d="M373 238l-104 16q13 33 13 55q0 30 -23 30q-27 0 -49 -42t-22 -98q0 -101 77 -101q53 0 98 45.5t72 99.5l54 -27q-121 -234 -290 -234q-77 0 -127.5 51.5t-50.5 139.5q0 63 26 122.5t83.5 102.5t133.5 43q65 0 100.5 -31.5t35.5 -80.5q0 -51 -27 -91zM340 492l-73 76
l-84 -75l-67 29l161 189h26l119 -181z" />
    <glyph glyph-name="Cdotaccent" unicode="&#x10a;" horiz-adv-x="679" 
d="M618 254l73 -33q-45 -115 -133.5 -182t-204.5 -67q-138 0 -227.5 92.5t-89.5 249.5q0 69 18 139t54 134t85.5 114t118.5 79.5t146 29.5q119 0 183 -63t64 -152q0 -35 -11 -75.5t-26 -63.5l-191 51q26 54 26 95q0 73 -51 73q-39 0 -83.5 -49t-77 -133.5t-32.5 -170.5
q0 -107 46.5 -161t120.5 -54q108 0 192 147zM494 1060q44 0 74.5 -30t30.5 -79q0 -44 -32 -81t-84 -37q-46 0 -75.5 32t-29.5 76q0 49 33.5 84t82.5 35z" />
    <glyph glyph-name="cdotaccent" unicode="&#x10b;" horiz-adv-x="393" 
d="M373 238l-104 16q13 33 13 55q0 30 -23 30q-27 0 -49 -42t-22 -98q0 -101 77 -101q53 0 98 45.5t72 99.5l54 -27q-121 -234 -290 -234q-77 0 -127.5 51.5t-50.5 139.5q0 63 26 122.5t83.5 102.5t133.5 43q65 0 100.5 -31.5t35.5 -80.5q0 -51 -27 -91zM305 730
q43 0 72 -29t29 -76q0 -42 -30.5 -77.5t-80.5 -35.5q-44 0 -72.5 31t-28.5 73q0 46 32 80t79 34z" />
    <glyph glyph-name="Ccaron" unicode="&#x10c;" horiz-adv-x="679" 
d="M618 254l73 -33q-45 -115 -133.5 -182t-204.5 -67q-138 0 -227.5 92.5t-89.5 249.5q0 69 18 139t54 134t85.5 114t118.5 79.5t146 29.5q119 0 183 -63t64 -152q0 -35 -11 -75.5t-26 -63.5l-191 51q26 54 26 95q0 73 -51 73q-39 0 -83.5 -49t-77 -133.5t-32.5 -170.5
q0 -107 46.5 -161t120.5 -54q108 0 192 147zM302 940l86 78l97 -71l113 75l61 -65l-178 -138h-30z" />
    <glyph glyph-name="ccaron" unicode="&#x10d;" horiz-adv-x="393" 
d="M373 238l-104 16q13 33 13 55q0 30 -23 30q-27 0 -49 -42t-22 -98q0 -101 77 -101q53 0 98 45.5t72 99.5l54 -27q-121 -234 -290 -234q-77 0 -127.5 51.5t-50.5 139.5q0 63 26 122.5t83.5 102.5t133.5 43q65 0 100.5 -31.5t35.5 -80.5q0 -51 -27 -91zM147 673l85 38
l63 -73l94 72l54 -40l-164 -178h-26z" />
    <glyph glyph-name="Dcaron" unicode="&#x10e;" horiz-adv-x="760" 
d="M12 41l30 78q13 -9 35 -18q61 261 98 549q-40 -24 -78 -62l-45 80q145 142 359 142q154 0 257 -95.5t103 -254.5q0 -86 -33 -171t-94.5 -156.5t-161.5 -116t-221 -44.5q-79 0 -145.5 19.5t-103.5 49.5zM402 680q-89 -381 -175 -615h21q119 0 216.5 111.5t97.5 264.5
q0 96 -43 157.5t-117 81.5zM275 940l86 78l97 -71l113 75l61 -65l-178 -138h-30z" />
    <glyph glyph-name="dcaron" unicode="&#x10f;" horiz-adv-x="753" 
d="M564 176l52 -36q-90 -158 -185 -158q-42 0 -69.5 24.5t-37.5 66.5q-60 -91 -154 -91q-63 0 -106.5 44.5t-43.5 129.5q0 108 67 196.5t164 88.5q72 0 104 -44q17 83 40.5 177t38.5 146l15 52h198q-74 -169 -127 -345t-53 -256q0 -54 31 -54q28 0 66 59zM235 117
q60 0 92 121q0 1 0.5 2.5t0.5 2.5l-59 11q13 33 13 55q0 30 -23 30q-27 0 -49 -45.5t-22 -102.5q0 -34 12.5 -54t34.5 -20zM687 473l-58 18q37 158 53 300l180 -43q-85 -168 -175 -275z" />
    <glyph glyph-name="Dcroat" unicode="&#x110;" horiz-adv-x="760" 
d="M24 339l12 84h105q19 109 34 227q-40 -24 -78 -62l-45 80q145 142 359 142q154 0 257 -95.5t103 -254.5q0 -86 -33 -171t-94.5 -156.5t-161.5 -116t-221 -44.5q-79 0 -145.5 19.5t-103.5 49.5l30 78q13 -9 35 -18q24 106 48 232zM402 680q-38 -158 -65 -257h121l-35 -106
l-114 6q-46 -158 -82 -258h21q119 0 216.5 111.5t97.5 264.5q0 96 -43 157.5t-117 81.5z" />
    <glyph glyph-name="dcroat" unicode="&#x111;" 
d="M286 542l15 88h109l39 142h198q-27 -58 -58 -142h80l-23 -88h-89q-90 -258 -90 -371q0 -54 31 -54q41 0 104 126l54 -27q-53 -105 -88 -149q-67 -85 -137 -85q-42 0 -69.5 24.5t-37.5 66.5q-60 -91 -154 -91q-63 0 -106.5 44.5t-43.5 129.5q0 108 67 196.5t164 88.5
q72 0 104 -44q10 48 33 145h-102zM235 117q60 0 92 121q0 1 0.5 2.5t0.5 2.5l-59 11q13 33 13 55q0 30 -23 30q-27 0 -49 -45.5t-22 -102.5q0 -34 12.5 -54t34.5 -20z" />
    <glyph glyph-name="Emacron" unicode="&#x112;" horiz-adv-x="587" 
d="M697 800l-62 -196h-284l-52 -181l273 32l-33 -144l-278 -10q-27 -85 -56 -162q80 22 164.5 37.5t129.5 19.5l45 5l-40 -219q-104 22 -220 22q-53 0 -149 -7q-35 -48 -84 -68q-3 2 -7 5t-15.5 14t-20.5 23.5t-18 34t-12 44.5l71 40q22 93 42.5 202.5t29.5 167.5t25 176.5
t17 125.5zM241 864l22 136h394l-35 -136h-381z" />
    <glyph glyph-name="emacron" unicode="&#x113;" horiz-adv-x="399" 
d="M394 339q0 -67 -56.5 -116.5t-143.5 -67.5q16 -57 76 -57q54 0 99 45.5t72 99.5l54 -27q-119 -234 -288 -234q-80 0 -133 50t-53 141q0 43 15 88t43.5 86.5t77.5 67.5t110 26q54 0 90.5 -26t36.5 -76zM265 345q-24 0 -48.5 -33t-27.5 -92q40 11 69.5 36.5t29.5 61.5
q0 27 -23 27zM117 534l20 121h323l-31 -121h-312z" />
    <glyph glyph-name="Ebreve" unicode="&#x114;" horiz-adv-x="587" 
d="M697 800l-62 -196h-284l-52 -181l273 32l-33 -144l-278 -10q-27 -85 -56 -162q80 22 164.5 37.5t129.5 19.5l45 5l-40 -219q-104 22 -220 22q-53 0 -149 -7q-35 -48 -84 -68q-3 2 -7 5t-15.5 14t-20.5 23.5t-18 34t-12 44.5l71 40q22 93 42.5 202.5t29.5 167.5t25 176.5
t17 125.5zM544 1013l74 -16q-49 -159 -181 -159q-66 0 -109 47.5t-44 123.5h158q2 -22 13.5 -37t30.5 -15q35 0 58 56z" />
    <glyph glyph-name="ebreve" unicode="&#x115;" horiz-adv-x="399" 
d="M394 339q0 -67 -56.5 -116.5t-143.5 -67.5q16 -57 76 -57q54 0 99 45.5t72 99.5l54 -27q-119 -234 -288 -234q-80 0 -133 50t-53 141q0 43 15 88t43.5 86.5t77.5 67.5t110 26q54 0 90.5 -26t36.5 -76zM265 345q-24 0 -48.5 -33t-27.5 -92q40 11 69.5 36.5t29.5 61.5
q0 27 -23 27zM367 698l59 -17q-23 -89 -66.5 -129t-96.5 -40q-60 0 -98.5 50.5t-39.5 130.5h131q2 -29 14 -47.5t33 -18.5q38 0 64 71z" />
    <glyph glyph-name="Edotaccent" unicode="&#x116;" horiz-adv-x="587" 
d="M697 800l-62 -196h-284l-52 -181l273 32l-33 -144l-278 -10q-27 -85 -56 -162q80 22 164.5 37.5t129.5 19.5l45 5l-40 -219q-104 22 -220 22q-53 0 -149 -7q-35 -48 -84 -68q-3 2 -7 5t-15.5 14t-20.5 23.5t-18 34t-12 44.5l71 40q22 93 42.5 202.5t29.5 167.5t25 176.5
t17 125.5zM433 1060q45 0 75 -30t30 -79q0 -44 -32 -81t-84 -37q-46 0 -75.5 32t-29.5 76q0 49 33.5 84t82.5 35z" />
    <glyph glyph-name="edotaccent" unicode="&#x117;" horiz-adv-x="399" 
d="M394 339q0 -67 -56.5 -116.5t-143.5 -67.5q16 -57 76 -57q54 0 99 45.5t72 99.5l54 -27q-119 -234 -288 -234q-80 0 -133 50t-53 141q0 43 15 88t43.5 86.5t77.5 67.5t110 26q54 0 90.5 -26t36.5 -76zM265 345q-24 0 -48.5 -33t-27.5 -92q40 11 69.5 36.5t29.5 61.5
q0 27 -23 27zM274 730q43 0 72 -29t29 -76q0 -42 -30.5 -77.5t-80.5 -35.5q-44 0 -72.5 31t-28.5 73q0 46 32 80t79 34z" />
    <glyph glyph-name="Eogonek" unicode="&#x118;" horiz-adv-x="587" 
d="M471 -76l48 -32q-69 -124 -194 -124q-60 0 -97 30t-37 85q0 73 71 121q-60 -1 -127 -7q-35 -48 -84 -68q-3 2 -7 5t-15.5 14t-20.5 23.5t-18 34t-12 44.5l71 40q22 93 42.5 202.5t29.5 167.5t25 176.5t17 125.5l534 38l-62 -196h-284l-52 -181l273 32l-33 -144l-278 -10
q-27 -85 -56 -162q80 22 164.5 37.5t129.5 19.5l45 5l-40 -219q-50 11 -79 11q-39 0 -65.5 -22t-26.5 -52q0 -19 14 -32t37 -13q50 0 87 50z" />
    <glyph glyph-name="eogonek" unicode="&#x119;" horiz-adv-x="399" 
d="M352 -76l48 -32q-32 -57 -74 -90.5t-109 -33.5q-51 0 -82.5 29t-31.5 71q0 63 75 116q-69 9 -113 58t-44 131q0 43 15 88t43.5 86.5t77.5 67.5t110 26q54 0 90.5 -26t36.5 -76q0 -67 -56.5 -116.5t-143.5 -67.5q16 -57 76 -57q54 0 99 45.5t72 99.5l54 -27
q-72 -142 -165 -201q-86 -56 -86 -104q0 -16 11 -26.5t27 -10.5q21 0 36 12t34 38zM265 345q-24 0 -48.5 -33t-27.5 -92q40 11 69.5 36.5t29.5 61.5q0 27 -23 27z" />
    <glyph glyph-name="Ecaron" unicode="&#x11a;" horiz-adv-x="587" 
d="M697 800l-62 -196h-284l-52 -181l273 32l-33 -144l-278 -10q-27 -85 -56 -162q80 22 164.5 37.5t129.5 19.5l45 5l-40 -219q-104 22 -220 22q-53 0 -149 -7q-35 -48 -84 -68q-3 2 -7 5t-15.5 14t-20.5 23.5t-18 34t-12 44.5l71 40q22 93 42.5 202.5t29.5 167.5t25 176.5
t17 125.5zM263 940l86 78l97 -71l113 75l61 -65l-178 -138h-30z" />
    <glyph glyph-name="ecaron" unicode="&#x11b;" horiz-adv-x="399" 
d="M394 339q0 -67 -56.5 -116.5t-143.5 -67.5q16 -57 76 -57q54 0 99 45.5t72 99.5l54 -27q-119 -234 -288 -234q-80 0 -133 50t-53 141q0 43 15 88t43.5 86.5t77.5 67.5t110 26q54 0 90.5 -26t36.5 -76zM265 345q-24 0 -48.5 -33t-27.5 -92q40 11 69.5 36.5t29.5 61.5
q0 27 -23 27zM136 673l85 38l63 -73l94 72l54 -40l-164 -178h-26z" />
    <glyph glyph-name="Gcircumflex" unicode="&#x11c;" horiz-adv-x="758" 
d="M377 311l27 112h390l-33 -144l-61 5q-52 -206 -84 -284h-115q19 75 26 127q-39 -74 -93.5 -114.5t-142.5 -40.5q-109 0 -182 83t-73 227q0 69 18 142t54.5 142t86.5 123.5t120 87.5t149 33q116 0 180 -63t64 -151q0 -36 -11 -76.5t-26 -63.5l-191 51q26 56 26 100
q0 31 -12.5 49.5t-36.5 18.5q-32 0 -68 -34.5t-66.5 -90.5t-50.5 -134.5t-20 -158.5q0 -74 28 -122t81 -48q55 0 99 63t57 149zM568 822l-98 70l-112 -74l-61 65l178 138h30l149 -121z" />
    <glyph glyph-name="gcircumflex" unicode="&#x11d;" horiz-adv-x="517" 
d="M-17 -139l86 103q43 -35 91 -35q59 0 102 42.5t64 109.5q-52 -92 -155 -92q-70 0 -110.5 43.5t-40.5 131.5q0 100 67.5 188.5t163.5 88.5t120 -74l15 56h135q-35 -267 -55 -354q-46 -198 -143 -263q-58 -38 -141 -38q-70 0 -124.5 30.5t-74.5 62.5zM235 117q61 0 93 126
l-59 11q13 33 13 55q0 30 -23 30q-27 0 -49 -45.5t-22 -102.5q0 -34 12.5 -54t34.5 -20zM384 492l-73 76l-84 -75l-67 29l161 189h26l119 -181z" />
    <glyph glyph-name="Gbreve" unicode="&#x11e;" horiz-adv-x="758" 
d="M377 311l27 112h390l-33 -144l-61 5q-52 -206 -84 -284h-115q19 75 26 127q-39 -74 -93.5 -114.5t-142.5 -40.5q-109 0 -182 83t-73 227q0 69 18 142t54.5 142t86.5 123.5t120 87.5t149 33q116 0 180 -63t64 -151q0 -36 -11 -76.5t-26 -63.5l-191 51q26 56 26 100
q0 31 -12.5 49.5t-36.5 18.5q-32 0 -68 -34.5t-66.5 -90.5t-50.5 -134.5t-20 -158.5q0 -74 28 -122t81 -48q55 0 99 63t57 149zM577 1013l74 -16q-49 -159 -181 -159q-66 0 -109 47.5t-44 123.5h158q2 -22 13.5 -37t30.5 -15q35 0 58 56z" />
    <glyph glyph-name="gbreve" unicode="&#x11f;" horiz-adv-x="517" 
d="M-17 -139l86 103q43 -35 91 -35q59 0 102 42.5t64 109.5q-52 -92 -155 -92q-70 0 -110.5 43.5t-40.5 131.5q0 100 67.5 188.5t163.5 88.5t120 -74l15 56h135q-35 -267 -55 -354q-46 -198 -143 -263q-58 -38 -141 -38q-70 0 -124.5 30.5t-74.5 62.5zM235 117q61 0 93 126
l-59 11q13 33 13 55q0 30 -23 30q-27 0 -49 -45.5t-22 -102.5q0 -34 12.5 -54t34.5 -20zM412 698l59 -17q-23 -89 -66.5 -129t-96.5 -40q-60 0 -98.5 50.5t-39.5 130.5h131q2 -29 14 -47.5t33 -18.5q38 0 64 71z" />
    <glyph glyph-name="Gdotaccent" unicode="&#x120;" horiz-adv-x="758" 
d="M377 311l27 112h390l-33 -144l-61 5q-52 -206 -84 -284h-115q19 75 26 127q-39 -74 -93.5 -114.5t-142.5 -40.5q-109 0 -182 83t-73 227q0 69 18 142t54.5 142t86.5 123.5t120 87.5t149 33q116 0 180 -63t64 -151q0 -36 -11 -76.5t-26 -63.5l-191 51q26 56 26 100
q0 31 -12.5 49.5t-36.5 18.5q-32 0 -68 -34.5t-66.5 -90.5t-50.5 -134.5t-20 -158.5q0 -74 28 -122t81 -48q55 0 99 63t57 149zM508 1060q44 0 74.5 -30t30.5 -79q0 -44 -32 -81t-84 -37q-46 0 -75.5 32t-29.5 76q0 49 33.5 84t82.5 35z" />
    <glyph glyph-name="gdotaccent" unicode="&#x121;" horiz-adv-x="517" 
d="M-17 -139l86 103q43 -35 91 -35q59 0 102 42.5t64 109.5q-52 -92 -155 -92q-70 0 -110.5 43.5t-40.5 131.5q0 100 67.5 188.5t163.5 88.5t120 -74l15 56h135q-35 -267 -55 -354q-46 -198 -143 -263q-58 -38 -141 -38q-70 0 -124.5 30.5t-74.5 62.5zM235 117q61 0 93 126
l-59 11q13 33 13 55q0 30 -23 30q-27 0 -49 -45.5t-22 -102.5q0 -34 12.5 -54t34.5 -20zM314 730q43 0 72 -29t29 -76q0 -42 -30.5 -77.5t-80.5 -35.5q-44 0 -72.5 31t-28.5 73q0 46 32 80t79 34z" />
    <glyph glyph-name="uni0122" unicode="&#x122;" horiz-adv-x="758" 
d="M377 311l27 112h390l-33 -144l-61 5q-52 -206 -84 -284h-115q19 75 26 127q-39 -74 -93.5 -114.5t-142.5 -40.5q-109 0 -182 83t-73 227q0 69 18 142t54.5 142t86.5 123.5t120 87.5t149 33q116 0 180 -63t64 -151q0 -36 -11 -76.5t-26 -63.5l-191 51q26 56 26 100
q0 31 -12.5 49.5t-36.5 18.5q-32 0 -68 -34.5t-66.5 -90.5t-50.5 -134.5t-20 -158.5q0 -74 28 -122t81 -48q55 0 99 63t57 149zM190 -232l-28 48q21 11 36 36t15 47q0 16 -6 40l141 24q12 -29 12 -62q0 -30 -14 -52.5t-41.5 -38t-52 -24t-62.5 -18.5z" />
    <glyph glyph-name="uni0123" unicode="&#x123;" horiz-adv-x="517" 
d="M-17 -139l86 103q43 -35 91 -35q59 0 102 42.5t64 109.5q-52 -92 -155 -92q-70 0 -110.5 43.5t-40.5 131.5q0 100 67.5 188.5t163.5 88.5t120 -74l15 56h135q-35 -267 -55 -354q-46 -198 -143 -263q-58 -38 -141 -38q-70 0 -124.5 30.5t-74.5 62.5zM235 117q61 0 93 126
l-59 11q13 33 13 55q0 30 -23 30q-27 0 -49 -45.5t-22 -102.5q0 -34 12.5 -54t34.5 -20zM386 701l28 -48q-21 -11 -36 -36t-15 -47q0 -16 6 -40l-141 -24q-12 29 -12 62q0 30 14 52.5t41.5 38t52 24t62.5 18.5z" />
    <glyph glyph-name="Hcircumflex" unicode="&#x124;" horiz-adv-x="736" 
d="M576 0h-150q36 141 62 278h-231q-50 -169 -95 -278h-150q44 168 79 366t48 312l13 114h236q-39 -178 -93 -380l223 32q15 89 27 176t17 130l4 42h236q-13 -59 -35 -153.5t-81.5 -307t-109.5 -331.5zM586 822l-98 70l-112 -74l-61 65l178 138h30l149 -121z" />
    <glyph glyph-name="hcircumflex" unicode="&#x125;" horiz-adv-x="531" 
d="M370 792l-93 66l-107 -70l-58 62l170 131h28l142 -115zM169 772h198q-7 -8 -36.5 -82t-68.5 -185.5t-62 -197.5h4q81 134 187 134q46 0 75.5 -26t29.5 -77q0 -44 -28.5 -110.5t-28.5 -82.5q0 -28 26 -28q45 0 108 126l54 -27q-64 -133 -119 -183.5t-114 -50.5
q-51 0 -83 29t-32 80q0 38 19.5 99.5t19.5 80.5q0 28 -21 28q-39 0 -81.5 -87.5t-54.5 -211.5h-155q11 144 59 370.5t104 401.5z" />
    <glyph glyph-name="Hbar" unicode="&#x126;" horiz-adv-x="736" 
d="M58 549l12 84h63l19 159h236l-37 -159h195l20 159h236l-37 -159h69l-35 -84h-55q-90 -364 -168 -549h-150q36 141 62 278h-231q-50 -169 -95 -278h-150q65 253 108 549h-62zM518 444l16 105h-204q-4 -14 -10.5 -41.5t-12.5 -51t-12 -44.5z" />
    <glyph glyph-name="hbar" unicode="&#x127;" horiz-adv-x="531" 
d="M169 772h198q-10 -11 -60 -142h125l-23 -88h-134q-54 -153 -75 -235h4q81 134 187 134q46 0 75.5 -26t29.5 -77q0 -44 -28.5 -110.5t-28.5 -82.5q0 -28 26 -28q45 0 108 126l54 -27q-64 -133 -119 -183.5t-114 -50.5q-51 0 -83 29t-32 80q0 38 19.5 99.5t19.5 80.5
q0 28 -21 28q-39 0 -81.5 -87.5t-54.5 -211.5h-155q15 206 98 542h-55l15 88h63q14 55 42 142z" />
    <glyph glyph-name="Itilde" unicode="&#x128;" horiz-adv-x="322" 
d="M162 0h-150q44 168 79 366t48 312l13 114h236q-13 -59 -35 -153.5t-81.5 -307t-109.5 -331.5zM111 865l-49 44q69 107 133 107q23 0 64 -22.5t58 -22.5q31 0 60 50l124 -79q-54 -108 -141 -108q-37 0 -70.5 19.5t-60 39t-48.5 19.5q-29 0 -70 -47z" />
    <glyph glyph-name="itilde" unicode="&#x129;" horiz-adv-x="285" 
d="M327 243l54 -27q-53 -105 -88 -149q-67 -85 -137 -85q-68 0 -97 46t-29 116q0 60 11 129.5t23 109.5l11 40h171q-54 -144 -54 -252q0 -54 31 -54q41 0 104 126zM63 508l-48 36q55 109 116 109q18 0 49.5 -12.5t45.5 -12.5q33 0 52 46l124 -49q-26 -70 -63.5 -96.5
t-70.5 -26.5q-31 0 -75.5 28t-64.5 28q-29 0 -65 -50z" />
    <glyph glyph-name="Imacron" unicode="&#x12a;" horiz-adv-x="322" 
d="M162 0h-150q44 168 79 366t48 312l13 114h236q-13 -59 -35 -153.5t-81.5 -307t-109.5 -331.5zM92 864l22 136h394l-35 -136h-381z" />
    <glyph glyph-name="imacron" unicode="&#x12b;" horiz-adv-x="285" 
d="M327 243l54 -27q-53 -105 -88 -149q-67 -85 -137 -85q-68 0 -97 46t-29 116q0 60 11 129.5t23 109.5l11 40h171q-54 -144 -54 -252q0 -54 31 -54q41 0 104 126zM40 534l20 121h323l-31 -121h-312z" />
    <glyph glyph-name="Iogonek" unicode="&#x12e;" horiz-adv-x="322" 
d="M186 -76l48 -32q-69 -124 -194 -124q-60 0 -97 30t-37 85q0 43 30.5 83t82.5 60q42 165 75 356.5t46 300.5l12 109h236q-13 -59 -35 -153.5t-81.5 -307t-109.5 -331.5q-50 -1 -82 -23.5t-32 -57.5q0 -19 14 -32t37 -13q49 0 87 50z" />
    <glyph glyph-name="iogonek" unicode="&#x12f;" horiz-adv-x="285" 
d="M267 -76l48 -32q-32 -57 -74 -90.5t-109 -33.5q-51 0 -82.5 29t-31.5 71q0 66 86 124q-74 30 -74 152q0 60 11 129.5t23 109.5l11 40h171q-54 -144 -54 -252q0 -54 31 -54q41 0 104 126l54 -27l-12 -23q-12 -23 -17 -32t-18 -32t-23 -37t-24 -32.5t-29 -32.5t-31 -25
q-68 -47 -68 -91q0 -16 11 -26.5t27 -10.5q21 0 36 12t34 38zM214 730q43 0 72 -29t29 -76q0 -42 -30.5 -77.5t-80.5 -35.5q-44 0 -72.5 31t-28.5 73q0 46 32 80t79 34z" />
    <glyph glyph-name="Idotaccent" unicode="&#x130;" horiz-adv-x="322" 
d="M162 0h-150q44 168 79 366t48 312l13 114h236q-13 -59 -35 -153.5t-81.5 -307t-109.5 -331.5zM293 1060q45 0 75 -30t30 -79q0 -44 -32 -81t-84 -37q-46 0 -75.5 32t-29.5 76q0 49 33.5 84t82.5 35z" />
    <glyph glyph-name="dotlessi" unicode="&#x131;" horiz-adv-x="285" 
d="M327 243l54 -27q-53 -105 -88 -149q-67 -85 -137 -85q-68 0 -97 46t-29 116q0 60 11 129.5t23 109.5l11 40h171q-54 -144 -54 -252q0 -54 31 -54q41 0 104 126z" />
    <glyph glyph-name="IJ" unicode="&#x132;" horiz-adv-x="613" 
d="M264 372h-164q14 84 25 189t15 168l4 63h236q-55 -258 -116 -420zM553 254q-12 -32 -17.5 -45.5t-22.5 -49.5t-30.5 -55.5t-38 -48.5t-49 -44t-59 -27t-72.5 -12q-107 0 -158 61.5t-51 153.5q0 35 11 75.5t26 63.5l191 -51q-33 -67 -33 -131q0 -39 30 -39q27 0 52 44.5
t41 117.5q23 105 43 236.5t28 210.5l9 78h236q-64 -351 -136 -538z" />
    <glyph glyph-name="ij" unicode="&#x133;" horiz-adv-x="531" 
d="M391 423h135q-25 -82 -50 -268t-36 -368h-206q14 128 42 260q-60 -65 -120 -65q-68 0 -97 46t-29 116q0 60 11 129.5t23 109.5l11 40h171q-54 -144 -54 -252q0 -54 31 -54q39 0 99 115q37 131 69 191zM506 730q43 0 72 -29t29 -76q0 -42 -30.5 -77.5t-80.5 -35.5
q-44 0 -72.5 31t-28.5 73q0 46 32 80t79 34zM214 730q43 0 72 -29t29 -76q0 -42 -30.5 -77.5t-80.5 -35.5q-44 0 -72.5 31t-28.5 73q0 46 32 80t79 34z" />
    <glyph glyph-name="Jcircumflex" unicode="&#x134;" horiz-adv-x="545" 
d="M485 254q-12 -32 -17.5 -45.5t-22.5 -49.5t-30.5 -55.5t-38 -48.5t-49 -44t-59 -27t-72.5 -12q-107 0 -158 61.5t-51 153.5q0 35 11 75.5t26 63.5l191 -51q-33 -67 -33 -131q0 -39 30 -39q27 0 52 44.5t41 117.5q23 105 43 236.5t28 210.5l9 78h236q-64 -351 -136 -538z
M608 822l-98 70l-112 -74l-61 65l178 138h30l149 -121z" />
    <glyph glyph-name="jcircumflex" unicode="&#x135;" horiz-adv-x="246" 
d="M106 423h135q-25 -82 -50 -268t-36 -368h-206q24 202 71 383t86 253zM259 492l-73 76l-84 -75l-67 29l161 189h26l119 -181z" />
    <glyph glyph-name="uni0136" unicode="&#x136;" horiz-adv-x="698" 
d="M162 0h-150q44 168 79 366t48 312l13 114h236q-53 -241 -121 -479l3 -2q111 90 199 223.5t117 257.5h245q-124 -281 -391 -468q33 -69 93.5 -150t104.5 -128l44 -46l-246 -18q-8 9 -20 28t-41.5 88.5t-49.5 150.5q-89 -56 -95 -60q-37 -117 -68 -189zM175 -232l-28 48
q21 11 36 36t15 47q0 16 -6 40l141 24q12 -29 12 -62q0 -30 -14 -52.5t-41.5 -38t-52 -24t-62.5 -18.5z" />
    <glyph glyph-name="uni0137" unicode="&#x137;" horiz-adv-x="511" 
d="M169 772h198q-7 -8 -37 -83t-69 -188.5t-61 -199.5q82 140 191 140q44 0 70.5 -24.5t26.5 -70.5q0 -50 -41 -93t-89 -62q9 -32 27.5 -52.5t37.5 -20.5q67 0 130 125l54 -27q-63 -131 -122.5 -182.5t-119.5 -51.5q-64 0 -105 53.5t-60 131.5q-27 -70 -39 -167h-155
q11 144 59 370.5t104 401.5zM310 299q-52 0 -100 -107q47 8 85.5 30t38.5 50q0 27 -24 27zM110 -232l-28 48q21 11 36 36t15 47q0 16 -6 40l141 24q12 -29 12 -62q0 -30 -14 -52.5t-41.5 -38t-52 -24t-62.5 -18.5z" />
    <glyph glyph-name="kgreenlandic" unicode="&#x138;" horiz-adv-x="511" 
d="M78 423h156l-54 -238q131 138 161 251l159 24q-21 -103 -147 -229q0 -45 22.5 -79t47.5 -34q67 0 130 125l54 -27q-63 -131 -122.5 -182.5t-119.5 -51.5q-97 0 -147 128l-62 -52l-12 -58h-133q8 109 25 215t30 157z" />
    <glyph glyph-name="Lacute" unicode="&#x139;" horiz-adv-x="546" 
d="M51 -71q-3 2 -7 5t-15.5 14t-20.5 23.5t-18 34t-12 44.5l71 40q38 158 67 333.5t39 272.5l10 96h236q-95 -383 -196 -653q80 22 164.5 37.5t129.5 19.5l45 5l-29 -219q-104 22 -231 22q-53 0 -149 -7q-35 -48 -84 -68zM202 838l-39 58q144 94 221 172l109 -153
q-48 -21 -143.5 -47t-147.5 -30z" />
    <glyph glyph-name="lacute" unicode="&#x13a;" horiz-adv-x="285" 
d="M327 243l54 -27q-53 -105 -88 -149q-67 -85 -137 -85q-68 0 -97 46t-29 116q0 94 36 251t72 267l36 110h198q-7 -17 -19.5 -45.5t-43.5 -109t-54.5 -152.5t-43 -156t-19.5 -138t31 -54q41 0 104 126zM201 808l-39 58q144 94 221 172l109 -153q-48 -21 -143.5 -47
t-147.5 -30z" />
    <glyph glyph-name="uni013B" unicode="&#x13b;" horiz-adv-x="546" 
d="M51 -71q-3 2 -7 5t-15.5 14t-20.5 23.5t-18 34t-12 44.5l71 40q38 158 67 333.5t39 272.5l10 96h236q-95 -383 -196 -653q80 22 164.5 37.5t129.5 19.5l45 5l-29 -219q-104 22 -231 22q-53 0 -149 -7q-35 -48 -84 -68zM171 -232l-28 48q21 11 36 36t15 47q0 16 -6 40
l141 24q12 -29 12 -62q0 -30 -14 -52.5t-41.5 -38t-52 -24t-62.5 -18.5z" />
    <glyph glyph-name="uni013C" unicode="&#x13c;" horiz-adv-x="285" 
d="M327 243l54 -27q-53 -105 -88 -149q-67 -85 -137 -85q-68 0 -97 46t-29 116q0 94 36 251t72 267l36 110h198q-7 -17 -19.5 -45.5t-43.5 -109t-54.5 -152.5t-43 -156t-19.5 -138t31 -54q41 0 104 126zM12 -232l-28 48q21 11 36 36t15 47q0 16 -6 40l141 24q12 -29 12 -62
q0 -30 -14 -52.5t-41.5 -38t-52 -24t-62.5 -18.5z" />
    <glyph glyph-name="Lcaron" unicode="&#x13d;" horiz-adv-x="546" 
d="M51 -71q-3 2 -7 5t-15.5 14t-20.5 23.5t-18 34t-12 44.5l71 40q38 158 67 333.5t39 272.5l10 96h236q-95 -383 -196 -653q80 22 164.5 37.5t129.5 19.5l45 5l-29 -219q-104 22 -231 22q-53 0 -149 -7q-35 -48 -84 -68zM463 473l-58 18q37 158 53 300l180 -43
q-85 -168 -175 -275z" />
    <glyph glyph-name="lcaron" unicode="&#x13e;" horiz-adv-x="479" 
d="M289 175l53 -35q-90 -158 -186 -158q-68 0 -97 46t-29 116q0 94 36 251t72 267l36 110h198q-7 -17 -19.5 -45.5t-43.5 -109t-54.5 -152.5t-43 -156t-19.5 -138t31 -54q28 0 66 58zM413 473l-58 18q37 158 53 300l180 -43q-85 -168 -175 -275z" />
    <glyph glyph-name="Ldot" unicode="&#x13f;" horiz-adv-x="546" 
d="M51 -71q-3 2 -7 5t-15.5 14t-20.5 23.5t-18 34t-12 44.5l71 40q38 158 67 333.5t39 272.5l10 96h236q-95 -383 -196 -653q80 22 164.5 37.5t129.5 19.5l45 5l-29 -219q-104 22 -231 22q-53 0 -149 -7q-35 -48 -84 -68zM477 516q40 0 67 -27t27 -71q0 -39 -28.5 -72
t-74.5 -33q-41 0 -67.5 29t-26.5 68q0 43 30 74.5t73 31.5z" />
    <glyph glyph-name="ldot" unicode="&#x140;" horiz-adv-x="479" 
d="M289 175l53 -35q-90 -158 -186 -158q-68 0 -97 46t-29 116q0 94 36 251t72 267l36 110h198q-7 -17 -19.5 -45.5t-43.5 -109t-54.5 -152.5t-43 -156t-19.5 -138t31 -54q28 0 66 58zM384 458q39 0 65.5 -26.5t26.5 -69.5q0 -38 -27.5 -70.5t-73.5 -32.5q-40 0 -66 28.5
t-26 66.5q0 42 29.5 73t71.5 31z" />
    <glyph glyph-name="Lslash" unicode="&#x141;" horiz-adv-x="569" 
d="M31 238l-14 89l98 33q20 108 35 216t20 162l5 54h236q-43 -173 -102 -368l116 39l-14 -116l-138 -40q-36 -108 -58 -168q80 22 164.5 37.5t129.5 19.5l45 5l-29 -219q-104 22 -231 22q-53 0 -149 -7q-35 -48 -84 -68q-3 2 -7 5t-15.5 14t-20.5 23.5t-18 34t-12 44.5
l71 40q18 77 36 166z" />
    <glyph glyph-name="lslash" unicode="&#x142;" horiz-adv-x="285" 
d="M-20 238l-13 82l89 30q18 89 47.5 194.5t50.5 166.5l20 61h198q-81 -183 -134 -362l106 36l-13 -107l-121 -35q-18 -82 -18 -133q0 -54 31 -54q41 0 104 126l54 -27q-53 -105 -88 -149q-67 -85 -137 -85q-68 0 -97 46t-29 116q0 49 9 111z" />
    <glyph glyph-name="Nacute" unicode="&#x143;" horiz-adv-x="716" 
d="M399 838l-39 58q144 94 221 172l109 -153q-48 -21 -143.5 -47t-147.5 -30zM556 0h-154q-20 137 -136 441h-4q-74 -280 -140 -441h-110q44 168 79 366t48 312l13 114h247q76 -235 119 -479h4q20 116 36 236t22 181l6 62h196q-13 -59 -35 -153.5t-81.5 -307t-109.5 -331.5z
" />
    <glyph glyph-name="nacute" unicode="&#x144;" horiz-adv-x="536" 
d="M334 483l-58 18q36 119 53 220l180 -28q-25 -43 -81.5 -111.5t-93.5 -98.5zM78 423h156q-8 -19 -29 -116h4q81 134 187 134q46 0 75.5 -26t29.5 -77q0 -44 -28.5 -110.5t-28.5 -82.5q0 -28 26 -28q45 0 108 126l54 -27q-64 -133 -119 -183.5t-114 -50.5q-51 0 -83 29
t-32 80q0 38 19.5 99.5t19.5 80.5q0 28 -21 28q-39 0 -81.5 -87.5t-54.5 -211.5h-155q8 109 25 215t30 157z" />
    <glyph glyph-name="uni0145" unicode="&#x145;" horiz-adv-x="716" 
d="M175 -232l-28 48q21 11 36 36t15 47q0 16 -6 40l141 24q12 -29 12 -62q0 -30 -14 -52.5t-41.5 -38t-52 -24t-62.5 -18.5zM556 0h-154q-20 137 -136 441h-4q-74 -280 -140 -441h-110q44 168 79 366t48 312l13 114h247q76 -235 119 -479h4q20 116 36 236t22 181l6 62h196
q-13 -59 -35 -153.5t-81.5 -307t-109.5 -331.5z" />
    <glyph glyph-name="uni0146" unicode="&#x146;" horiz-adv-x="536" 
d="M117 -232l-28 48q21 11 36 36t15 47q0 16 -6 40l141 24q12 -29 12 -62q0 -30 -14 -52.5t-41.5 -38t-52 -24t-62.5 -18.5zM78 423h156q-8 -19 -29 -116h4q81 134 187 134q46 0 75.5 -26t29.5 -77q0 -44 -28.5 -110.5t-28.5 -82.5q0 -28 26 -28q45 0 108 126l54 -27
q-64 -133 -119 -183.5t-114 -50.5q-51 0 -83 29t-32 80q0 38 19.5 99.5t19.5 80.5q0 28 -21 28q-39 0 -81.5 -87.5t-54.5 -211.5h-155q8 109 25 215t30 157z" />
    <glyph glyph-name="Ncaron" unicode="&#x147;" horiz-adv-x="716" 
d="M300 940l86 78l97 -71l113 75l61 -65l-178 -138h-30zM556 0h-154q-20 137 -136 441h-4q-74 -280 -140 -441h-110q44 168 79 366t48 312l13 114h247q76 -235 119 -479h4q20 116 36 236t22 181l6 62h196q-13 -59 -35 -153.5t-81.5 -307t-109.5 -331.5z" />
    <glyph glyph-name="ncaron" unicode="&#x148;" horiz-adv-x="536" 
d="M222 673l85 38l63 -73l94 72l54 -40l-164 -178h-26zM78 423h156q-8 -19 -29 -116h4q81 134 187 134q46 0 75.5 -26t29.5 -77q0 -44 -28.5 -110.5t-28.5 -82.5q0 -28 26 -28q45 0 108 126l54 -27q-64 -133 -119 -183.5t-114 -50.5q-51 0 -83 29t-32 80q0 38 19.5 99.5
t19.5 80.5q0 28 -21 28q-39 0 -81.5 -87.5t-54.5 -211.5h-155q8 109 25 215t30 157z" />
    <glyph glyph-name="Omacron" unicode="&#x14c;" horiz-adv-x="746" 
d="M471 810q104 0 165.5 -49t74.5 -127l35 10q13 -65 13 -139q0 -63 -14 -132.5t-46.5 -141.5t-79 -129t-118.5 -93.5t-158 -36.5q-133 0 -215 83.5t-82 239.5q0 89 28 178.5t79.5 165.5t134.5 123.5t183 47.5zM396 111q83 0 138.5 92t60.5 237l-85 31q27 49 27 94
q0 33 -17 50.5t-43 17.5q-68 0 -135.5 -101t-67.5 -238q0 -91 33 -137t89 -46zM270 864l22 136h394l-35 -136h-381z" />
    <glyph glyph-name="omacron" unicode="&#x14d;" horiz-adv-x="467" 
d="M279 441q58 0 96 -27.5t48 -70.5l32 6q12 -41 12 -81q0 -113 -74.5 -199.5t-185.5 -86.5q-82 0 -134 50t-52 141q0 46 16.5 92.5t47 86t81.5 64.5t113 25zM251 99q39 0 61.5 43t24.5 98l-36 14q7 14 7 41q0 21 -11.5 32.5t-28.5 11.5q-30 0 -55 -42t-25 -98
q0 -50 17.5 -75t45.5 -25zM136 534l20 121h323l-31 -121h-312z" />
    <glyph glyph-name="Obreve" unicode="&#x14e;" horiz-adv-x="746" 
d="M471 810q104 0 165.5 -49t74.5 -127l35 10q13 -65 13 -139q0 -63 -14 -132.5t-46.5 -141.5t-79 -129t-118.5 -93.5t-158 -36.5q-133 0 -215 83.5t-82 239.5q0 89 28 178.5t79.5 165.5t134.5 123.5t183 47.5zM396 111q83 0 138.5 92t60.5 237l-85 31q27 49 27 94
q0 33 -17 50.5t-43 17.5q-68 0 -135.5 -101t-67.5 -238q0 -91 33 -137t89 -46zM597 1013l74 -16q-49 -159 -181 -159q-66 0 -109 47.5t-44 123.5h158q2 -22 13.5 -37t30.5 -15q35 0 58 56z" />
    <glyph glyph-name="obreve" unicode="&#x14f;" horiz-adv-x="467" 
d="M279 441q58 0 96 -27.5t48 -70.5l32 6q12 -41 12 -81q0 -113 -74.5 -199.5t-185.5 -86.5q-82 0 -134 50t-52 141q0 46 16.5 92.5t47 86t81.5 64.5t113 25zM251 99q39 0 61.5 43t24.5 98l-36 14q7 14 7 41q0 21 -11.5 32.5t-28.5 11.5q-30 0 -55 -42t-25 -98
q0 -50 17.5 -75t45.5 -25zM402 698l59 -17q-23 -89 -66.5 -129t-96.5 -40q-60 0 -98.5 50.5t-39.5 130.5h131q2 -29 14 -47.5t33 -18.5q38 0 64 71z" />
    <glyph glyph-name="Ohungarumlaut" unicode="&#x150;" horiz-adv-x="746" 
d="M471 810q104 0 165.5 -49t74.5 -127l35 10q13 -65 13 -139q0 -63 -14 -132.5t-46.5 -141.5t-79 -129t-118.5 -93.5t-158 -36.5q-133 0 -215 83.5t-82 239.5q0 89 28 178.5t79.5 165.5t134.5 123.5t183 47.5zM396 111q83 0 138.5 92t60.5 237l-85 31q27 49 27 94
q0 33 -17 50.5t-43 17.5q-68 0 -135.5 -101t-67.5 -238q0 -91 33 -137t89 -46zM405 839l-57 37q59 83 98 182l121 -82q-49 -52 -98 -92.5t-64 -44.5zM555 838l-35 52q85 72 148 161l102 -99q-27 -24 -95 -62t-120 -52z" />
    <glyph glyph-name="ohungarumlaut" unicode="&#x151;" horiz-adv-x="467" 
d="M279 441q58 0 96 -27.5t48 -70.5l32 6q12 -41 12 -81q0 -113 -74.5 -199.5t-185.5 -86.5q-82 0 -134 50t-52 141q0 46 16.5 92.5t47 86t81.5 64.5t113 25zM251 99q39 0 61.5 43t24.5 98l-36 14q7 14 7 41q0 21 -11.5 32.5t-28.5 11.5q-30 0 -55 -42t-25 -98
q0 -50 17.5 -75t45.5 -25zM229 483l-58 18q27 112 36 220l143 -28q-27 -65 -67.5 -132.5t-53.5 -77.5zM377 483l-58 18q52 119 69 220l151 -28q-26 -49 -64 -99.5t-62.5 -76.5t-35.5 -34z" />
    <glyph glyph-name="OE" unicode="&#x152;" horiz-adv-x="1065" 
d="M1175 800l-62 -196h-361q7 -53 7 -99q0 -41 -6 -84l297 34l-33 -144l-292 -11q-32 -99 -88 -175q88 28 184.5 47t148.5 24l52 5l-40 -219q-104 22 -220 22q-64 0 -127 -5.5t-94 -10.5l-31 -6l-12 25q-72 -35 -155 -35q-133 0 -215 83.5t-82 239.5q0 89 28 178.5
t79.5 165.5t134.5 123.5t183 47.5q102 0 164 -48zM396 111q83 0 138.5 92t60.5 237l-85 31q27 49 27 94q0 33 -17 50.5t-43 17.5q-68 0 -135.5 -101t-67.5 -238q0 -91 33 -137t89 -46z" />
    <glyph glyph-name="oe" unicode="&#x153;" horiz-adv-x="692" 
d="M279 441q94 0 130 -59q61 59 151 59q54 0 90.5 -26t36.5 -76q0 -67 -56.5 -116.5t-143.5 -67.5q16 -57 76 -57q54 0 99 45.5t72 99.5l54 -27q-119 -234 -288 -234q-85 0 -134 60q-70 -60 -159 -60q-82 0 -134 50t-52 141q0 46 16.5 92.5t47 86t81.5 64.5t113 25zM251 99
q32 0 56 41.5t24 99.5q0 99 -57 99q-34 0 -60 -41.5t-26 -98.5q0 -50 17.5 -75t45.5 -25zM558 345q-24 0 -48.5 -33t-27.5 -92q40 11 69.5 36.5t29.5 61.5q0 27 -23 27z" />
    <glyph glyph-name="Racute" unicode="&#x154;" horiz-adv-x="666" 
d="M202 0h-150q36 140 61 267q-17 10 -31 24l49 75q27 153 44 281q-47 -27 -78 -59l-45 80q145 142 363 142q139 0 226 -64t87 -180q0 -93 -62 -178t-171 -127q36 -60 88 -125.5t85 -100.5l34 -35l-246 -18q-7 9 -18.5 26.5t-40 82t-48.5 139.5q-12 -1 -36 -1h-31
q-44 -143 -80 -229zM404 688q-48 -201 -93 -360q68 2 133 61t65 156q0 116 -105 143zM371 838l-39 58q144 94 221 172l109 -153q-48 -21 -143.5 -47t-147.5 -30z" />
    <glyph glyph-name="racute" unicode="&#x155;" horiz-adv-x="409" 
d="M62 504l113 15q0 -34 -13 -96h208q-54 -144 -54 -252q0 -54 31 -54q41 0 104 126l54 -27l-6 -12q-16 -31 -26.5 -51t-35 -56t-47 -58t-55.5 -39.5t-67 -17.5q-63 0 -93.5 43.5t-30.5 110.5q0 91 34 203h-38q-21 -76 -48 -131l-56 23q39 89 39 187q0 51 -13 86zM301 483
l-58 18q36 119 53 220l180 -28q-25 -43 -81.5 -111.5t-93.5 -98.5z" />
    <glyph glyph-name="uni0156" unicode="&#x156;" horiz-adv-x="666" 
d="M202 0h-150q36 140 61 267q-17 10 -31 24l49 75q27 153 44 281q-47 -27 -78 -59l-45 80q145 142 363 142q139 0 226 -64t87 -180q0 -93 -62 -178t-171 -127q36 -60 88 -125.5t85 -100.5l34 -35l-246 -18q-7 9 -18.5 26.5t-40 82t-48.5 139.5q-12 -1 -36 -1h-31
q-44 -143 -80 -229zM404 688q-48 -201 -93 -360q68 2 133 61t65 156q0 116 -105 143zM207 -232l-28 48q21 11 36 36t15 47q0 16 -6 40l141 24q12 -29 12 -62q0 -30 -14 -52.5t-41.5 -38t-52 -24t-62.5 -18.5z" />
    <glyph glyph-name="uni0157" unicode="&#x157;" horiz-adv-x="409" 
d="M62 504l113 15q0 -34 -13 -96h208q-54 -144 -54 -252q0 -54 31 -54q41 0 104 126l54 -27l-6 -12q-16 -31 -26.5 -51t-35 -56t-47 -58t-55.5 -39.5t-67 -17.5q-63 0 -93.5 43.5t-30.5 110.5q0 91 34 203h-38q-21 -76 -48 -131l-56 23q39 89 39 187q0 51 -13 86zM121 -232
l-28 48q21 11 36 36t15 47q0 16 -6 40l141 24q12 -29 12 -62q0 -30 -14 -52.5t-41.5 -38t-52 -24t-62.5 -18.5z" />
    <glyph glyph-name="Rcaron" unicode="&#x158;" horiz-adv-x="666" 
d="M202 0h-150q36 140 61 267q-17 10 -31 24l49 75q27 153 44 281q-47 -27 -78 -59l-45 80q145 142 363 142q139 0 226 -64t87 -180q0 -93 -62 -178t-171 -127q36 -60 88 -125.5t85 -100.5l34 -35l-246 -18q-7 9 -18.5 26.5t-40 82t-48.5 139.5q-12 -1 -36 -1h-31
q-44 -143 -80 -229zM404 688q-48 -201 -93 -360q68 2 133 61t65 156q0 116 -105 143zM266 940l86 78l97 -71l113 75l61 -65l-178 -138h-30z" />
    <glyph glyph-name="rcaron" unicode="&#x159;" horiz-adv-x="409" 
d="M62 504l113 15q0 -34 -13 -96h208q-54 -144 -54 -252q0 -54 31 -54q41 0 104 126l54 -27l-6 -12q-16 -31 -26.5 -51t-35 -56t-47 -58t-55.5 -39.5t-67 -17.5q-63 0 -93.5 43.5t-30.5 110.5q0 91 34 203h-38q-21 -76 -48 -131l-56 23q39 89 39 187q0 51 -13 86zM161 673
l85 38l63 -73l94 72l54 -40l-164 -178h-26z" />
    <glyph glyph-name="Sacute" unicode="&#x15a;" 
d="M365 636q-26 0 -41 -19.5t-15 -48.5q0 -35 20 -68.5t48 -63t56 -62t48 -77.5t20 -96q0 -98 -63.5 -163.5t-170.5 -65.5q-97 0 -153 68.5t-56 171.5l110 13q8 -122 88 -122q29 0 43.5 18t14.5 45q0 29 -24.5 62t-59.5 67t-70.5 71.5t-60 89t-24.5 107.5q0 112 71 179.5
t206 67.5q128 0 198 -69t70 -165q0 -43 -13.5 -86.5t-31.5 -69.5l-159 49q19 46 19 78q0 40 -20 64.5t-50 24.5zM309 838l-39 58q144 94 221 172l109 -153q-48 -21 -143.5 -47t-147.5 -30z" />
    <glyph glyph-name="sacute" unicode="&#x15b;" horiz-adv-x="362" 
d="M49 463l113 15q0 -35 -9 -80q86 -49 140 -116.5t54 -137.5q0 -67 -47 -114.5t-136 -47.5q-135 0 -201 111l72 83q36 -55 75 -55q34 0 34 40q0 35 -37 81q-10 -24 -15 -34l-56 23q25 59 25 142q0 51 -12 90zM219 483l-58 18q36 119 53 220l180 -28q-25 -43 -81.5 -111.5
t-93.5 -98.5z" />
    <glyph glyph-name="Scircumflex" unicode="&#x15c;" 
d="M365 636q-26 0 -41 -19.5t-15 -48.5q0 -35 20 -68.5t48 -63t56 -62t48 -77.5t20 -96q0 -98 -63.5 -163.5t-170.5 -65.5q-97 0 -153 68.5t-56 171.5l110 13q8 -122 88 -122q29 0 43.5 18t14.5 45q0 29 -24.5 62t-59.5 67t-70.5 71.5t-60 89t-24.5 107.5q0 112 71 179.5
t206 67.5q128 0 198 -69t70 -165q0 -43 -13.5 -86.5t-31.5 -69.5l-159 49q19 46 19 78q0 40 -20 64.5t-50 24.5zM458 822l-98 70l-112 -74l-61 65l178 138h30l149 -121z" />
    <glyph glyph-name="scircumflex" unicode="&#x15d;" horiz-adv-x="362" 
d="M49 463l113 15q0 -35 -9 -80q86 -49 140 -116.5t54 -137.5q0 -67 -47 -114.5t-136 -47.5q-135 0 -201 111l72 83q36 -55 75 -55q34 0 34 40q0 35 -37 81q-10 -24 -15 -34l-56 23q25 59 25 142q0 51 -12 90zM301 492l-73 76l-84 -75l-67 29l161 189h26l119 -181z" />
    <glyph glyph-name="Scedilla" unicode="&#x15e;" 
d="M359 636q-26 0 -41 -19.5t-15 -48.5q0 -35 20 -68.5t48 -63t56 -62t48 -77.5t20 -96q0 -98 -63.5 -163.5t-170.5 -65.5q-97 0 -153 68.5t-56 171.5l110 13q8 -122 88 -122q29 0 43.5 18t14.5 45q0 29 -24.5 62t-59.5 67t-70.5 71.5t-60 89t-24.5 107.5q0 112 71 179.5
t206 67.5q128 0 198 -69t70 -165q0 -43 -13.5 -86.5t-31.5 -69.5l-159 49q19 46 19 78q0 40 -20 64.5t-50 24.5zM179 -81l20 48q53 0 99.5 -27t46.5 -81q0 -42 -34 -66.5t-88 -24.5q-40 0 -77 16t-57 43l26 37q19 -19 49 -19q20 0 30.5 9.5t10.5 25.5q0 13 -7.5 24t-18.5 15
z" />
    <glyph glyph-name="scedilla" unicode="&#x15f;" horiz-adv-x="362" 
d="M49 463l113 15q0 -35 -9 -80q86 -49 140 -116.5t54 -137.5q0 -67 -47 -114.5t-136 -47.5q-135 0 -201 111l72 83q36 -55 75 -55q34 0 34 40q0 35 -37 81q-10 -24 -15 -34l-56 23q25 59 25 142q0 51 -12 90zM71 -81l20 48q53 0 99.5 -27t46.5 -81q0 -42 -34 -66.5
t-88 -24.5q-40 0 -77 16t-57 43l26 37q19 -19 49 -19q20 0 30.5 9.5t10.5 25.5q0 13 -7.5 24t-18.5 15z" />
    <glyph glyph-name="Scaron" unicode="&#x160;" 
d="M365 636q-26 0 -41 -19.5t-15 -48.5q0 -35 20 -68.5t48 -63t56 -62t48 -77.5t20 -96q0 -98 -63.5 -163.5t-170.5 -65.5q-97 0 -153 68.5t-56 171.5l110 13q8 -122 88 -122q29 0 43.5 18t14.5 45q0 29 -24.5 62t-59.5 67t-70.5 71.5t-60 89t-24.5 107.5q0 112 71 179.5
t206 67.5q128 0 198 -69t70 -165q0 -43 -13.5 -86.5t-31.5 -69.5l-159 49q19 46 19 78q0 40 -20 64.5t-50 24.5zM203 940l86 78l97 -71l113 75l61 -65l-178 -138h-30z" />
    <glyph glyph-name="scaron" unicode="&#x161;" horiz-adv-x="362" 
d="M49 463l113 15q0 -35 -9 -80q86 -49 140 -116.5t54 -137.5q0 -67 -47 -114.5t-136 -47.5q-135 0 -201 111l72 83q36 -55 75 -55q34 0 34 40q0 35 -37 81q-10 -24 -15 -34l-56 23q25 59 25 142q0 51 -12 90zM103 673l85 38l63 -73l94 72l54 -40l-164 -178h-26z" />
    <glyph glyph-name="uni0162" unicode="&#x162;" horiz-adv-x="577" 
d="M707 800l-62 -196h-172q-90 -347 -197 -604h-150q82 321 127 604h-184l27 140zM105 -81l20 48q53 0 99.5 -27t46.5 -81q0 -42 -34 -66.5t-88 -24.5q-40 0 -77 16t-57 43l26 37q19 -19 49 -19q20 0 30.5 9.5t10.5 25.5q0 13 -7.5 24t-18.5 15z" />
    <glyph glyph-name="uni0163" unicode="&#x163;" horiz-adv-x="307" 
d="M368 503l-44 -131h-101q-33 -120 -33 -192q0 -63 38 -63q30 0 63.5 38.5t57.5 87.5l54 -27q-119 -234 -243 -234q-70 0 -100 43t-30 128q0 79 31 219h-51l21 87l52 7l54 196h189q-33 -76 -67 -173zM49 -81l20 48q53 0 99.5 -27t46.5 -81q0 -42 -34 -66.5t-88 -24.5
q-40 0 -77 16t-57 43l26 37q19 -19 49 -19q20 0 30.5 9.5t10.5 25.5q0 13 -7.5 24t-18.5 15z" />
    <glyph glyph-name="Tcaron" unicode="&#x164;" horiz-adv-x="577" 
d="M707 800l-62 -196h-172q-90 -347 -197 -604h-150q82 321 127 604h-184l27 140zM237 940l86 78l97 -71l113 75l61 -65l-178 -138h-30z" />
    <glyph glyph-name="tcaron" unicode="&#x165;" horiz-adv-x="511" 
d="M368 503l-44 -131h-101q-33 -120 -33 -192q0 -63 38 -63q41 0 92 76l53 -33q-104 -178 -213 -178q-70 0 -100 43t-30 128q0 79 31 219h-51l21 87l52 7l54 196h189q-33 -76 -67 -173zM445 473l-58 18q37 158 53 300l180 -43q-85 -168 -175 -275z" />
    <glyph glyph-name="Tbar" unicode="&#x166;" horiz-adv-x="577" 
d="M707 800l-62 -196h-172l-21 -76h137l-35 -106l-130 6q-76 -253 -148 -428h-150q54 215 97 437l-139 7l12 84h144q3 13 13 76h-184l27 140z" />
    <glyph glyph-name="tbar" unicode="&#x167;" horiz-adv-x="307" 
d="M368 503l-44 -131h-101q-1 -5 -5.5 -21t-6.5 -25h104l-23 -88h-98q-4 -28 -4 -58q0 -63 38 -63q30 0 63.5 38.5t57.5 87.5l54 -27q-119 -234 -243 -234q-70 0 -100 43t-30 128q0 37 6 85h-48l15 88h48q6 30 10 46h-51l21 87l52 7l54 196h189q-33 -76 -67 -173z" />
    <glyph glyph-name="Utilde" unicode="&#x168;" horiz-adv-x="709" 
d="M143 792h241q-45 -95 -75.5 -226t-30.5 -240q0 -98 28 -156.5t89 -58.5q83 0 125.5 123t42.5 332q0 130 -24 226h216q12 -52 12 -128q0 -70 -11 -145.5t-32.5 -154t-57 -148t-81 -124.5t-108.5 -87.5t-135 -32.5q-61 0 -108.5 20t-78.5 53.5t-50.5 82t-27.5 102t-8 116.5
q0 199 74 446zM308 865l-49 44q69 107 133 107q23 0 64 -22.5t58 -22.5q31 0 60 50l124 -79q-54 -108 -141 -108q-37 0 -70.5 19.5t-60 39t-48.5 19.5q-29 0 -70 -47z" />
    <glyph glyph-name="utilde" unicode="&#x169;" horiz-adv-x="576" 
d="M618 243l54 -27q-53 -105 -88 -149q-67 -85 -137 -85q-103 0 -125 107q-67 -107 -162 -107q-141 0 -141 156q0 60 14 131t28 113l14 41h171q-7 -15 -17 -40.5t-27 -90t-17 -112.5q0 -27 11.5 -42t28.5 -15q23 0 41 17t31.5 52.5t22 66.5t20 83.5t19.5 80.5h178
q-54 -144 -54 -252q0 -54 31 -54q41 0 104 126zM205 508l-48 36q55 109 116 109q18 0 49.5 -12.5t45.5 -12.5q33 0 52 46l124 -49q-26 -70 -63.5 -96.5t-70.5 -26.5q-32 0 -76 28t-64 28q-29 0 -65 -50z" />
    <glyph glyph-name="Umacron" unicode="&#x16a;" horiz-adv-x="709" 
d="M143 792h241q-45 -95 -75.5 -226t-30.5 -240q0 -98 28 -156.5t89 -58.5q83 0 125.5 123t42.5 332q0 130 -24 226h216q12 -52 12 -128q0 -70 -11 -145.5t-32.5 -154t-57 -148t-81 -124.5t-108.5 -87.5t-135 -32.5q-61 0 -108.5 20t-78.5 53.5t-50.5 82t-27.5 102t-8 116.5
q0 199 74 446zM270 864l22 136h394l-35 -136h-381z" />
    <glyph glyph-name="umacron" unicode="&#x16b;" horiz-adv-x="576" 
d="M618 243l54 -27q-53 -105 -88 -149q-67 -85 -137 -85q-103 0 -125 107q-67 -107 -162 -107q-141 0 -141 156q0 60 14 131t28 113l14 41h171q-7 -15 -17 -40.5t-27 -90t-17 -112.5q0 -27 11.5 -42t28.5 -15q23 0 41 17t31.5 52.5t22 66.5t20 83.5t19.5 80.5h178
q-54 -144 -54 -252q0 -54 31 -54q41 0 104 126zM173 534l20 121h323l-31 -121h-312z" />
    <glyph glyph-name="Ubreve" unicode="&#x16c;" horiz-adv-x="709" 
d="M143 792h241q-45 -95 -75.5 -226t-30.5 -240q0 -98 28 -156.5t89 -58.5q83 0 125.5 123t42.5 332q0 130 -24 226h216q12 -52 12 -128q0 -70 -11 -145.5t-32.5 -154t-57 -148t-81 -124.5t-108.5 -87.5t-135 -32.5q-61 0 -108.5 20t-78.5 53.5t-50.5 82t-27.5 102t-8 116.5
q0 199 74 446zM571 1013l74 -16q-49 -159 -181 -159q-66 0 -109 47.5t-44 123.5h158q2 -22 13.5 -37t30.5 -15q35 0 58 56z" />
    <glyph glyph-name="ubreve" unicode="&#x16d;" horiz-adv-x="576" 
d="M618 243l54 -27q-53 -105 -88 -149q-67 -85 -137 -85q-103 0 -125 107q-67 -107 -162 -107q-141 0 -141 156q0 60 14 131t28 113l14 41h171q-7 -15 -17 -40.5t-27 -90t-17 -112.5q0 -27 11.5 -42t28.5 -15q23 0 41 17t31.5 52.5t22 66.5t20 83.5t19.5 80.5h178
q-54 -144 -54 -252q0 -54 31 -54q41 0 104 126zM436 698l59 -17q-23 -89 -66.5 -129t-96.5 -40q-60 0 -98.5 50.5t-39.5 130.5h131q2 -29 14 -47.5t33 -18.5q38 0 64 71z" />
    <glyph glyph-name="Uring" unicode="&#x16e;" horiz-adv-x="709" 
d="M143 792h241q-45 -95 -75.5 -226t-30.5 -240q0 -98 28 -156.5t89 -58.5q83 0 125.5 123t42.5 332q0 130 -24 226h216q12 -52 12 -128q0 -70 -11 -145.5t-32.5 -154t-57 -148t-81 -124.5t-108.5 -87.5t-135 -32.5q-61 0 -108.5 20t-78.5 53.5t-50.5 82t-27.5 102t-8 116.5
q0 199 74 446zM479 1040q53 0 86.5 -36t33.5 -82q0 -55 -36 -97t-99 -42q-51 0 -87 35t-36 87q0 55 38.5 95t99.5 40zM479 948q-20 0 -32.5 -14t-12.5 -33q0 -18 11.5 -30t28.5 -12q19 0 31 14t12 31t-10 30.5t-28 13.5z" />
    <glyph glyph-name="uring" unicode="&#x16f;" horiz-adv-x="576" 
d="M618 243l54 -27q-53 -105 -88 -149q-67 -85 -137 -85q-103 0 -125 107q-67 -107 -162 -107q-141 0 -141 156q0 60 14 131t28 113l14 41h171q-7 -15 -17 -40.5t-27 -90t-17 -112.5q0 -27 11.5 -42t28.5 -15q23 0 41 17t31.5 52.5t22 66.5t20 83.5t19.5 80.5h178
q-54 -144 -54 -252q0 -54 31 -54q41 0 104 126zM347 724q50 0 81.5 -34t31.5 -77q0 -52 -34 -91.5t-93 -39.5q-49 0 -82.5 33t-33.5 82q0 52 36 89.5t94 37.5zM348 641q-21 0 -34.5 -15t-13.5 -35q0 -19 12 -31.5t31 -12.5q20 0 32.5 15t12.5 33t-10.5 32t-29.5 14z" />
    <glyph glyph-name="Uhungarumlaut" unicode="&#x170;" horiz-adv-x="709" 
d="M143 792h241q-45 -95 -75.5 -226t-30.5 -240q0 -98 28 -156.5t89 -58.5q83 0 125.5 123t42.5 332q0 130 -24 226h216q12 -52 12 -128q0 -70 -11 -145.5t-32.5 -154t-57 -148t-81 -124.5t-108.5 -87.5t-135 -32.5q-61 0 -108.5 20t-78.5 53.5t-50.5 82t-27.5 102t-8 116.5
q0 199 74 446zM364 839l-57 37q59 83 98 182l121 -82q-49 -52 -98 -92.5t-64 -44.5zM514 838l-35 52q85 72 148 161l102 -99q-27 -24 -95 -62t-120 -52z" />
    <glyph glyph-name="uhungarumlaut" unicode="&#x171;" horiz-adv-x="576" 
d="M618 243l54 -27q-53 -105 -88 -149q-67 -85 -137 -85q-103 0 -125 107q-67 -107 -162 -107q-141 0 -141 156q0 60 14 131t28 113l14 41h171q-7 -15 -17 -40.5t-27 -90t-17 -112.5q0 -27 11.5 -42t28.5 -15q23 0 41 17t31.5 52.5t22 66.5t20 83.5t19.5 80.5h178
q-54 -144 -54 -252q0 -54 31 -54q41 0 104 126zM268 483l-58 18q27 112 36 220l143 -28q-27 -65 -67.5 -132.5t-53.5 -77.5zM416 483l-58 18q52 119 69 220l151 -28q-26 -49 -64 -99.5t-62.5 -76.5t-35.5 -34z" />
    <glyph glyph-name="Uogonek" unicode="&#x172;" horiz-adv-x="709" 
d="M514 -76l48 -32q-32 -57 -74 -90.5t-109 -33.5q-51 0 -82.5 29t-31.5 71q0 57 60 105q-256 12 -256 373q0 199 74 446h241q-45 -95 -75.5 -226t-30.5 -240q0 -98 28 -156.5t89 -58.5q83 0 125.5 123t42.5 332q0 130 -24 226h216q12 -52 12 -128q0 -123 -27.5 -247
t-93.5 -240.5t-161 -172.5q-79 -47 -79 -93q0 -16 11 -26.5t27 -10.5q21 0 36 12t34 38z" />
    <glyph glyph-name="uogonek" unicode="&#x173;" horiz-adv-x="576" 
d="M359 423h178q-54 -144 -54 -252q0 -54 31 -54q41 0 104 126l54 -27q-59 -115 -101 -164q-28 -33 -56 -51q-64 -42 -64 -90q0 -16 11 -26.5t27 -10.5q21 0 36 12t34 38l48 -32q-32 -57 -74 -90.5t-109 -33.5q-51 0 -82.5 29t-31.5 71q0 66 85 123q-57 22 -73 98
q-67 -107 -162 -107q-141 0 -141 156q0 60 14 131t28 113l14 41h171q-7 -15 -17 -40.5t-27 -90t-17 -112.5q0 -27 11.5 -42t28.5 -15q23 0 41 17t31.5 52.5t22 66.5t20 83.5t19.5 80.5z" />
    <glyph glyph-name="Wcircumflex" unicode="&#x174;" horiz-adv-x="958" 
d="M467 752q93 21 235 21q-26 -225 -69 -357q2 -138 17 -254h5q54 47 95 130t63.5 176.5t33.5 174t14 149.5h216q-54 -272 -177 -487t-248 -305h-159q-22 85 -33 179q-82 -126 -158 -179h-159q-27 138 -37.5 318.5t-10.5 473.5h241q-36 -283 -36 -556v-74h6q82 69 143 223
q0 157 18 367zM697 822l-98 70l-112 -74l-61 65l178 138h30l149 -121z" />
    <glyph glyph-name="wcircumflex" unicode="&#x175;" horiz-adv-x="720" 
d="M600 436l159 24q-12 -70 -37.5 -146.5t-65 -154t-98.5 -127.5t-125 -50q-102 0 -122 110q-76 -110 -155 -110q-68 0 -97 46t-29 116q0 60 11 129.5t23 109.5l11 40h171q-54 -144 -54 -252q0 -54 31 -54q36 0 87 93q4 50 14.5 103t19.5 81l8 29h171q-54 -144 -54 -252
q0 -54 31 -54q41 0 69 94t31 225zM526 492l-73 76l-84 -75l-67 29l161 189h26l119 -181z" />
    <glyph glyph-name="Ycircumflex" unicode="&#x176;" horiz-adv-x="662" 
d="M329 792q54 -164 86 -351h4q102 164 157 351h228q-47 -102 -153.5 -247.5t-219.5 -266.5q-50 -155 -101 -278h-150q32 126 67 284q-53 241 -174 508h256zM565 822l-98 70l-112 -74l-61 65l178 138h30l149 -121z" />
    <glyph glyph-name="ycircumflex" unicode="&#x177;" horiz-adv-x="517" 
d="M-17 -139l86 103q43 -35 91 -35q64 0 109 49t63 124q-66 -111 -172 -111q-75 0 -108 37t-33 110q0 60 14 131t28 113l14 41h171q-7 -15 -17 -40.5t-27 -90t-17 -112.5q0 -27 11.5 -42t28.5 -15q23 0 41 17t31.5 52.5t22 66.5t20 83.5t19.5 80.5h162q-35 -267 -55 -354
q-46 -198 -143 -263q-58 -38 -141 -38q-70 0 -124.5 30.5t-74.5 62.5zM392 492l-73 76l-84 -75l-67 29l161 189h26l119 -181z" />
    <glyph glyph-name="Ydieresis" unicode="&#x178;" horiz-adv-x="662" 
d="M329 792q54 -164 86 -351h4q102 164 157 351h228q-47 -102 -153.5 -247.5t-219.5 -266.5q-50 -155 -101 -278h-150q32 126 67 284q-53 241 -174 508h256zM338 1049q41 0 68 -27.5t27 -72.5q0 -40 -29 -73.5t-76 -33.5q-42 0 -68.5 29.5t-26.5 69.5q0 44 30.5 76t74.5 32z
M610 1049q41 0 68 -27.5t27 -72.5q0 -40 -29 -73.5t-76 -33.5q-42 0 -68.5 29.5t-26.5 69.5q0 44 30.5 76t74.5 32z" />
    <glyph glyph-name="Zacute" unicode="&#x179;" horiz-adv-x="648" 
d="M336 838l-39 58q144 94 221 172l109 -153q-48 -21 -143.5 -47t-147.5 -30zM86 596l37 196h600l12 -104q-188 -265 -466 -530v-4q83 18 174.5 30t140.5 14l50 3l-29 -219q-104 22 -319 22q-97 0 -189 -12l-51 -41q-2 1 -6 2.5t-14 8.5t-18.5 16.5t-17 28.5t-11.5 42
q54 33 106 55q253 271 399 543z" />
    <glyph glyph-name="zacute" unicode="&#x17a;" horiz-adv-x="447" 
d="M60 -5l-40 44q29 32 108.5 109t121.5 131q-36 24 -96 24q-12 0 -25 -3q-18 -54 -37 -92l-56 23q4 10 7.5 21.5t6 27.5t4 26.5t3 31.5l2 28t1.5 31t1 26q42 18 93 18q96 0 167 -55l19 37h104q-31 -116 -181 -251q45 -29 95 -29q78 0 131 100l54 -27q-50 -124 -114.5 -179
t-126.5 -55q-92 0 -160 86q-43 -36 -82 -73zM248 483l-58 18q36 119 53 220l180 -28q-25 -43 -81.5 -111.5t-93.5 -98.5z" />
    <glyph glyph-name="Zdotaccent" unicode="&#x17b;" horiz-adv-x="648" 
d="M442 1060q44 0 74.5 -30t30.5 -79q0 -44 -32 -81t-84 -37q-46 0 -75.5 32t-29.5 76q0 49 33.5 84t82.5 35zM86 596l37 196h600l12 -104q-188 -265 -466 -530v-4q83 18 174.5 30t140.5 14l50 3l-29 -219q-104 22 -319 22q-97 0 -189 -12l-51 -41q-2 1 -6 2.5t-14 8.5
t-18.5 16.5t-17 28.5t-11.5 42q54 33 106 55q253 271 399 543z" />
    <glyph glyph-name="zdotaccent" unicode="&#x17c;" horiz-adv-x="447" 
d="M60 -5l-40 44q29 32 108.5 109t121.5 131q-36 24 -96 24q-12 0 -25 -3q-18 -54 -37 -92l-56 23q4 10 7.5 21.5t6 27.5t4 26.5t3 31.5l2 28t1.5 31t1 26q42 18 93 18q96 0 167 -55l19 37h104q-31 -116 -181 -251q45 -29 95 -29q78 0 131 100l54 -27q-50 -124 -114.5 -179
t-126.5 -55q-92 0 -160 86q-43 -36 -82 -73zM293 730q43 0 72 -29t29 -76q0 -42 -30.5 -77.5t-80.5 -35.5q-44 0 -72.5 31t-28.5 73q0 46 32 80t79 34z" />
    <glyph glyph-name="Zcaron" unicode="&#x17d;" horiz-adv-x="648" 
d="M247 940l86 78l97 -71l113 75l61 -65l-178 -138h-30zM86 596l37 196h600l12 -104q-188 -265 -466 -530v-4q83 18 174.5 30t140.5 14l50 3l-29 -219q-104 22 -319 22q-97 0 -189 -12l-51 -41q-2 1 -6 2.5t-14 8.5t-18.5 16.5t-17 28.5t-11.5 42q54 33 106 55
q253 271 399 543z" />
    <glyph glyph-name="zcaron" unicode="&#x17e;" horiz-adv-x="447" 
d="M60 -5l-40 44q29 32 108.5 109t121.5 131q-36 24 -96 24q-12 0 -25 -3q-18 -54 -37 -92l-56 23q4 10 7.5 21.5t6 27.5t4 26.5t3 31.5l2 28t1.5 31t1 26q42 18 93 18q96 0 167 -55l19 37h104q-31 -116 -181 -251q45 -29 95 -29q78 0 131 100l54 -27q-50 -124 -114.5 -179
t-126.5 -55q-92 0 -160 86q-43 -36 -82 -73zM135 673l85 38l63 -73l94 72l54 -40l-164 -178h-26z" />
    <glyph glyph-name="florin" unicode="&#x192;" horiz-adv-x="483" 
d="M469 405l-37 -87h-134q14 -124 14 -193q0 -84 -47.5 -145t-134.5 -61q-57 0 -95 37.5t-43 100.5l84 15q3 -26 19.5 -45t36.5 -19q16 0 29 16.5t13 46.5q0 67 -43 247h-114l15 87h80q-14 77 -14 124q0 76 53 129t156 53q100 0 153.5 -49.5t53.5 -115.5q0 -34 -20 -85
l-152 30q8 19 8 33q0 15 -9 26t-23 11q-17 0 -27.5 -16t-10.5 -43q0 -35 8 -97h181z" />
    <glyph glyph-name="uni0218" unicode="&#x218;" 
d="M359 636q-26 0 -41 -19.5t-15 -48.5q0 -35 20 -68.5t48 -63t56 -62t48 -77.5t20 -96q0 -98 -63.5 -163.5t-170.5 -65.5q-97 0 -153 68.5t-56 171.5l110 13q8 -122 88 -122q29 0 43.5 18t14.5 45q0 29 -24.5 62t-59.5 67t-70.5 71.5t-60 89t-24.5 107.5q0 112 71 179.5
t206 67.5q128 0 198 -69t70 -165q0 -43 -13.5 -86.5t-31.5 -69.5l-159 49q19 46 19 78q0 40 -20 64.5t-50 24.5zM145 -232l-28 48q21 11 36 36t15 47q0 16 -6 40l141 24q12 -29 12 -62q0 -30 -14 -52.5t-41.5 -38t-52 -24t-62.5 -18.5z" />
    <glyph glyph-name="uni0219" unicode="&#x219;" horiz-adv-x="362" 
d="M49 463l113 15q0 -35 -9 -80q86 -49 140 -116.5t54 -137.5q0 -67 -47 -114.5t-136 -47.5q-135 0 -201 111l72 83q36 -55 75 -55q34 0 34 40q0 35 -37 81q-10 -24 -15 -34l-56 23q25 59 25 142q0 51 -12 90zM43 -232l-28 48q21 11 36 36t15 47q0 16 -6 40l141 24
q12 -29 12 -62q0 -30 -14 -52.5t-41.5 -38t-52 -24t-62.5 -18.5z" />
    <glyph glyph-name="uni021A" unicode="&#x21a;" horiz-adv-x="577" 
d="M707 800l-62 -196h-172q-90 -347 -197 -604h-150q82 321 127 604h-184l27 140zM75 -232l-28 48q21 11 36 36t15 47q0 16 -6 40l141 24q12 -29 12 -62q0 -30 -14 -52.5t-41.5 -38t-52 -24t-62.5 -18.5z" />
    <glyph glyph-name="uni021B" unicode="&#x21b;" horiz-adv-x="307" 
d="M368 503l-44 -131h-101q-33 -120 -33 -192q0 -63 38 -63q30 0 63.5 38.5t57.5 87.5l54 -27q-119 -234 -243 -234q-70 0 -100 43t-30 128q0 79 31 219h-51l21 87l52 7l54 196h189q-33 -76 -67 -173zM21 -232l-28 48q21 11 36 36t15 47q0 16 -6 40l141 24q12 -29 12 -62
q0 -30 -14 -52.5t-41.5 -38t-52 -24t-62.5 -18.5z" />
    <glyph glyph-name="dotlessj" unicode="&#x237;" horiz-adv-x="246" 
d="M106 423h135q-25 -82 -50 -268t-36 -368h-206q24 202 71 383t86 253z" />
    <glyph glyph-name="circumflex" unicode="&#x2c6;" horiz-adv-x="346" 
d="M244 492l-73 76l-84 -75l-67 29l161 189h26l119 -181z" />
    <glyph glyph-name="caron" unicode="&#x2c7;" horiz-adv-x="400" 
d="M52 673l85 38l63 -73l94 72l54 -40l-164 -178h-26z" />
    <glyph glyph-name="breve" unicode="&#x2d8;" horiz-adv-x="400" 
d="M291 698l59 -17q-23 -89 -66.5 -129t-96.5 -40q-60 0 -98.5 50.5t-39.5 130.5h131q2 -29 14 -47.5t33 -18.5q38 0 64 71z" />
    <glyph glyph-name="dotaccent" unicode="&#x2d9;" horiz-adv-x="285" 
d="M147 730q43 0 72 -29t29 -76q0 -42 -30.5 -77.5t-80.5 -35.5q-44 0 -72.5 31t-28.5 73q0 46 32 80t79 34z" />
    <glyph glyph-name="ring" unicode="&#x2da;" horiz-adv-x="400" 
d="M208 724q50 0 81.5 -34t31.5 -77q0 -52 -34 -91.5t-93 -39.5q-49 0 -82.5 33t-33.5 82q0 52 36 89.5t94 37.5zM209 641q-21 0 -34.5 -15t-13.5 -35q0 -19 12 -31.5t31 -12.5q20 0 32.5 15t12.5 33t-10.5 32t-29.5 14z" />
    <glyph glyph-name="ogonek" unicode="&#x2db;" horiz-adv-x="400" 
d="M317 -76l48 -32q-69 -124 -194 -124q-60 0 -97 30t-37 85q0 61 57.5 110.5t149.5 49.5l42 -43q-44 0 -75.5 -23t-31.5 -58q0 -19 14 -32t37 -13q50 0 87 50z" />
    <glyph glyph-name="tilde" unicode="&#x2dc;" horiz-adv-x="400" 
d="M54 508l-48 36q54 109 116 109q18 0 49.5 -12.5t45.5 -12.5q33 0 52 46l124 -49q-26 -70 -63.5 -96.5t-70.5 -26.5q-31 0 -76 28t-64 28q-29 0 -65 -50z" />
    <glyph glyph-name="hungarumlaut" unicode="&#x2dd;" horiz-adv-x="400" 
d="M74 483l-58 18q27 112 36 220l143 -28q-27 -65 -67.5 -132.5t-53.5 -77.5zM222 483l-58 18q52 119 69 220l151 -28q-26 -49 -64 -99.5t-62.5 -76.5t-35.5 -34z" />
    <glyph glyph-name="Wgrave" unicode="&#x1e80;" horiz-adv-x="958" 
d="M467 752q93 21 235 21q-26 -225 -69 -357q2 -138 17 -254h5q54 47 95 130t63.5 176.5t33.5 174t14 149.5h216q-54 -272 -177 -487t-248 -305h-159q-22 85 -33 179q-82 -126 -158 -179h-159q-27 138 -37.5 318.5t-10.5 473.5h241q-36 -283 -36 -556v-74h6q82 69 143 223
q0 157 18 367zM728 901l-33 -63q-52 6 -140 40t-132 65l125 137q17 -23 43.5 -50.5t44.5 -45t51 -47t41 -36.5z" />
    <glyph glyph-name="wgrave" unicode="&#x1e81;" horiz-adv-x="720" 
d="M600 436l159 24q-12 -70 -37.5 -146.5t-65 -154t-98.5 -127.5t-125 -50q-102 0 -122 110q-76 -110 -155 -110q-68 0 -97 46t-29 116q0 60 11 129.5t23 109.5l11 40h171q-54 -144 -54 -252q0 -54 31 -54q36 0 87 93q4 50 14.5 103t19.5 81l8 29h171q-54 -144 -54 -252
q0 -54 31 -54q41 0 69 94t31 225zM506 501l-58 -18q-38 31 -79 93.5t-62 116.5l180 28q5 -109 19 -220z" />
    <glyph glyph-name="Wacute" unicode="&#x1e82;" horiz-adv-x="958" 
d="M467 752q93 21 235 21q-26 -225 -69 -357q2 -138 17 -254h5q54 47 95 130t63.5 176.5t33.5 174t14 149.5h216q-54 -272 -177 -487t-248 -305h-159q-22 85 -33 179q-82 -126 -158 -179h-159q-27 138 -37.5 318.5t-10.5 473.5h241q-36 -283 -36 -556v-74h6q82 69 143 223
q0 157 18 367zM503 838l-39 58q144 94 221 172l109 -153q-48 -21 -143.5 -47t-147.5 -30z" />
    <glyph glyph-name="wacute" unicode="&#x1e83;" horiz-adv-x="720" 
d="M600 436l159 24q-12 -70 -37.5 -146.5t-65 -154t-98.5 -127.5t-125 -50q-102 0 -122 110q-76 -110 -155 -110q-68 0 -97 46t-29 116q0 60 11 129.5t23 109.5l11 40h171q-54 -144 -54 -252q0 -54 31 -54q36 0 87 93q4 50 14.5 103t19.5 81l8 29h171q-54 -144 -54 -252
q0 -54 31 -54q41 0 69 94t31 225zM438 483l-58 18q36 119 53 220l180 -28q-25 -43 -81.5 -111.5t-93.5 -98.5z" />
    <glyph glyph-name="Wdieresis" unicode="&#x1e84;" horiz-adv-x="958" 
d="M467 752q93 21 235 21q-26 -225 -69 -357q2 -138 17 -254h5q54 47 95 130t63.5 176.5t33.5 174t14 149.5h216q-54 -272 -177 -487t-248 -305h-159q-22 85 -33 179q-82 -126 -158 -179h-159q-27 138 -37.5 318.5t-10.5 473.5h241q-36 -283 -36 -556v-74h6q82 69 143 223
q0 157 18 367zM472 1049q41 0 68 -27.5t27 -72.5q0 -40 -29 -73.5t-76 -33.5q-42 0 -68.5 29.5t-26.5 69.5q0 44 30.5 76t74.5 32zM744 1049q41 0 68 -27.5t27 -72.5q0 -40 -29 -73.5t-76 -33.5q-42 0 -68.5 29.5t-26.5 69.5q0 44 30.5 76t74.5 32z" />
    <glyph glyph-name="wdieresis" unicode="&#x1e85;" horiz-adv-x="720" 
d="M600 436l159 24q-12 -70 -37.5 -146.5t-65 -154t-98.5 -127.5t-125 -50q-102 0 -122 110q-76 -110 -155 -110q-68 0 -97 46t-29 116q0 60 11 129.5t23 109.5l11 40h171q-54 -144 -54 -252q0 -54 31 -54q36 0 87 93q4 50 14.5 103t19.5 81l8 29h171q-54 -144 -54 -252
q0 -54 31 -54q41 0 69 94t31 225zM355 688q35 0 58 -23.5t23 -61.5q0 -34 -24.5 -62.5t-64.5 -28.5q-36 0 -58.5 25t-22.5 59q0 37 25.5 64.5t63.5 27.5zM554 688q35 0 58 -23.5t23 -61.5q0 -34 -24.5 -62.5t-64.5 -28.5q-36 0 -58.5 25t-22.5 59q0 37 25.5 64.5t63.5 27.5z
" />
    <glyph glyph-name="uni1E9E" unicode="&#x1e9e;" horiz-adv-x="709" 
d="M162 0h-150q44 168 79 366t48 312l13 114h601l12 -104q-58 -83 -198 -234q57 -62 90.5 -121.5t33.5 -131.5q0 -98 -63.5 -163.5t-170.5 -65.5q-97 0 -153 68.5t-56 171.5l110 13q8 -122 88 -122q29 0 43.5 18t14.5 45q0 71 -81 139l-38 -41l-79 74q122 170 204 310
l-160 -20q-104 -427 -188 -628z" />
    <glyph glyph-name="endash" unicode="&#x2013;" horiz-adv-x="500" 
d="M111 175l27 94l340 23l-19 -137z" />
    <glyph glyph-name="emdash" unicode="&#x2014;" horiz-adv-x="1000" 
d="M111 177l27 92l840 29l-19 -149z" />
    <glyph glyph-name="quoteleft" unicode="&#x2018;" horiz-adv-x="214" 
d="M235 793l37 -40q-48 -50 -48 -135q0 -34 15 -66t27 -43l-151 -69q-15 13 -25.5 48t-10.5 71q0 66 51.5 136t104.5 98z" />
    <glyph glyph-name="quoteright" unicode="&#x2019;" horiz-adv-x="214" 
d="M115 418l-37 40q58 61 58 157q0 34 -15 66t-27 43l151 69q15 -13 25.5 -48t10.5 -71q0 -66 -57 -147t-109 -109z" />
    <glyph glyph-name="quotesinglbase" unicode="&#x201a;" horiz-adv-x="321" 
d="M114 -184l-37 40q48 50 48 135q0 34 -15 66t-27 43l151 69q36 -32 36 -119q0 -66 -51.5 -136t-104.5 -98z" />
    <glyph glyph-name="quotedblleft" unicode="&#x201c;" horiz-adv-x="414" 
d="M235 793l37 -40q-48 -50 -48 -135q0 -34 15 -66t27 -43l-151 -69q-15 13 -25.5 48t-10.5 71q0 66 51.5 136t104.5 98zM435 793l37 -40q-48 -50 -48 -135q0 -34 15 -66t27 -43l-151 -69q-15 13 -25.5 48t-10.5 71q0 66 51.5 136t104.5 98z" />
    <glyph glyph-name="quotedblright" unicode="&#x201d;" horiz-adv-x="404" 
d="M115 440l-37 40q48 50 48 135q0 34 -15 66t-27 43l151 69q36 -32 36 -119q0 -66 -51.5 -136t-104.5 -98zM315 440l-37 40q48 50 48 135q0 34 -15 66t-27 43l151 69q36 -32 36 -119q0 -66 -51.5 -136t-104.5 -98z" />
    <glyph glyph-name="quotedblbase" unicode="&#x201e;" horiz-adv-x="521" 
d="M114 -184l-37 40q48 50 48 135q0 34 -15 66t-27 43l151 69q36 -32 36 -119q0 -66 -51.5 -136t-104.5 -98zM314 -184l-37 40q48 50 48 135q0 34 -15 66t-27 43l151 69q36 -32 36 -119q0 -66 -51.5 -136t-104.5 -98z" />
    <glyph glyph-name="dagger" unicode="&#x2020;" horiz-adv-x="403" 
d="M98 608l50 111l115 -85l-15 148l130 -12l-54 -144l124 58l21 -129l-142 16l29 -93l-130 -275l-9 3l-38 302l58 74z" />
    <glyph glyph-name="daggerdbl" unicode="&#x2021;" horiz-adv-x="403" 
d="M327 571l29 -93l-58 -74l139 -26l-50 -111l-115 85l15 -148l-130 12l54 144l-124 -58l-21 129l142 -16l-29 93l58 74l-139 26l50 111l115 -85l-15 148l130 -12l-54 -144l124 58l21 -129z" />
    <glyph glyph-name="bullet" unicode="&#x2022;" horiz-adv-x="436" 
d="M253 379q50 0 81.5 -34t31.5 -77q0 -52 -34 -91.5t-93 -39.5q-49 0 -82.5 33t-33.5 82q0 52 36 89.5t94 37.5z" />
    <glyph glyph-name="ellipsis" unicode="&#x2026;" horiz-adv-x="963" 
d="M192 181q39 0 65.5 -26.5t26.5 -69.5q0 -38 -27.5 -70.5t-73.5 -32.5q-40 0 -66 28.5t-26 66.5q0 42 29.5 73t71.5 31zM513 181q39 0 65.5 -26.5t26.5 -69.5q0 -38 -27.5 -70.5t-73.5 -32.5q-40 0 -66 28.5t-26 66.5q0 42 29.5 73t71.5 31zM834 181q39 0 65.5 -26.5
t26.5 -69.5q0 -38 -27.5 -70.5t-73.5 -32.5q-40 0 -66 28.5t-26 66.5q0 42 29.5 73t71.5 31z" />
    <glyph glyph-name="perthousand" unicode="&#x2030;" horiz-adv-x="1126" 
d="M765 254q0 -7 -4 -27l8 -2q23 62 75 103t127 41q58 0 94 -30t38 -74l9 3q8 -22 8 -45q0 -96 -58 -168.5t-151 -72.5q-60 0 -101.5 32t-52.5 91q-23 -56 -69 -89.5t-108 -33.5q-69 0 -113 42.5t-44 118.5q0 53 23 103t74.5 86.5t119.5 36.5q58 0 91.5 -34t33.5 -81z
M152 -38l-54 38q227 223 395 555q-32 -14 -66 -20q-10 -87 -70.5 -149.5t-146.5 -62.5q-69 0 -113 42.5t-44 118.5q0 53 23 103t74.5 86.5t119.5 36.5q53 0 86 -26.5t38 -66.5q115 11 165 76h129q-84 -179 -236 -387.5t-300 -343.5zM617 81q31 0 50 31.5t19 71.5q0 12 -1 18
l-26 9q6 10 6 35q0 17 -9.5 27t-24.5 10q-25 0 -46 -35t-21 -83q0 -43 15 -63.5t38 -20.5zM247 422q31 0 50 32t19 72q0 11 -1 16l-26 10q6 10 6 35q0 17 -9.5 27t-24.5 10q-25 0 -46 -35t-21 -83q0 -43 15 -63.5t38 -20.5zM948 81q31 0 50 32t19 72q0 11 -1 16l-26 10
q6 10 6 35q0 17 -9.5 27t-24.5 10q-25 0 -46 -35t-21 -83q0 -43 15 -63.5t38 -20.5z" />
    <glyph glyph-name="guilsinglleft" unicode="&#x2039;" horiz-adv-x="376" 
d="M325 414l37 -45q-4 -4 -23.5 -24t-26 -27.5l-19.5 -22.5t-20.5 -26.5t-13.5 -22.5q13 -33 39.5 -69.5t39.5 -48.5l-81 -82q-82 74 -111 123q-20 35 -20 63t72.5 90.5t126.5 91.5z" />
    <glyph glyph-name="guilsinglright" unicode="&#x203a;" horiz-adv-x="341" 
d="M128 46l-37 45q4 4 23.5 24t26 27.5l19.5 22.5t20.5 26.5t13.5 22.5q-13 33 -39.5 69.5t-39.5 48.5l81 82q82 -74 111 -123q20 -36 20 -63q0 -28 -72.5 -90.5t-126.5 -91.5z" />
    <glyph glyph-name="fraction" unicode="&#x2044;" horiz-adv-x="464" 
d="M-22 -38l-54 38l461 693h129z" />
    <glyph glyph-name="Euro" unicode="&#x20ac;" horiz-adv-x="616" 
d="M481 298l-37 -87h-164q9 -53 40 -86.5t77 -33.5q54 0 113 57l48 -52q-77 -114 -207 -114q-103 0 -176 59t-90 170h-67l15 87h47q1 15 5 45h-46l16 87h50q39 121 127.5 201t211.5 80q61 0 111.5 -18.5t77.5 -46.5l-78 -177q-14 17 -44.5 30t-59.5 13q-77 0 -129 -82h217
l-38 -87h-214q-6 -23 -9 -45h203z" />
    <glyph glyph-name="uni20B9" unicode="&#x20b9;" horiz-adv-x="674" 
d="M680 511l-22 -87h-57q-33 -83 -127 -123.5t-209 -43.5v-4q22 -17 49 -36.5t53.5 -37t52.5 -34.5t49.5 -31.5t40.5 -25t30 -18.5l12 -7l-176 -99q-94 61 -193.5 143.5t-132.5 127.5l50 103q14 -1 41 -1q187 0 237 87h-295l16 87h293q-8 42 -44.5 64.5t-85.5 22.5
q-31 0 -62.5 -5t-47.5 -11l-17 -5l-12 74q94 60 211 60q124 0 200 -55t81 -145h65z" />
    <glyph glyph-name="uni20BA" unicode="&#x20ba;" horiz-adv-x="613" 
d="M44 347l8 89l76 11q14 138 14 246h211q0 -66 -32 -217l97 15l-16 -91l-104 -16l-14 -47l109 16l-15 -90l-126 -19q-32 -84 -69 -139q32 -5 57 -5q76 0 126 48t66 167l173 -23q-10 -75 -33.5 -131.5t-53 -89.5t-67.5 -54t-72 -28t-72 -7q-100 0 -188 38q-17 -16 -40 -25
q-59 30 -59 89q0 16 10 54l45 -9q13 55 20 91l-63 -9l8 90l70 10q3 18 7 47z" />
    <glyph glyph-name="uni20BD" unicode="&#x20bd;" horiz-adv-x="634" 
d="M415 192l-38 -87h-154q-22 -65 -39 -105h-135q10 38 23 105h-72l16 87h73l7 45h-71l15 88h70q16 105 27 232l-14 94q34 25 96.5 42.5t125.5 17.5q124 0 209 -56t85 -155q0 -100 -88 -171t-286 -88l-14 -49h164zM355 588q-30 -131 -63 -252q148 34 148 156q0 74 -85 96z
" />
    <glyph glyph-name="uni2113" unicode="&#x2113;" horiz-adv-x="530" 
d="M344 155l56 -33q-41 -67 -83.5 -103.5t-98.5 -36.5q-119 0 -119 174v26q-32 -10 -48 -14l-13 53q41 12 66 22q9 76 30.5 152t57 150.5t92 120.5t125.5 46q71 0 108 -47t37 -113q0 -96 -84.5 -176t-225.5 -141q-4 -29 -4 -63t7 -51t26 -17q33 0 71 51zM401 544
q-41 0 -81.5 -69t-62.5 -165q183 97 183 189q0 20 -11 32.5t-28 12.5z" />
    <glyph glyph-name="numero" unicode="&#x2116;" horiz-adv-x="1097" 
d="M536 0h-134q-32 115 -137 345h-4q-55 -213 -109 -345h-110q44 168 68.5 341.5t27.5 262.5l3 89h227q73 -182 124 -421h4q21 109 36 214.5t19 155.5l4 51h196q-12 -48 -32 -126t-76.5 -263t-106.5 -304zM944 713q46 0 75.5 -21.5t37.5 -55.5l24 5q9 -30 9 -62
q0 -88 -58 -155.5t-144 -67.5q-63 0 -103.5 39.5t-40.5 109.5q0 78 53.5 143t146.5 65zM721 211l24 83l274 18l-17 -119zM915 459q28 0 46 31t20 71l-21 9q5 7 5 30q0 31 -28 31q-23 0 -43 -34t-20 -78q0 -27 11 -43.5t30 -16.5z" />
    <glyph glyph-name="trademark" unicode="&#x2122;" horiz-adv-x="687" 
d="M399 451h-70l56 321h142l-7 -190l79 190h140l-91 -321h-71l29 162l-86 -162h-62l-16 169zM227 451h-71l39 245h-79l15 76h243l-15 -76h-66z" />
    <glyph glyph-name="estimated" unicode="&#x212e;" horiz-adv-x="833" 
d="M501 229l169 -22q-26 -87 -114.5 -155.5t-195.5 -68.5q-55 0 -108 18t-99.5 53t-75 97t-28.5 141q0 80 27 155t76.5 134.5t127 95t171.5 35.5q128 0 206 -80t78 -199q0 -67 -29 -139h-434q-1 -13 -1 -40q0 -201 97 -201q48 0 83 55t50 121zM443 620q-42 0 -90.5 -72
t-69.5 -177l221 16q12 46 12 84q0 63 -17 106t-56 43z" />
    <glyph glyph-name="minus" unicode="&#x2212;" horiz-adv-x="534" 
d="M67 283l20 123h423l-27 -123h-416z" />
    <glyph glyph-name="commaaccent" unicode="&#xf6c3;" horiz-adv-x="244" 
d="M55 -232l-28 48q21 11 36 36t15 47q0 16 -6 40l141 24q12 -29 12 -62q0 -30 -14 -52.5t-41.5 -38t-52 -24t-62.5 -18.5z" />
    <glyph glyph-name="IJacute" horiz-adv-x="613" 
d="M264 372h-164q14 84 25 189t15 168l4 63h236q-55 -258 -116 -420zM553 254q-12 -32 -17.5 -45.5t-22.5 -49.5t-30.5 -55.5t-38 -48.5t-49 -44t-59 -27t-72.5 -12q-107 0 -158 61.5t-51 153.5q0 35 11 75.5t26 63.5l191 -51q-33 -67 -33 -131q0 -39 30 -39q27 0 52 44.5
t41 117.5q23 105 43 236.5t28 210.5l9 78h236q-64 -351 -136 -538zM188 808l-39 58q128 99 200 182l109 -153q-62 -28 -142 -56t-128 -31zM489 808l-39 58q124 94 201 172l109 -153q-51 -23 -136 -48.5t-135 -28.5z" />
    <glyph glyph-name="ijacute" horiz-adv-x="531" 
d="M391 423h135q-25 -82 -50 -268t-36 -368h-206q14 128 42 260q-60 -65 -120 -65q-68 0 -97 46t-29 116q0 60 11 129.5t23 109.5l11 40h171q-54 -144 -54 -252q0 -54 31 -54q39 0 99 115q37 131 69 191zM460 483l-58 18q36 119 53 220l180 -28q-25 -43 -81.5 -111.5
t-93.5 -98.5zM186 483l-58 18q36 119 53 220l180 -28q-25 -43 -81.5 -111.5t-93.5 -98.5z" />
    <glyph glyph-name="grave.case" horiz-adv-x="400" 
d="M352 901l-33 -63q-52 6 -140 40t-132 65l125 137q17 -23 43.5 -50.5t44.5 -45t51 -47t41 -36.5z" />
    <glyph glyph-name="dieresis.case" horiz-adv-x="525" 
d="M131 1049q41 0 68 -27.5t27 -72.5q0 -40 -29 -73.5t-76 -33.5q-42 0 -68.5 29.5t-26.5 69.5q0 44 30.5 76t74.5 32zM403 1049q41 0 68 -27.5t27 -72.5q0 -40 -29 -73.5t-76 -33.5q-42 0 -68.5 29.5t-26.5 69.5q0 44 30.5 76t74.5 32z" />
    <glyph glyph-name="macron.case" horiz-adv-x="447" 
d="M15 864l22 136h394l-35 -136h-381z" />
    <glyph glyph-name="acute.case" horiz-adv-x="400" 
d="M74 838l-39 58q144 94 221 172l109 -153q-48 -21 -143.5 -47t-147.5 -30z" />
    <glyph glyph-name="circumflex.case" horiz-adv-x="400" 
d="M291 822l-98 70l-112 -74l-61 65l178 138h30l149 -121z" />
    <glyph glyph-name="caron.case" horiz-adv-x="367" 
d="M5 940l86 78l97 -71l113 75l61 -65l-178 -138h-30z" />
    <glyph glyph-name="breve.case" horiz-adv-x="400" 
d="M293 1013l74 -16q-49 -159 -181 -159q-66 0 -109 47.5t-44 123.5h158q2 -22 13.5 -37t30.5 -15q35 0 58 56z" />
    <glyph glyph-name="dotaccent.case" horiz-adv-x="285" 
d="M148 1060q44 0 74.5 -30t30.5 -79q0 -44 -32 -81t-84 -37q-46 0 -75.5 32t-29.5 76q0 49 33.5 84t82.5 35z" />
    <glyph glyph-name="ring.case" horiz-adv-x="400" 
d="M209 1040q56 0 92 -38.5t36 -87.5q0 -59 -38.5 -103.5t-105.5 -44.5q-55 0 -93 37t-38 93q0 59 41 101.5t106 42.5zM209 941q-21 0 -34.5 -15t-13.5 -35q0 -19 12 -31.5t31 -12.5q20 0 32.5 15t12.5 33t-10.5 32t-29.5 14z" />
    <glyph glyph-name="tilde.case" horiz-adv-x="451" 
d="M55 865l-49 44q69 107 133 107q23 0 64 -22.5t58 -22.5q31 0 60 50l124 -79q-54 -108 -141 -108q-37 0 -70.5 19.5t-60 39t-48.5 19.5q-29 0 -70 -47z" />
    <glyph glyph-name="hungarumlaut.case" horiz-adv-x="400" 
d="M135 839l-57 37q59 83 98 182l121 -82q-49 -52 -98 -92.5t-64 -44.5zM285 838l-35 52q85 72 148 161l102 -99q-27 -24 -95 -62t-120 -52z" />
    <glyph glyph-name="A.swsh" horiz-adv-x="587" 
d="M271 792h269q-13 -142 -13 -331v-44q48 6 91 6l-36 -169h-50q6 -138 17 -254h-220q-8 119 -8 242q-106 -13 -166 -41q-78 -159 -131 -219l-11 5.5t-25.5 15t-34 24.5t-31.5 33.5t-24 41.5q42 50 133 134q172 299 240 556zM217 337q43 18 106 37q2 46 7.5 141t6.5 114h-4
q-41 -116 -116 -292z" />
    <glyph glyph-name="A.swsh3" horiz-adv-x="566" 
d="M662 470l3 -98q-59 0 -137 -16q4 -188 21 -356h-220q-9 126 -9 231v53q-88 -41 -170 -93q-73 -147 -126 -209l-11 5.5t-25.5 15t-34 24.5t-31.5 33.5t-24 41.5q42 50 133 134q172 299 240 556h269q-13 -142 -13 -332v-12q36 8 69.5 13.5t49.5 6.5zM218 339q46 25 105 48
q3 60 14 242h-4q-44 -127 -115 -290z" />
    <glyph glyph-name="A.swsh_2" horiz-adv-x="597" 
d="M271 792h269q-13 -142 -13 -332v-44q74 7 127 7h78l-72 -84q-74 0 -131 -7q6 -188 20 -332h-220q-9 126 -9 231q0 9 0.5 27t0.5 27q-97 -35 -171 -94q-73 -147 -126 -209l-11 5.5t-25.5 15t-34 24.5t-31.5 33.5t-24 41.5q42 50 133 134q172 299 240 556zM218 339
q46 19 105 37q2 46 7.5 140.5t6.5 112.5h-4q-44 -127 -115 -290z" />
    <glyph glyph-name="A.swsh_s" horiz-adv-x="949" 
d="M271 792h269q-13 -156 -13 -328v-63q40 2 58 2q22 0 62 -4q-1 30 -11 64l113 15q0 -40 -13 -100q89 -30 143.5 -91.5t54.5 -142.5q0 -67 -47 -114.5t-136 -47.5q-135 0 -201 111l72 83q36 -55 75 -55q16 0 27.5 13t11.5 40q0 39 -41 70q-2 -5 -16 -36l-56 23q5 11 14 41
q-35 10 -69 10q-25 0 -38 -1q6 -148 19 -281h-220q-8 108 -8 221v38q-100 -21 -166 -58q-80 -161 -131 -219l-11 5.5t-25.5 15t-34 24.5t-31.5 33.5t-24 41.5q42 50 133 134q172 299 240 556zM216 335q50 19 107 33q2 48 7.5 145t6.5 116h-4q-44 -128 -117 -294z" />
    <glyph glyph-name="AM" horiz-adv-x="717" 
d="M429 372h-70l56 321h142l-7 -190l79 190h140l-91 -321h-71l29 162l-86 -162h-62l-16 169zM129 372h-88q50 65 98 158t71 163h134q-5 -72 -5 -130q0 -99 9 -191h-94q-4 40 -4 51h-86q-3 -5 -35 -51zM252 607h-5q-27 -80 -48 -124l48 7q2 73 5 117z" />
    <glyph glyph-name="B.swsh" horiz-adv-x="666" 
d="M-14 -18l34 93q18 -13 47 -24q61 265 108 596q-47 -27 -78 -59l-45 80q145 142 363 142q139 0 226 -64t87 -180q0 -94 -63 -180t-175 -128q60 -46 60 -120q0 -103 -88.5 -162t-222.5 -59q-84 0 -152 21t-101 44zM404 688q-48 -201 -93 -360q68 2 133 61t65 156
q0 116 -105 143zM285 239q-39 -128 -74 -218h19q70 0 106 39t36 84q0 38 -22 66t-65 29z" />
    <glyph glyph-name="C.swsh" horiz-adv-x="646" 
d="M742 216q-71 -164 -167.5 -230.5t-235.5 -66.5q-136 0 -222 96t-86 248q0 101 31.5 199t86 175.5t135 125t170.5 47.5q119 0 183 -63t64 -152q0 -35 -11 -75.5t-26 -63.5l-191 51q26 54 26 95q0 73 -51 73q-39 0 -84 -52t-77.5 -138.5t-32.5 -173.5q0 -117 46 -190
t132 -73q154 0 256 195z" />
    <glyph glyph-name="D.swsh" horiz-adv-x="758" 
d="M220 -81q-75 0 -138.5 20t-95.5 43l34 93q20 -13 45 -23q65 263 110 598q-40 -24 -78 -62l-45 80q145 142 359 142q154 0 257 -95.5t103 -254.5q0 -70 -20 -142.5t-64 -144.5t-107 -128t-156.5 -91t-203.5 -35zM402 680q-103 -437 -191 -659h19q94 0 171.5 61.5
t119 157.5t41.5 201q0 96 -43 157.5t-117 81.5z" />
    <glyph glyph-name="E.swsh" horiz-adv-x="548" 
d="M478 217l74 -50q-106 -195 -305 -195q-92 0 -151 51t-59 140q0 58 34 113.5t95 91.5q-98 77 -98 195q0 115 76 181t196 66q127 0 200.5 -68t73.5 -170q0 -88 -45 -152l-159 49q20 40 20 82q0 36 -17 60.5t-46 24.5q-27 0 -49.5 -25.5t-22.5 -73.5q0 -80 71 -123
q72 -7 105 -26l-11 -70q-21 -14 -92 -14q-30 0 -63 5q-72 -42 -72 -119q0 -36 23 -62t68 -26q46 0 86 31t68 84z" />
    <glyph glyph-name="F.swsh" horiz-adv-x="769" 
d="M878 772l-61 -219q-64 27 -213 60q-31 -131 -70 -255q145 65 251 65l-36 -169q-159 0 -269 -53q-63 -172 -118 -235q-47 12 -82 42.5t-52 72.5q35 78 113 170q29 182 42 397q-7 1 -19 1q-62 0 -93 -21t-31 -54q0 -46 61 -93l-83 -100q-6 4 -16 10t-35.5 27t-45 43
t-35.5 54t-16 63q0 119 99.5 174t292.5 55q257 0 416 -35z" />
    <glyph glyph-name="G.swsh" horiz-adv-x="758" 
d="M377 311l27 112h390l-33 -144l-107 9q14 -194 118 -317l-227 -123q-42 81 -42 237q-74 -113 -212 -113q-109 0 -182 83t-73 227q0 69 18 142t54.5 142t86.5 123.5t120 87.5t149 33q116 0 180 -63t64 -151q0 -36 -11 -76.5t-26 -63.5l-191 51q26 56 26 100
q0 31 -12.5 49.5t-36.5 18.5q-32 0 -68 -34.5t-66.5 -90.5t-50.5 -134.5t-20 -158.5q0 -74 28 -122t81 -48q55 0 99 63t57 149z" />
    <glyph glyph-name="H.swsh" horiz-adv-x="736" 
d="M576 0h-150q27 105 55 244q-177 -16 -270 -64q-60 -146 -107 -198q-10 2 -26.5 6.5t-53 22t-56.5 39.5q32 70 100 155q23 128 37 275t16 230l2 82h268q-2 -46 -38.5 -183.5t-85.5 -279.5q107 50 244 73q17 98 30.5 195.5t18.5 146.5l6 48h236q-38 -173 -91 -370
q10 0 32 0.5t34 0.5l-36 -169q-53 0 -78 -1q-49 -164 -87 -253z" />
    <glyph glyph-name="I.swsh" horiz-adv-x="576" 
d="M240 574q0 -46 61 -93l-83 -100q-6 4 -16 10t-35.5 27t-45 43t-35.5 54t-16 63q0 58 27 101t74 67t102 35t120 11h249q-13 -59 -35 -153.5t-81.5 -307t-109.5 -331.5h-150q72 275 123 648h-4q-69 0 -107 -21t-38 -53z" />
    <glyph glyph-name="J.swsh" horiz-adv-x="579" 
d="M253 574q0 -46 61 -93l-83 -100q-6 4 -16 10t-35.5 27t-45 43t-35.5 54t-16 63q0 58 27 101t74 67t102 35t120 11h249q-76 -404 -148 -591q-116 -300 -323 -300q-96 0 -146 54t-50 147q0 35 11 75.5t26 63.5l191 -51q-33 -68 -33 -131q0 -39 30 -39q32 0 63.5 50
t47.5 124q39 180 76 454q-70 0 -108.5 -21t-38.5 -53z" />
    <glyph glyph-name="K.swsh" horiz-adv-x="698" 
d="M162 0h-150q44 168 79 366t48 312l13 114h236q-53 -240 -121 -478h6q109 90 196.5 222.5t116.5 255.5h245q-124 -282 -391 -468q42 -97 133.5 -208.5t182.5 -176.5l-227 -123q-63 98 -120.5 221t-83.5 212q-57 -34 -95 -60q-37 -117 -68 -189z" />
    <glyph glyph-name="L.swsh" horiz-adv-x="615" 
d="M61 -71q-3 2 -7 5t-15.5 14t-20.5 23.5t-18 34t-12 44.5l78 44q33 141 52 315.5t22 278.5l3 104h268q0 -74 -55 -292.5t-128 -363.5q68 12 132 12q84 0 170 -16.5t130 -33.5l44 -16l-108 -266q-180 175 -446 175h-10q-33 -43 -79 -62z" />
    <glyph glyph-name="M.swsh" horiz-adv-x="921" 
d="M726 -152q-63 130 -63 309q0 123 29 268h-6q-142 -277 -240 -425h-154q0 175 -35 402h-5q-81 -298 -156 -463l-84 61q44 168 79 366t48 312l13 114h311q16 -241 17 -497h5q53 120 104.5 244.5t76.5 188.5l24 64h273q-92 -296 -92 -493q0 -184 82 -328z" />
    <glyph glyph-name="N.swsh" horiz-adv-x="735" 
d="M96 -61l-84 61q44 168 79 366t48 312l13 114h247q72 -341 95 -630h4q28 142 50 299.5t30 244.5l8 86h229q-17 -69 -45.5 -179.5t-100 -351t-123.5 -361.5l-160 34q-10 68 -45.5 215t-78.5 281h-4q-87 -327 -162 -491z" />
    <glyph glyph-name="O.swsh" horiz-adv-x="772" 
d="M463 810q109 0 172 -51t74 -132l63 17q13 -65 13 -139q0 -68 -14 -143.5t-48 -155.5t-83 -143t-127.5 -104t-173.5 -41q-129 0 -214 89t-85 251q0 74 18.5 151t55 148.5t86 128t118.5 90.5t145 34zM390 62q94 0 157 105.5t70 263.5l-114 40q28 51 28 94q0 33 -17.5 50.5
t-44.5 17.5q-43 0 -91 -51.5t-82.5 -142t-34.5 -186.5q0 -93 37 -142t92 -49z" />
    <glyph glyph-name="PM" horiz-adv-x="697" 
d="M409 372h-70l56 321h142l-7 -190l79 190h140l-91 -321h-71l29 162l-86 -162h-62l-16 169zM114 625l-18 45q59 34 130 34q60 0 97 -25t37 -76q0 -53 -49 -95t-127 -42h-12q-22 -68 -33 -94h-77q17 62 25 109q-8 6 -12 10l21 41q3 17 9.5 46t8.5 47zM220 647
q-20 -83 -33 -127q30 0 53.5 18t23.5 58q0 16 -13 31t-31 20z" />
    <glyph glyph-name="Q.swsh" horiz-adv-x="772" 
d="M463 810q109 0 172 -51t74 -132l63 17q13 -65 13 -139q0 -105 -34.5 -223t-102.5 -207q77 -85 147 -136l-227 -123q-43 66 -75 133q-73 -31 -154 -31q-129 0 -214 89t-85 251q0 74 18.5 151t55 148.5t86 128t118.5 90.5t145 34zM390 62q26 0 50 9q-60 153 -64 268h97
q26 -67 85 -151q53 101 59 243l-114 40q28 51 28 94q0 33 -17.5 50.5t-44.5 17.5q-43 0 -91 -51.5t-82.5 -142t-34.5 -186.5q0 -93 37 -142t92 -49z" />
    <glyph glyph-name="R.swsh" horiz-adv-x="666" 
d="M202 0h-150q36 140 61 267q-17 10 -31 24l49 75q27 153 44 281q-47 -27 -78 -59l-45 80q145 142 363 142q139 0 226 -64t87 -180q0 -94 -62.5 -179t-172.5 -127q50 -88 128.5 -177t154.5 -144l-227 -123q-60 93 -115.5 209t-82.5 205q-13 -1 -38 -1h-31
q-44 -143 -80 -229zM404 688q-48 -201 -93 -360q68 2 133 61t65 156q0 116 -105 143z" />
    <glyph glyph-name="S.swsh" horiz-adv-x="569" 
d="M46 167l114 13q6 -117 82 -117q34 0 50.5 22.5t16.5 50.5q0 34 -35.5 85.5t-77.5 98.5t-77.5 115t-35.5 131q0 111 74 177.5t207 66.5q137 0 207.5 -68.5t70.5 -165.5q0 -43 -13.5 -86.5t-31.5 -69.5l-159 49q19 46 19 78q0 40 -20 64.5t-50 24.5q-26 0 -44 -19t-18 -54
q0 -34 19 -71.5t46 -73t54 -73.5t46 -86.5t19 -97.5q0 -106 -67.5 -174t-173.5 -68t-164 70t-58 178z" />
    <glyph glyph-name="T.swsh" horiz-adv-x="710" 
d="M419 0h-150q91 356 134 647q-28 2 -39 2q-62 0 -93 -21t-31 -54q0 -46 61 -93l-83 -100q-6 4 -16 10t-35.5 27t-45 43t-35.5 54t-16 63q0 59 27 104.5t73.5 72.5t103 41t119.5 14q249 0 426 -38l-61 -219q-59 24 -142 48q-94 -353 -197 -601z" />
    <glyph glyph-name="T.swsh_h" horiz-adv-x="1147" 
d="M1189 243l54 -27q-64 -133 -119 -183.5t-114 -50.5q-51 0 -83 29t-32 80q0 38 19.5 99.5t19.5 80.5q0 28 -21 28q-39 0 -81.5 -87.5t-54.5 -211.5h-155q18 232 108 581q-50 18 -112 31q-39 -153 -95 -325.5t-104 -286.5h-150q91 358 134 647q-28 2 -39 2q-62 0 -93 -21
t-31 -54q0 -46 61 -93l-83 -100q-6 4 -16 10t-35.5 27t-45 43t-35.5 54t-16 63q0 59 27 104.5t73 72.5t102 41t119 14q103 0 272.5 -21.5t298.5 -58.5v-4q-33 -76 -76 -198t-69 -221h4q80 134 186 134q46 0 75.5 -26t29.5 -77q0 -44 -28.5 -110.5t-28.5 -82.5q0 -28 26 -28
q45 0 108 126z" />
    <glyph glyph-name="T_h" horiz-adv-x="1030" 
d="M1072 243l54 -27q-64 -133 -119 -183.5t-114 -50.5q-51 0 -83 29t-32 80q0 38 19.5 99.5t19.5 80.5q0 28 -21 28q-39 0 -81.5 -87.5t-54.5 -211.5h-155q18 242 114 604h-146q-90 -347 -197 -604h-150q82 321 127 604h-184l27 140l778 56v-10q-7 -9 -38 -86t-72 -193
t-64 -204h4q81 134 186 134q46 0 75.5 -26t29.5 -77q0 -44 -28.5 -110.5t-28.5 -82.5q0 -28 26 -28q45 0 108 126z" />
    <glyph glyph-name="Y.swsh" horiz-adv-x="667" 
d="M37 62l73 138q56 -46 131 -46q57 0 99 14t69.5 42t44.5 60t29 76q-75 -115 -216 -115q-95 0 -139 58.5t-44 156.5q0 73 18 159.5t36 136.5l19 50h243q-11 -23 -28 -61t-45 -130.5t-28 -155.5q0 -35 15 -54.5t37 -19.5q50 0 87.5 73t54.5 166.5t17 181.5h226
q-43 -331 -83 -470q-65 -231 -196 -306q-76 -44 -181 -44q-94 0 -155 26.5t-84 63.5z" />
    <glyph glyph-name="Z.swsh" horiz-adv-x="669" 
d="M86 596l37 196h600l12 -104q-188 -265 -480 -542v-4q63 9 130 9q194 0 351 -69l-108 -266q-54 52 -122.5 89t-137 54.5t-122.5 24.5t-104 7q-34 0 -48 -1q-19 -16 -48 -39q-2 1 -6 2.5t-14 8.5t-18.5 16.5t-17 28.5t-11.5 42q54 33 106 55q253 271 399 543z" />
    <glyph glyph-name="ampersand.alt" horiz-adv-x="634" 
d="M380 311l27 112h277l-33 -144l-83 9q-16 -66 -52 -130q52 -38 99 -64l-25 -112q-72 36 -144 83q-96 -93 -231 -93q-92 0 -154 49.5t-62 130.5q0 130 134 222q-57 101 -57 189q0 115 71 181t184 66q90 0 149.5 -53t59.5 -130q0 -21 -3.5 -39.5t-13 -35t-17 -29.5
t-24.5 -26.5t-26 -21.5t-32.5 -21t-32 -17.5t-35 -18t-33.5 -16.5q36 -100 129 -190q29 38 44 85zM303 521q0 -25 3 -49q51 28 77.5 53.5t26.5 56.5q0 54 -47 54q-26 0 -43 -28.5t-17 -86.5zM346 138q-92 72 -157 154q-12 -26 -12 -59q0 -41 29.5 -72t81.5 -31q29 0 58 8z
" />
    <glyph glyph-name="at.case" horiz-adv-x="840" 
d="M861 466q0 -161 -69 -260.5t-160 -99.5q-42 0 -69.5 24.5t-37.5 66.5q-60 -91 -154 -91q-63 0 -106.5 44.5t-43.5 129.5q0 108 67 196.5t164 88.5q90 0 117 -66l18 48h135q-54 -144 -54 -252q0 -54 31 -54q27 0 45.5 52.5t18.5 130.5q0 102 -65 163t-175 61
q-149 0 -243.5 -102.5t-94.5 -249.5q0 -104 48 -164t128 -60q81 0 147 52l51 -45q-90 -97 -225 -97q-126 0 -211 94.5t-85 246.5q0 92 32.5 178.5t91.5 155.5t150.5 111t199.5 42q87 0 156.5 -31.5t110 -83t61.5 -110t21 -119.5zM436 241q61 0 93 126l-59 11q13 33 13 55
q0 30 -23 30q-27 0 -49 -45.5t-22 -102.5q0 -34 12.5 -54t34.5 -20z" />
    <glyph glyph-name="braceleft.case" horiz-adv-x="445" 
d="M346 -41h-143q-74 0 -104 31.5t-30 86.5q0 41 20 127t20 115q0 60 -54 60l16 84q34 0 53.5 20.5t27.5 53t14 71.5t19.5 78.5t38 72t75.5 53t126 20.5h98l-22 -81h-49q-36 0 -58.5 -18t-32.5 -46.5t-16.5 -63.5t-16 -69.5t-25 -63t-49.5 -46.5t-84 -18l-3 -14q98 0 98 -97
q0 -37 -17.5 -116t-17.5 -106q0 -53 45 -53h80z" />
    <glyph glyph-name="braceright.case" horiz-adv-x="431" 
d="M147 832h114q91 0 127.5 -30.5t36.5 -84.5q0 -37 -20.5 -110t-20.5 -97q0 -47 50 -47l-13 -84q-35 0 -55 -23t-27.5 -60t-12.5 -82t-15.5 -90t-30.5 -82t-63.5 -60t-108.5 -23h-128l22 81h72q40 0 62 20.5t29.5 53.5t10 72.5t7.5 79t17.5 72.5t45 53.5t85.5 20.5l2 14
q-56 0 -78 26t-22 72q0 27 9 83.5t9 79.5q0 64 -56 64h-57z" />
    <glyph glyph-name="bracketleft.case" horiz-adv-x="445" 
d="M51 -41q5 44 15 122t53.5 307t101.5 444h302l-22 -81h-109q-106 -282 -177 -711h140l-9 -81h-295z" />
    <glyph glyph-name="bracketright.case" horiz-adv-x="445" 
d="M158 832h295q-4 -44 -14 -122t-55 -307t-107 -444h-286l22 81h132q89 295 121 711h-117z" />
    <glyph glyph-name="bullet.case" horiz-adv-x="340" 
d="M195 456q50 0 81.5 -34t31.5 -77q0 -52 -34 -91.5t-93 -39.5q-49 0 -82.5 33t-33.5 82q0 52 36 89.5t94 37.5z" />
    <glyph glyph-name="caron.vert" horiz-adv-x="214" orientation="v" 
d="M126 473l-58 18q37 158 53 300l180 -43q-85 -168 -175 -275z" />
    <glyph glyph-name="d.ordn" horiz-adv-x="521" 
d="M477 491l54 -19q-51 -116 -137 -116q-62 0 -81 66q-49 -66 -121 -66q-49 0 -83 34.5t-34 100.5q0 84 52 153t128 69q56 0 82 -36l43 193h142q-100 -283 -100 -367q0 -42 25 -42q15 0 30 30zM242 461q45 0 70 87l-42 8q10 28 10 42q0 24 -18 24q-21 0 -38.5 -30t-17.5 -73
q0 -26 10 -42t26 -16z" />
    <glyph glyph-name="e.ordn" horiz-adv-x="430" 
d="M362 495l49 -37q-80 -102 -189 -102q-62 0 -103.5 39.5t-41.5 109.5q0 75 50.5 142t141.5 67q45 0 76.5 -19.5t31.5 -60.5q0 -54 -47 -91.5t-118 -51.5q14 -45 60 -45t90 49zM265 634q-17 0 -34 -24.5t-22 -60.5q32 6 53 24t21 40q0 21 -18 21z" />
    <glyph glyph-name="egrave.ordn" horiz-adv-x="430" 
d="M317 732h-51q-50 57 -81 139h114q2 -55 18 -139zM362 495l49 -37q-80 -102 -189 -102q-62 0 -103.5 39.5t-41.5 109.5q0 75 50.5 142t141.5 67q45 0 76.5 -19.5t31.5 -60.5q0 -54 -47 -91.5t-118 -51.5q14 -45 60 -45t90 49zM265 634q-17 0 -34 -24.5t-22 -60.5
q32 6 53 24t21 40q0 21 -18 21z" />
    <glyph glyph-name="emdash.case" horiz-adv-x="1000" 
d="M34 301l27 87l947 31l-19 -149z" />
    <glyph glyph-name="endash.case" horiz-adv-x="500" 
d="M34 295l27 94l447 23l-19 -137z" />
    <glyph glyph-name="exclamdown.case" horiz-adv-x="333" 
d="M171 551h133q-3 -59 -43.5 -260t-67.5 -291h-207q25 49 90 238t95 313zM255 591q-39 0 -65.5 26.5t-26.5 69.5q0 38 27.5 70.5t73.5 32.5q40 0 66 -28.5t26 -66.5q0 -42 -29.5 -73t-71.5 -31z" />
    <glyph glyph-name="g.alt" horiz-adv-x="500" 
d="M302 -36q0 33 -46 33q-7 0 -21 -2l-10 27h-6q-84 0 -139 49t-55 135q0 41 15 81.5t44 75.5t77 56.5t107 21.5q66 0 109 -32q34 71 103 123l89 -124l-114 -71q9 -31 9 -66q0 -74 -37 -134.5t-100 -90.5q100 -30 100 -119q0 -71 -53.5 -115t-157.5 -44q-62 0 -121 21.5
t-87 42.5l-27 22l67 145q32 -28 83.5 -51.5t109.5 -23.5q29 0 45 11.5t16 28.5zM257 128q38 0 58 41t20 88l-36 13q6 10 6 35q0 21 -12.5 32.5t-30.5 11.5q-28 0 -50 -35.5t-22 -84.5q0 -50 19.5 -75.5t47.5 -25.5z" />
    <glyph glyph-name="gbreve.alt" horiz-adv-x="500" 
d="M392 698l59 -17q-23 -89 -66.5 -129t-96.5 -40q-60 0 -98.5 50.5t-39.5 130.5h131q2 -29 14 -47.5t33 -18.5q38 0 64 71zM302 -36q0 33 -46 33q-7 0 -21 -2l-10 27h-6q-84 0 -139 49t-55 135q0 41 15 81.5t44 75.5t77 56.5t107 21.5q66 0 109 -32q34 71 103 123l89 -124
l-114 -71q9 -31 9 -66q0 -74 -37 -134.5t-100 -90.5q100 -30 100 -119q0 -71 -53.5 -115t-157.5 -44q-62 0 -121 21.5t-87 42.5l-27 22l67 145q32 -28 83.5 -51.5t109.5 -23.5q29 0 45 11.5t16 28.5zM257 128q38 0 58 41t20 88l-36 13q6 10 6 35q0 21 -12.5 32.5t-30.5 11.5
q-28 0 -50 -35.5t-22 -84.5q0 -50 19.5 -75.5t47.5 -25.5z" />
    <glyph glyph-name="gcircumflex.alt" horiz-adv-x="500" 
d="M302 -36q0 33 -46 33q-7 0 -21 -2l-10 27h-6q-84 0 -139 49t-55 135q0 41 15 81.5t44 75.5t77 56.5t107 21.5q66 0 109 -32q34 71 103 123l89 -124l-114 -71q9 -31 9 -66q0 -74 -37 -134.5t-100 -90.5q100 -30 100 -119q0 -71 -53.5 -115t-157.5 -44q-62 0 -121 21.5
t-87 42.5l-27 22l67 145q32 -28 83.5 -51.5t109.5 -23.5q29 0 45 11.5t16 28.5zM257 128q38 0 58 41t20 88l-36 13q6 10 6 35q0 21 -12.5 32.5t-30.5 11.5q-28 0 -50 -35.5t-22 -84.5q0 -50 19.5 -75.5t47.5 -25.5zM354 492l-73 76l-84 -75l-67 29l161 189h26l119 -181z" />
    <glyph glyph-name="gdotaccent.alt" horiz-adv-x="500" 
d="M314 730q43 0 72 -29t29 -76q0 -42 -30.5 -77.5t-80.5 -35.5q-44 0 -72.5 31t-28.5 73q0 46 32 80t79 34zM302 -36q0 33 -46 33q-7 0 -21 -2l-10 27h-6q-84 0 -139 49t-55 135q0 41 15 81.5t44 75.5t77 56.5t107 21.5q66 0 109 -32q34 71 103 123l89 -124l-114 -71
q9 -31 9 -66q0 -74 -37 -134.5t-100 -90.5q100 -30 100 -119q0 -71 -53.5 -115t-157.5 -44q-62 0 -121 21.5t-87 42.5l-27 22l67 145q32 -28 83.5 -51.5t109.5 -23.5q29 0 45 11.5t16 28.5zM257 128q38 0 58 41t20 88l-36 13q6 10 6 35q0 21 -12.5 32.5t-30.5 11.5
q-28 0 -50 -35.5t-22 -84.5q0 -50 19.5 -75.5t47.5 -25.5z" />
    <glyph glyph-name="uni0123.alt" horiz-adv-x="500" 
d="M386 701l28 -48q-21 -11 -36 -36t-15 -47q0 -16 6 -40l-141 -24q-12 29 -12 62q0 30 14 52.5t41.5 38t52 24t62.5 18.5zM302 -36q0 33 -46 33q-7 0 -21 -2l-10 27h-6q-84 0 -139 49t-55 135q0 41 15 81.5t44 75.5t77 56.5t107 21.5q66 0 109 -32q34 71 103 123l89 -124
l-114 -71q9 -31 9 -66q0 -74 -37 -134.5t-100 -90.5q100 -30 100 -119q0 -71 -53.5 -115t-157.5 -44q-62 0 -121 21.5t-87 42.5l-27 22l67 145q32 -28 83.5 -51.5t109.5 -23.5q29 0 45 11.5t16 28.5zM257 128q38 0 58 41t20 88l-36 13q6 10 6 35q0 21 -12.5 32.5t-30.5 11.5
q-28 0 -50 -35.5t-22 -84.5q0 -50 19.5 -75.5t47.5 -25.5z" />
    <glyph glyph-name="guillemotleft.case" horiz-adv-x="464" 
d="M234 534l37 -45q-4 -4 -23.5 -24t-26 -27.5l-19.5 -22.5t-20.5 -26.5t-13.5 -22.5q13 -33 39.5 -69.5t39.5 -48.5l-81 -82q-82 74 -111 123q-20 36 -20 63q0 28 72.5 90.5t126.5 91.5zM434 534l37 -45q-4 -4 -23.5 -24t-26 -27.5l-19.5 -22.5t-20.5 -26.5t-13.5 -22.5
q13 -33 39.5 -69.5t39.5 -48.5l-81 -82q-82 74 -111 123q-20 36 -20 63q0 28 72.5 90.5t126.5 91.5z" />
    <glyph glyph-name="guillemotright.case" horiz-adv-x="484" 
d="M285 166l-37 45q4 4 23.5 24t26 27.5l19.5 22.5t20.5 26.5t13.5 22.5q-13 33 -39.5 69.5t-39.5 48.5l81 82q82 -74 111 -123q20 -36 20 -63q0 -28 -72.5 -90.5t-126.5 -91.5zM85 166l-37 45q4 4 23.5 24t26 27.5l19.5 22.5t20.5 26.5t13.5 22.5q-13 33 -39.5 69.5
t-39.5 48.5l81 82q82 -74 111 -123q20 -36 20 -63q0 -28 -72.5 -90.5t-126.5 -91.5z" />
    <glyph glyph-name="guilsinglleft.case" horiz-adv-x="264" 
d="M234 534l37 -45q-4 -4 -23.5 -24t-26 -27.5l-19.5 -22.5t-20.5 -26.5t-13.5 -22.5q13 -33 39.5 -69.5t39.5 -48.5l-81 -82q-82 74 -111 123q-20 36 -20 63q0 28 72.5 90.5t126.5 91.5z" />
    <glyph glyph-name="guilsinglright.case" horiz-adv-x="284" 
d="M85 166l-37 45q4 4 23.5 24t26 27.5l19.5 22.5t20.5 26.5t13.5 22.5q-13 33 -39.5 69.5t-39.5 48.5l81 82q82 -74 111 -123q20 -36 20 -63q0 -28 -72.5 -90.5t-126.5 -91.5z" />
    <glyph glyph-name="h.ordn" horiz-adv-x="530" 
d="M409 483q0 -21 16 -21q27 0 52 49l47 -29q-61 -126 -150 -126q-40 0 -64.5 22.5t-24.5 62.5q0 30 15 77.5t15 62.5q0 22 -16 22q-31 0 -64 -68t-43 -165h-120q8 110 36.5 257t59.5 244h154q-5 -7 -22 -45.5t-40 -102.5t-38 -120q64 111 150 111q36 0 59 -20t23 -60
q0 -35 -22.5 -86.5t-22.5 -64.5z" />
    <glyph glyph-name="hyphen.case" horiz-adv-x="333" 
d="M34 295l27 94l280 23l-19 -137z" />
    <glyph glyph-name="m.ordn" horiz-adv-x="728" 
d="M607 483q0 -21 16 -21q27 0 52 49l47 -29q-61 -126 -150 -126q-40 0 -64.5 22.5t-24.5 62.5q0 30 13 75.5t13 60.5q0 22 -16 22q-55 0 -94 -229h-122q3 18 12.5 67.5t16.5 89t7 54.5q0 22 -16 22q-31 0 -63 -68t-41 -165h-121q6 85 19 167.5t23 122.5l10 40h122l-22 -94
q64 108 148 108q32 0 54 -16t27 -48q52 64 117 64q36 0 59 -20t23 -60q0 -35 -22.5 -86.5t-22.5 -64.5z" />
    <glyph glyph-name="n.ordn" horiz-adv-x="530" 
d="M124 700h122l-22 -94q64 108 148 108q36 0 59 -20t23 -60q0 -35 -22.5 -86.5t-22.5 -64.5q0 -21 16 -21q27 0 52 49l47 -29q-61 -126 -150 -126q-40 0 -64.5 22.5t-24.5 62.5q0 30 15 77.5t15 62.5q0 22 -16 22q-31 0 -64 -68t-43 -165h-120q6 85 19 167.5t23 122.5z" />
    <glyph glyph-name="o.alt" horiz-adv-x="482" 
d="M500 423h82q-19 -111 -115 -162q-3 -111 -77 -195t-183 -84q-82 0 -134 50t-52 141q0 46 16.5 92.5t47 86t81.5 64.5t113 25q63 0 102 -31.5t45 -80.5q54 29 74 94zM251 99q37 0 59.5 38.5t22.5 86.5q0 12 -1 18l-31 12q7 14 7 41q0 21 -11.5 32.5t-28.5 11.5
q-30 0 -55 -42t-25 -98q0 -50 17.5 -75t45.5 -25z" />
    <glyph glyph-name="o.alt2" horiz-adv-x="484" 
d="M279 441q57 0 97 -30t49 -80q47 4 95.5 20.5t73.5 30.5l26 14l30 -42q-78 -87 -184 -108q-8 -107 -81 -185.5t-178 -78.5q-82 0 -134 50t-52 141q0 46 16.5 92.5t47 86t81.5 64.5t113 25zM251 99q39 0 61.5 43t24.5 98l-36 14q7 14 7 41q0 21 -11.5 32.5t-28.5 11.5
q-30 0 -55 -42t-25 -98q0 -50 17.5 -75t45.5 -25z" />
    <glyph glyph-name="parenleft.case" horiz-adv-x="396" 
d="M327 -21l-40 -53q-109 57 -163 155.5t-54 218.5q0 171 98 329.5t253 220.5l45 -61q-103 -95 -166 -225t-63 -271q0 -100 20.5 -169.5t69.5 -144.5z" />
    <glyph glyph-name="parenright.case" horiz-adv-x="392" 
d="M140 807l41 43q108 -56 162.5 -166t54.5 -233q0 -157 -101.5 -306t-249.5 -219l-45 61q229 171 229 507q0 173 -91 313z" />
    <glyph glyph-name="percentoff" horiz-adv-x="1439" 
d="M1393 338h-91q47 -33 74.5 -87t27.5 -120q0 -98 -45.5 -155t-116.5 -57q-66 0 -98.5 51t-32.5 130q0 101 27 233q-22 5 -145 5q48 -33 75 -87t27 -120q0 -98 -45.5 -155t-116.5 -57q-66 0 -98.5 51t-32.5 130q0 101 27 233q-20 5 -39 5l17 61q24 0 37 1q17 72 40 145
t37 111l14 37h162q-66 -138 -114 -289l173 9q17 69 39 139t35 106l14 35h162q-61 -127 -108 -270l122 12zM152 -38l-54 38q227 223 395 555q-32 -14 -66 -20q-10 -87 -70.5 -149.5t-146.5 -62.5q-69 0 -113 42.5t-44 118.5q0 53 23 103t74.5 86.5t119.5 36.5q53 0 86 -26.5
t38 -66.5q115 11 165 76h129q-84 -179 -236 -387.5t-300 -343.5zM640 369q58 0 94 -30t38 -74l9 3q8 -22 8 -45q0 -96 -58 -168.5t-151 -72.5q-69 0 -113 42.5t-44 118.5q0 53 23 103t74.5 86.5t119.5 36.5zM316 526q0 2 -0.5 7.5t-0.5 8.5l-26 10q6 10 6 35q0 17 -9.5 27
t-24.5 10q-25 0 -46 -35t-21 -83q0 -43 15 -63.5t38 -20.5q31 0 50 32t19 72zM686 185q0 2 -0.5 7.5t-0.5 8.5l-26 10q6 10 6 35q0 17 -9.5 27t-24.5 10q-25 0 -46 -35t-21 -83q0 -43 15 -63.5t38 -20.5q31 0 50 32t19 72zM1309 128q0 87 -53 142q-14 -64 -14 -116
q0 -47 5.5 -71t21.5 -24q17 0 28.5 19t11.5 50zM1000 128q0 87 -53 142q-14 -64 -14 -116q0 -47 5.5 -71t21.5 -24q17 0 28.5 19t11.5 50z" />
    <glyph glyph-name="questiondown.case" horiz-adv-x="550" 
d="M424 551l-10 -85q-73 -19 -126.5 -70t-53.5 -121q0 -54 31 -80.5t77 -26.5q70 0 129 54l71 -128q-45 -51 -119 -81.5t-151 -30.5q-112 0 -180 64t-68 165q0 121 102 210.5t298 129.5zM359 591q-39 0 -65.5 26.5t-26.5 66.5q0 41 27.5 73.5t72.5 32.5q41 0 67 -28.5
t26 -67.5q0 -42 -29.5 -72.5t-71.5 -30.5z" />
    <glyph glyph-name="r.ordn" horiz-adv-x="422" 
d="M417 520l-114 29q6 21 6 30q0 20 -16 20q-34 0 -62.5 -64.5t-38.5 -164.5h-120q6 85 19 167.5t23 122.5l10 40h122l-23 -97q64 111 146 111q34 0 54 -23t20 -57q0 -20 -7.5 -56.5t-18.5 -57.5z" />
    <glyph glyph-name="r.alt" horiz-adv-x="460" 
d="M437 203l-123 38q8 24 8 39q0 25 -21 25q-43 0 -82.5 -88.5t-52.5 -216.5h-155q8 109 25 215t30 157l12 51h156q-6 -19 -27 -116h4q78 134 169 134q41 0 69 -26t28 -77q0 -27 -10.5 -68.5t-29.5 -66.5z" />
    <glyph glyph-name="racute.alt" horiz-adv-x="460" 
d="M301 483l-58 18q36 119 53 220l180 -28q-25 -43 -81.5 -111.5t-93.5 -98.5zM437 203l-123 38q8 24 8 39q0 25 -21 25q-43 0 -82.5 -88.5t-52.5 -216.5h-155q8 109 25 215t30 157l12 51h156q-6 -19 -27 -116h4q78 134 169 134q41 0 69 -26t28 -77q0 -27 -10.5 -68.5
t-29.5 -66.5z" />
    <glyph glyph-name="rcaron.alt" horiz-adv-x="460" 
d="M161 673l85 38l63 -73l94 72l54 -40l-164 -178h-26zM437 203l-123 38q8 24 8 39q0 25 -21 25q-43 0 -82.5 -88.5t-52.5 -216.5h-155q8 109 25 215t30 157l12 51h156q-6 -19 -27 -116h4q78 134 169 134q41 0 69 -26t28 -77q0 -27 -10.5 -68.5t-29.5 -66.5z" />
    <glyph glyph-name="uni0157.alt" horiz-adv-x="460" 
d="M-14 -232l-28 48q21 11 36 36t15 47q0 16 -6 40l141 24q12 -29 12 -62q0 -30 -14 -52.5t-41.5 -38t-52 -24t-62.5 -18.5zM437 203l-123 38q8 24 8 39q0 25 -21 25q-43 0 -82.5 -88.5t-52.5 -216.5h-155q8 109 25 215t30 157l12 51h156q-6 -19 -27 -116h4q78 134 169 134
q41 0 69 -26t28 -77q0 -27 -10.5 -68.5t-29.5 -66.5z" />
    <glyph glyph-name="r.start" horiz-adv-x="409" 
d="M62 504l113 15q0 -29 -14 -96h209q-54 -144 -54 -252q0 -54 31 -54q41 0 104 126l54 -27l-6 -12q-16 -31 -26.5 -51t-35 -56t-47 -58t-55.5 -39.5t-67 -17.5q-63 0 -93.5 43.5t-30.5 110.5q0 91 34 203h-37q-54 -221 -99 -304l-99 22q60 71 93.5 183.5t33.5 200.5
q0 39 -8 63z" />
    <glyph glyph-name="racute.start" horiz-adv-x="409" 
d="M62 504l113 15q0 -29 -14 -96h209q-54 -144 -54 -252q0 -54 31 -54q41 0 104 126l54 -27l-6 -12q-16 -31 -26.5 -51t-35 -56t-47 -58t-55.5 -39.5t-67 -17.5q-63 0 -93.5 43.5t-30.5 110.5q0 91 34 203h-37q-54 -221 -99 -304l-99 22q60 71 93.5 183.5t33.5 200.5
q0 39 -8 63zM301 483l-58 18q36 119 53 220l180 -28q-25 -43 -81.5 -111.5t-93.5 -98.5z" />
    <glyph glyph-name="rcaron.start" horiz-adv-x="409" 
d="M161 673l85 38l63 -73l94 72l54 -40l-164 -178h-26zM62 504l113 15q0 -29 -14 -96h209q-54 -144 -54 -252q0 -54 31 -54q41 0 104 126l54 -27l-6 -12q-16 -31 -26.5 -51t-35 -56t-47 -58t-55.5 -39.5t-67 -17.5q-63 0 -93.5 43.5t-30.5 110.5q0 91 34 203h-37
q-54 -221 -99 -304l-99 22q60 71 93.5 183.5t33.5 200.5q0 39 -8 63z" />
    <glyph glyph-name="uni0157.start" horiz-adv-x="409" 
d="M121 -232l-28 48q21 11 36 36t15 47q0 16 -6 40l141 24q12 -29 12 -62q0 -30 -14 -52.5t-41.5 -38t-52 -24t-62.5 -18.5zM62 504l113 15q0 -29 -14 -96h209q-54 -144 -54 -252q0 -54 31 -54q41 0 104 126l54 -27l-6 -12q-16 -31 -26.5 -51t-35 -56t-47 -58t-55.5 -39.5
t-67 -17.5q-63 0 -93.5 43.5t-30.5 110.5q0 91 34 203h-37q-54 -221 -99 -304l-99 22q60 71 93.5 183.5t33.5 200.5q0 39 -8 63z" />
    <glyph glyph-name="s.alt" horiz-adv-x="389" 
d="M38 108l75 13q2 -25 20 -42t38 -17q13 0 22 7.5t9 17.5q0 14 -17.5 28t-42.5 28.5t-49.5 32t-42 46.5t-17.5 66q0 68 47 115t139 47q89 0 136.5 -44t47.5 -103q0 -53 -20 -75l-124 26q7 14 7 29q0 14 -9 23.5t-22 9.5q-31 0 -31 -31q0 -20 24.5 -38t53.5 -32t53.5 -44
t24.5 -71q0 -56 -42.5 -92t-121.5 -36q-68 0 -113 39.5t-45 96.5z" />
    <glyph glyph-name="s.ordn" horiz-adv-x="356" 
d="M84 460l68 14q1 -20 14 -34t28 -14q10 0 17.5 6t7.5 14q0 13 -20.5 28t-45.5 27.5t-45.5 39.5t-20.5 62q0 53 36.5 89.5t108.5 36.5q69 0 106 -34t37 -81q0 -41 -15 -58l-97 20q5 12 5 23t-7 18t-17 7q-24 0 -24 -24q0 -16 19 -30t42 -24.5t42 -34t19 -55.5
q0 -44 -35 -72t-103 -28q-53 0 -86.5 30t-33.5 74z" />
    <glyph glyph-name="sacute.alt" horiz-adv-x="389" 
d="M256 483l-58 18q36 119 53 220l180 -28q-25 -43 -81.5 -111.5t-93.5 -98.5zM38 108l75 13q2 -25 20 -42t38 -17q13 0 22 7.5t9 17.5q0 14 -17.5 28t-42.5 28.5t-49.5 32t-42 46.5t-17.5 66q0 68 47 115t139 47q89 0 136.5 -44t47.5 -103q0 -53 -20 -75l-124 26q7 14 7 29
q0 14 -9 23.5t-22 9.5q-31 0 -31 -31q0 -20 24.5 -38t53.5 -32t53.5 -44t24.5 -71q0 -56 -42.5 -92t-121.5 -36q-68 0 -113 39.5t-45 96.5z" />
    <glyph glyph-name="scaron.alt" horiz-adv-x="389" 
d="M117 673l85 38l63 -73l94 72l54 -40l-164 -178h-26zM38 108l75 13q2 -25 20 -42t38 -17q13 0 22 7.5t9 17.5q0 14 -17.5 28t-42.5 28.5t-49.5 32t-42 46.5t-17.5 66q0 68 47 115t139 47q89 0 136.5 -44t47.5 -103q0 -53 -20 -75l-124 26q7 14 7 29q0 14 -9 23.5t-22 9.5
q-31 0 -31 -31q0 -20 24.5 -38t53.5 -32t53.5 -44t24.5 -71q0 -56 -42.5 -92t-121.5 -36q-68 0 -113 39.5t-45 96.5z" />
    <glyph glyph-name="scedilla.alt" horiz-adv-x="389" 
d="M99 -81l20 48q53 0 99.5 -27t46.5 -81q0 -42 -34 -66.5t-88 -24.5q-40 0 -77 16t-57 43l26 37q19 -19 49 -19q20 0 30.5 9.5t10.5 25.5q0 13 -7.5 24t-18.5 15zM38 108l75 13q2 -25 20 -42t38 -17q13 0 22 7.5t9 17.5q0 14 -17.5 28t-42.5 28.5t-49.5 32t-42 46.5
t-17.5 66q0 68 47 115t139 47q89 0 136.5 -44t47.5 -103q0 -53 -20 -75l-124 26q7 14 7 29q0 14 -9 23.5t-22 9.5q-31 0 -31 -31q0 -20 24.5 -38t53.5 -32t53.5 -44t24.5 -71q0 -56 -42.5 -92t-121.5 -36q-68 0 -113 39.5t-45 96.5z" />
    <glyph glyph-name="scircumflex.alt" horiz-adv-x="389" 
d="M319 492l-73 76l-84 -75l-67 29l161 189h26l119 -181zM38 108l75 13q2 -25 20 -42t38 -17q13 0 22 7.5t9 17.5q0 14 -17.5 28t-42.5 28.5t-49.5 32t-42 46.5t-17.5 66q0 68 47 115t139 47q89 0 136.5 -44t47.5 -103q0 -53 -20 -75l-124 26q7 14 7 29q0 14 -9 23.5
t-22 9.5q-31 0 -31 -31q0 -20 24.5 -38t53.5 -32t53.5 -44t24.5 -71q0 -56 -42.5 -92t-121.5 -36q-68 0 -113 39.5t-45 96.5z" />
    <glyph glyph-name="uni0219.alt" horiz-adv-x="389" 
d="M83 -232l-28 48q21 11 36 36t15 47q0 16 -6 40l141 24q12 -29 12 -62q0 -30 -14 -52.5t-41.5 -38t-52 -24t-62.5 -18.5zM38 108l75 13q2 -25 20 -42t38 -17q13 0 22 7.5t9 17.5q0 14 -17.5 28t-42.5 28.5t-49.5 32t-42 46.5t-17.5 66q0 68 47 115t139 47q89 0 136.5 -44
t47.5 -103q0 -53 -20 -75l-124 26q7 14 7 29q0 14 -9 23.5t-22 9.5q-31 0 -31 -31q0 -20 24.5 -38t53.5 -32t53.5 -44t24.5 -71q0 -56 -42.5 -92t-121.5 -36q-68 0 -113 39.5t-45 96.5z" />
    <glyph glyph-name="t.ordn" horiz-adv-x="368" 
d="M380 759l-32 -99h-96q-25 -91 -25 -150q0 -49 30 -49q19 0 43 24l45 -40q-67 -89 -141 -89q-55 0 -78.5 33.5t-23.5 99.5q0 65 23 171h-48l19 82l50 3l29 99h147q-18 -38 -38 -91z" />
    <glyph glyph-name="x.start" horiz-adv-x="457" 
d="M236 423q0 -61 23 -146q63 85 82 159l159 24q-25 -120 -203 -282q34 -60 72 -60q67 0 130 125l54 -27q-63 -131 -122.5 -182.5t-119.5 -51.5q-74 0 -136 92q-104 -87 -131 -114l-40 44q26 29 133 136q-58 120 -87 283h186z" />
    </font>
</defs>
</svg>
